STARTFONT 2.1
COMMENT
COMMENT Converted from TrueType font "times.ttf" by "ttf2bdf 2.6".
COMMENT
FONT -FreeType-Times New Roman-Medium-R-Normal--22-160-100-100-P-108-ISO10646-1
SIZE 16 100 100
FONTBOUNDINGBOX 37 29 -13 -7
STARTPROPERTIES 22
FOUNDRY "FreeType"
FAMILY_NAME "Times New Roman"
WEIGHT_NAME "Medium"
SLANT "R"
SETWIDTH_NAME "Normal"
ADD_STYLE_NAME ""
PIXEL_SIZE 22
POINT_SIZE 160
RESOLUTION_X 100
RESOLUTION_Y 100
SPACING "P"
AVERAGE_WIDTH 108
CHARSET_REGISTRY "ISO10646"
CHARSET_ENCODING "1"
FONT_ASCENT 19
FONT_DESCENT 4
COPYRIGHT "Typeface © The Monotype Corporation plc. Data © The Monotype Corporation plc/Type Solutions Inc. 1990-1992. All Rights Reserved"
_TTF_FONTFILE "times.ttf"
_TTF_PSNAME "TimesNewRomanPSMT"
_XFREE86_GLYPH_RANGES "32_126 160_383 399 402 416_417 431_432 461_476 506_511 601 710_711 713 728_733 768_769 771 777 803 894 900_906 908 910_929 931_974 1025_1036 1038_1103 1105_1116 1118_1119 1168_1171 1174_1175 1178_1181 1186_1187 1198_1203 1208_1211 1240_1241 1256_1257 1456_1475 1488_1514 1520_1524 1548 1563 1567 1569_1594 1600_1621 1632_1773 1776_1790 7808_7813 7840_7929 8204_8207 8211_8213 8215_8222 8224_8226 8230 8234_8238 8240 8242_8243 8249_8250 8252 8254 8260 8298_8303 8319 8355_8356 8359"
_XFREE86_GLYPH_RANGES "8362_8364 8453 8467 8470 8482 8486 8494 8531_8532 8539_8542 8592_8597 8616 8706 8710 8719 8721_8722 8725 8729_8730 8734_8735 8745 8747 8776 8800_8801 8804_8805 8962 8976 8992_8993 9472 9474 9484 9488 9492 9496 9500 9508 9516 9524 9532 9552_9580 9600 9604 9608 9612 9616_9619 9632_9633 9642_9644 9650 9658 9660 9668 9674_9675 9679 9688_9689 9702 9786_9788 9792 9794 9824 9827 9829_9830 9834_9835 59393_59397 59416 59450 61441_61442 61444_61489 64257_64258 64285_64288 64298_64310"
_XFREE86_GLYPH_RANGES "64312_64316 64318 64320_64321 64323_64324 64326_64433 64467_64487 64508_64511 64606_64610 64830_64831 65010 65152_65276 65532"
ENDPROPERTIES
CHARS 1419
STARTCHAR 0020
ENCODING 32
SWIDTH 225 0
DWIDTH 5 0
BBX 1 1 0 0
BITMAP
00
ENDCHAR
STARTCHAR 0021
ENCODING 33
SWIDTH 270 0
DWIDTH 6 0
BBX 2 15 2 0
BITMAP
C0
C0
C0
C0
C0
C0
80
80
80
80
80
00
00
C0
C0
ENDCHAR
STARTCHAR 0022
ENCODING 34
SWIDTH 405 0
DWIDTH 9 0
BBX 6 6 2 9
BITMAP
CC
CC
CC
CC
88
88
ENDCHAR
STARTCHAR 0023
ENCODING 35
SWIDTH 495 0
DWIDTH 11 0
BBX 11 16 0 0
BITMAP
0840
0840
0840
1080
1080
FFE0
1080
1080
2100
FFE0
2100
2100
2100
4200
4200
4200
ENDCHAR
STARTCHAR 0024
ENCODING 36
SWIDTH 495 0
DWIDTH 11 0
BBX 9 17 1 -1
BITMAP
0800
3E00
6B00
C900
C900
E800
7800
3C00
1E00
0F00
0B80
0980
8980
8980
CB00
7E00
0800
ENDCHAR
STARTCHAR 0025
ENCODING 37
SWIDTH 810 0
DWIDTH 18 0
BBX 18 15 0 0
BITMAP
380200
6C0400
C60800
C61000
C61000
C62000
6C4000
38C700
008D80
0118C0
0218C0
0218C0
0418C0
080D80
100700
ENDCHAR
STARTCHAR 0026
ENCODING 38
SWIDTH 765 0
DWIDTH 17 0
BBX 16 15 1 0
BITMAP
0380
0440
0C40
0C40
0C80
073C
0E18
1310
2320
41A0
C1C0
C0C0
C1E3
627E
3C1C
ENDCHAR
STARTCHAR 0027
ENCODING 39
SWIDTH 180 0
DWIDTH 4 0
BBX 2 6 1 9
BITMAP
C0
C0
C0
C0
80
80
ENDCHAR
STARTCHAR 0028
ENCODING 40
SWIDTH 315 0
DWIDTH 7 0
BBX 6 20 1 -4
BITMAP
04
08
10
20
60
60
40
C0
C0
C0
C0
C0
C0
40
60
60
20
10
08
04
ENDCHAR
STARTCHAR 0029
ENCODING 41
SWIDTH 315 0
DWIDTH 7 0
BBX 6 20 0 -4
BITMAP
80
40
20
10
18
18
08
0C
0C
0C
0C
0C
0C
08
18
18
10
20
40
80
ENDCHAR
STARTCHAR 002A
ENCODING 42
SWIDTH 495 0
DWIDTH 11 0
BBX 9 9 1 7
BITMAP
0800
0800
C980
EB80
1C00
EB80
C980
0800
0800
ENDCHAR
STARTCHAR 002B
ENCODING 43
SWIDTH 540 0
DWIDTH 12 0
BBX 11 11 0 2
BITMAP
0400
0400
0400
0400
0400
FFE0
0400
0400
0400
0400
0400
ENDCHAR
STARTCHAR 002C
ENCODING 44
SWIDTH 225 0
DWIDTH 5 0
BBX 3 5 1 -3
BITMAP
C0
E0
20
40
80
ENDCHAR
STARTCHAR 002D
ENCODING 45
SWIDTH 315 0
DWIDTH 7 0
BBX 5 2 1 4
BITMAP
F8
F8
ENDCHAR
STARTCHAR 002E
ENCODING 46
SWIDTH 270 0
DWIDTH 6 0
BBX 2 2 2 0
BITMAP
C0
C0
ENDCHAR
STARTCHAR 002F
ENCODING 47
SWIDTH 270 0
DWIDTH 6 0
BBX 6 16 0 0
BITMAP
04
04
08
08
08
10
10
10
20
20
20
40
40
40
80
80
ENDCHAR
STARTCHAR 0030
ENCODING 48
SWIDTH 495 0
DWIDTH 11 0
BBX 9 15 1 0
BITMAP
1C00
2200
6300
4100
C180
C180
C180
C180
C180
C180
C180
4100
6300
2200
1C00
ENDCHAR
STARTCHAR 0031
ENCODING 49
SWIDTH 495 0
DWIDTH 11 0
BBX 6 15 2 0
BITMAP
30
F0
30
30
30
30
30
30
30
30
30
30
30
30
FC
ENDCHAR
STARTCHAR 0032
ENCODING 50
SWIDTH 495 0
DWIDTH 11 0
BBX 9 15 1 0
BITMAP
3C00
7E00
C700
8300
0300
0300
0200
0600
0400
0800
0800
1000
2180
7F00
FF00
ENDCHAR
STARTCHAR 0033
ENCODING 51
SWIDTH 495 0
DWIDTH 11 0
BBX 8 15 1 0
BITMAP
3C
7E
86
06
06
04
1C
3E
07
03
03
03
02
C6
F8
ENDCHAR
STARTCHAR 0034
ENCODING 52
SWIDTH 495 0
DWIDTH 11 0
BBX 10 15 0 0
BITMAP
0300
0300
0700
0B00
0B00
1300
2300
2300
4300
8300
FFC0
0300
0300
0300
0300
ENDCHAR
STARTCHAR 0035
ENCODING 53
SWIDTH 495 0
DWIDTH 11 0
BBX 8 15 1 0
BITMAP
1F
3E
20
20
70
7C
1E
07
03
01
01
01
02
C4
F8
ENDCHAR
STARTCHAR 0036
ENCODING 54
SWIDTH 495 0
DWIDTH 11 0
BBX 9 15 1 0
BITMAP
0380
0E00
1800
3000
6000
6000
DE00
E300
C180
C180
C180
C180
6100
2300
1E00
ENDCHAR
STARTCHAR 0037
ENCODING 55
SWIDTH 495 0
DWIDTH 11 0
BBX 9 15 1 0
BITMAP
7F80
7F00
8100
0100
0200
0200
0200
0400
0400
0400
0800
0800
0800
1000
1000
ENDCHAR
STARTCHAR 0038
ENCODING 56
SWIDTH 495 0
DWIDTH 11 0
BBX 9 15 1 0
BITMAP
3E00
6300
C180
C180
E180
7300
3C00
1C00
2E00
4700
C380
C180
C180
6300
3E00
ENDCHAR
STARTCHAR 0039
ENCODING 57
SWIDTH 495 0
DWIDTH 11 0
BBX 9 15 1 0
BITMAP
3C00
6200
4300
C180
C180
C180
C180
6380
3D80
0300
0300
0600
0C00
3800
E000
ENDCHAR
STARTCHAR 003A
ENCODING 58
SWIDTH 270 0
DWIDTH 6 0
BBX 2 11 2 0
BITMAP
C0
C0
00
00
00
00
00
00
00
C0
C0
ENDCHAR
STARTCHAR 003B
ENCODING 59
SWIDTH 225 0
DWIDTH 5 0
BBX 3 14 1 -3
BITMAP
C0
C0
00
00
00
00
00
00
00
C0
E0
20
40
80
ENDCHAR
STARTCHAR 003C
ENCODING 60
SWIDTH 540 0
DWIDTH 12 0
BBX 12 11 0 2
BITMAP
0010
00E0
0300
0C00
7000
8000
7000
0C00
0300
00E0
0010
ENDCHAR
STARTCHAR 003D
ENCODING 61
SWIDTH 540 0
DWIDTH 12 0
BBX 12 5 0 5
BITMAP
FFF0
0000
0000
0000
FFF0
ENDCHAR
STARTCHAR 003E
ENCODING 62
SWIDTH 540 0
DWIDTH 12 0
BBX 12 11 0 2
BITMAP
8000
7000
0C00
0300
00E0
0010
00E0
0300
0C00
7000
8000
ENDCHAR
STARTCHAR 003F
ENCODING 63
SWIDTH 450 0
DWIDTH 10 0
BBX 8 15 1 0
BITMAP
3C
46
83
C3
C3
03
06
04
08
08
10
10
00
18
18
ENDCHAR
STARTCHAR 0040
ENCODING 64
SWIDTH 900 0
DWIDTH 20 0
BBX 19 21 1 -5
BITMAP
01F800
060600
080100
100080
207280
60CE40
418640
430440
870440
860C40
8E0C40
8C0C80
8C1880
8C3900
4C5900
479E20
400040
200080
100100
0C0600
03F800
ENDCHAR
STARTCHAR 0041
ENCODING 65
SWIDTH 720 0
DWIDTH 16 0
BBX 15 15 1 0
BITMAP
0100
0300
0380
0580
0580
05C0
08C0
08C0
1060
1FE0
1060
2030
2030
6038
F07E
ENDCHAR
STARTCHAR 0042
ENCODING 66
SWIDTH 630 0
DWIDTH 14 0
BBX 13 15 0 0
BITMAP
FFC0
3060
3030
3030
3030
3030
3060
3FC0
3070
3038
3018
3018
3018
3030
FFE0
ENDCHAR
STARTCHAR 0043
ENCODING 67
SWIDTH 675 0
DWIDTH 15 0
BBX 13 15 1 0
BITMAP
07C8
1878
3018
6018
4008
C000
C000
C000
C000
C000
C000
6008
3010
1860
0FC0
ENDCHAR
STARTCHAR 0044
ENCODING 68
SWIDTH 720 0
DWIDTH 16 0
BBX 15 15 0 0
BITMAP
FFC0
3070
3018
300C
300C
3006
3006
3006
3006
3006
300C
300C
3018
3070
FFC0
ENDCHAR
STARTCHAR 0045
ENCODING 69
SWIDTH 585 0
DWIDTH 13 0
BBX 13 15 0 0
BITMAP
FFF0
3030
3010
3000
3000
3040
3040
3FC0
3040
3040
3000
3008
3010
3030
FFF0
ENDCHAR
STARTCHAR 0046
ENCODING 70
SWIDTH 540 0
DWIDTH 12 0
BBX 11 15 0 0
BITMAP
FFE0
3060
3020
3000
3000
3080
3080
3F80
3080
3080
3000
3000
3000
3000
FC00
ENDCHAR
STARTCHAR 0047
ENCODING 71
SWIDTH 720 0
DWIDTH 16 0
BBX 15 15 1 0
BITMAP
07C8
1878
3018
6018
4008
C000
C000
C07E
C018
C018
6018
6018
3018
1C18
07E0
ENDCHAR
STARTCHAR 0048
ENCODING 72
SWIDTH 675 0
DWIDTH 15 0
BBX 15 15 0 0
BITMAP
FC7E
3018
3018
3018
3018
3018
3018
3FF8
3018
3018
3018
3018
3018
3018
FC7E
ENDCHAR
STARTCHAR 0049
ENCODING 73
SWIDTH 270 0
DWIDTH 6 0
BBX 6 15 0 0
BITMAP
FC
30
30
30
30
30
30
30
30
30
30
30
30
30
FC
ENDCHAR
STARTCHAR 004A
ENCODING 74
SWIDTH 405 0
DWIDTH 9 0
BBX 8 15 1 0
BITMAP
3F
0C
0C
0C
0C
0C
0C
0C
0C
0C
0C
0C
CC
E8
70
ENDCHAR
STARTCHAR 004B
ENCODING 75
SWIDTH 675 0
DWIDTH 15 0
BBX 15 15 0 0
BITMAP
FC7C
3038
3020
3040
3080
3100
3200
3E00
3700
3380
31C0
30E0
3070
3038
FC7E
ENDCHAR
STARTCHAR 004C
ENCODING 76
SWIDTH 540 0
DWIDTH 12 0
BBX 12 15 0 0
BITMAP
FC00
3000
3000
3000
3000
3000
3000
3000
3000
3000
3000
3010
3030
3060
FFE0
ENDCHAR
STARTCHAR 004D
ENCODING 77
SWIDTH 855 0
DWIDTH 19 0
BBX 19 15 0 0
BITMAP
F801E0
380380
3C0380
2C0380
2E0580
2E0580
260980
270980
231180
239180
219180
21E180
20E180
20C180
F847E0
ENDCHAR
STARTCHAR 004E
ENCODING 78
SWIDTH 720 0
DWIDTH 16 0
BBX 16 15 0 0
BITMAP
F01F
3804
1C04
1C04
1604
1304
1184
11C4
10E4
1064
1034
101C
101C
100C
7C04
ENDCHAR
STARTCHAR 004F
ENCODING 79
SWIDTH 720 0
DWIDTH 16 0
BBX 14 15 1 0
BITMAP
0FC0
1860
2010
6018
4008
C00C
C00C
C00C
C00C
C00C
4008
6018
3010
1860
0FC0
ENDCHAR
STARTCHAR 0050
ENCODING 80
SWIDTH 540 0
DWIDTH 12 0
BBX 11 15 0 0
BITMAP
FF00
31C0
30E0
3060
3060
3060
30C0
31C0
3F00
3000
3000
3000
3000
3000
FC00
ENDCHAR
STARTCHAR 0051
ENCODING 81
SWIDTH 720 0
DWIDTH 16 0
BBX 14 19 1 -4
BITMAP
0FC0
1860
2030
6018
4008
C00C
C00C
C00C
C00C
C00C
C00C
6018
7010
3870
0FC0
0380
01C0
0070
001C
ENDCHAR
STARTCHAR 0052
ENCODING 82
SWIDTH 630 0
DWIDTH 14 0
BBX 15 15 0 0
BITMAP
FF80
30C0
3060
3060
3060
3060
31C0
3F00
3300
3180
30C0
30E0
3060
3038
FC3E
ENDCHAR
STARTCHAR 0053
ENCODING 83
SWIDTH 540 0
DWIDTH 12 0
BBX 10 15 1 0
BITMAP
3C80
6380
C180
C080
E080
7000
3C00
0F00
0380
01C0
80C0
80C0
C0C0
E180
9F00
ENDCHAR
STARTCHAR 0054
ENCODING 84
SWIDTH 630 0
DWIDTH 14 0
BBX 12 15 1 0
BITMAP
FFF0
C630
8610
8610
0600
0600
0600
0600
0600
0600
0600
0600
0600
0600
1F80
ENDCHAR
STARTCHAR 0055
ENCODING 85
SWIDTH 675 0
DWIDTH 15 0
BBX 15 15 0 0
BITMAP
FC3E
3008
3008
3008
3008
3008
3008
3008
3008
3008
3008
3008
1810
1C30
07C0
ENDCHAR
STARTCHAR 0056
ENCODING 86
SWIDTH 675 0
DWIDTH 15 0
BBX 16 15 0 0
BITMAP
FC1F
380C
180C
1808
1808
0C10
0C10
0620
0620
0620
0340
0340
0380
0180
0180
ENDCHAR
STARTCHAR 0057
ENCODING 87
SWIDTH 900 0
DWIDTH 20 0
BBX 20 15 0 0
BITMAP
F9F8F0
706060
306040
303040
303040
107080
185880
189880
189880
0C8D00
0D0D00
0D0F00
0E0600
060600
040200
ENDCHAR
STARTCHAR 0058
ENCODING 88
SWIDTH 675 0
DWIDTH 15 0
BBX 16 15 0 0
BITMAP
FE3E
380C
1808
0C10
0620
0640
0380
0180
01C0
02C0
0460
0830
1018
301C
F83F
ENDCHAR
STARTCHAR 0059
ENCODING 89
SWIDTH 720 0
DWIDTH 16 0
BBX 16 15 0 0
BITMAP
FE1F
380C
1808
0C10
0620
0620
0340
0340
0180
0180
0180
0180
0180
0180
07E0
ENDCHAR
STARTCHAR 005A
ENCODING 90
SWIDTH 540 0
DWIDTH 12 0
BBX 12 15 0 0
BITMAP
7FE0
60C0
40C0
4180
0180
0300
0600
0600
0C00
1800
1800
3010
6010
6030
FFE0
ENDCHAR
STARTCHAR 005B
ENCODING 91
SWIDTH 360 0
DWIDTH 8 0
BBX 5 20 2 -4
BITMAP
F8
C0
C0
C0
C0
C0
C0
C0
C0
C0
C0
C0
C0
C0
C0
C0
C0
C0
C0
F8
ENDCHAR
STARTCHAR 005C
ENCODING 92
SWIDTH 270 0
DWIDTH 6 0
BBX 6 16 0 0
BITMAP
80
80
40
40
40
20
20
20
10
10
10
08
08
08
04
04
ENDCHAR
STARTCHAR 005D
ENCODING 93
SWIDTH 360 0
DWIDTH 8 0
BBX 5 20 1 -4
BITMAP
F8
18
18
18
18
18
18
18
18
18
18
18
18
18
18
18
18
18
18
F8
ENDCHAR
STARTCHAR 005E
ENCODING 94
SWIDTH 450 0
DWIDTH 10 0
BBX 10 8 0 7
BITMAP
0C00
1200
1200
2100
2100
4080
4080
8040
ENDCHAR
STARTCHAR 005F
ENCODING 95
SWIDTH 495 0
DWIDTH 11 0
BBX 11 1 0 -5
BITMAP
FFE0
ENDCHAR
STARTCHAR 0060
ENCODING 96
SWIDTH 315 0
DWIDTH 7 0
BBX 3 4 1 11
BITMAP
C0
40
20
20
ENDCHAR
STARTCHAR 0061
ENCODING 97
SWIDTH 450 0
DWIDTH 10 0
BBX 9 11 1 0
BITMAP
7C00
C600
C600
C600
0E00
3600
6600
C600
C600
CE80
7700
ENDCHAR
STARTCHAR 0062
ENCODING 98
SWIDTH 495 0
DWIDTH 11 0
BBX 10 16 0 0
BITMAP
6000
E000
6000
6000
6000
6F00
7180
61C0
60C0
60C0
60C0
60C0
60C0
6180
7100
1E00
ENDCHAR
STARTCHAR 0063
ENCODING 99
SWIDTH 450 0
DWIDTH 10 0
BBX 8 11 1 0
BITMAP
1E
63
43
C0
C0
C0
C0
E0
61
7E
3C
ENDCHAR
STARTCHAR 0064
ENCODING 100
SWIDTH 495 0
DWIDTH 11 0
BBX 10 16 1 0
BITMAP
0180
0380
0180
0180
0180
1D80
2380
6180
C180
C180
C180
C180
C180
6180
73C0
3D80
ENDCHAR
STARTCHAR 0065
ENCODING 101
SWIDTH 450 0
DWIDTH 10 0
BBX 8 11 1 0
BITMAP
3C
66
43
FF
C0
C0
C0
E1
73
7E
3C
ENDCHAR
STARTCHAR 0066
ENCODING 102
SWIDTH 315 0
DWIDTH 7 0
BBX 9 16 0 0
BITMAP
0F00
1180
3180
3000
3000
FE00
3000
3000
3000
3000
3000
3000
3000
3000
3000
FC00
ENDCHAR
STARTCHAR 0067
ENCODING 103
SWIDTH 450 0
DWIDTH 10 0
BBX 10 16 0 -5
BITMAP
1E00
33C0
6180
6180
6180
3300
1E00
6000
4000
7F80
3FC0
4040
8040
8080
C080
3F00
ENDCHAR
STARTCHAR 0068
ENCODING 104
SWIDTH 450 0
DWIDTH 10 0
BBX 10 16 0 0
BITMAP
6000
E000
6000
6000
6000
6700
7980
6180
6180
6180
6180
6180
6180
6180
6180
F3C0
ENDCHAR
STARTCHAR 0069
ENCODING 105
SWIDTH 270 0
DWIDTH 6 0
BBX 4 16 1 0
BITMAP
60
60
00
00
00
60
E0
60
60
60
60
60
60
60
60
F0
ENDCHAR
STARTCHAR 006A
ENCODING 106
SWIDTH 270 0
DWIDTH 6 0
BBX 6 21 -2 -5
BITMAP
0C
0C
00
00
00
0C
1C
0C
0C
0C
0C
0C
0C
0C
0C
0C
0C
0C
0C
C8
F0
ENDCHAR
STARTCHAR 006B
ENCODING 107
SWIDTH 495 0
DWIDTH 11 0
BBX 11 16 0 0
BITMAP
6000
E000
6000
6000
6000
63C0
6100
6200
6400
6800
7800
6C00
6600
6300
6180
F3E0
ENDCHAR
STARTCHAR 006C
ENCODING 108
SWIDTH 270 0
DWIDTH 6 0
BBX 4 16 1 0
BITMAP
60
E0
60
60
60
60
60
60
60
60
60
60
60
60
60
F0
ENDCHAR
STARTCHAR 006D
ENCODING 109
SWIDTH 720 0
DWIDTH 16 0
BBX 16 11 0 0
BITMAP
671C
FBE6
6186
6186
6186
6186
6186
6186
6186
6186
F3CF
ENDCHAR
STARTCHAR 006E
ENCODING 110
SWIDTH 450 0
DWIDTH 10 0
BBX 10 11 0 0
BITMAP
6700
F980
6180
6180
6180
6180
6180
6180
6180
6180
F3C0
ENDCHAR
STARTCHAR 006F
ENCODING 111
SWIDTH 495 0
DWIDTH 11 0
BBX 9 11 1 0
BITMAP
1E00
6300
4300
C180
C180
C180
C180
C180
6100
7300
1C00
ENDCHAR
STARTCHAR 0070
ENCODING 112
SWIDTH 495 0
DWIDTH 11 0
BBX 10 16 0 -5
BITMAP
6F00
F180
61C0
60C0
60C0
60C0
60C0
60C0
6180
7180
6E00
6000
6000
6000
6000
F000
ENDCHAR
STARTCHAR 0071
ENCODING 113
SWIDTH 495 0
DWIDTH 11 0
BBX 10 16 1 -5
BITMAP
1E80
2380
6180
C180
C180
C180
C180
C180
E180
6380
3D80
0180
0180
0180
0180
03C0
ENDCHAR
STARTCHAR 0072
ENCODING 114
SWIDTH 315 0
DWIDTH 7 0
BBX 7 11 0 0
BITMAP
6E
F6
60
60
60
60
60
60
60
60
F0
ENDCHAR
STARTCHAR 0073
ENCODING 115
SWIDTH 405 0
DWIDTH 9 0
BBX 7 11 1 0
BITMAP
7A
86
82
C0
F0
7C
1E
06
82
C2
BC
ENDCHAR
STARTCHAR 0074
ENCODING 116
SWIDTH 270 0
DWIDTH 6 0
BBX 6 14 0 0
BITMAP
20
60
60
F8
60
60
60
60
60
60
60
60
64
38
ENDCHAR
STARTCHAR 0075
ENCODING 117
SWIDTH 495 0
DWIDTH 11 0
BBX 10 11 0 0
BITMAP
E380
6180
6180
6180
6180
6180
6180
6180
6180
63C0
3D80
ENDCHAR
STARTCHAR 0076
ENCODING 118
SWIDTH 495 0
DWIDTH 11 0
BBX 11 11 0 0
BITMAP
F8E0
7040
3080
3080
1880
1900
0D00
0D00
0E00
0600
0600
ENDCHAR
STARTCHAR 0077
ENCODING 119
SWIDTH 675 0
DWIDTH 15 0
BBX 16 11 -1 0
BITMAP
FBE7
30C2
30C2
30E4
1964
1964
1A68
0E38
0E38
0C30
0410
ENDCHAR
STARTCHAR 0078
ENCODING 120
SWIDTH 450 0
DWIDTH 10 0
BBX 10 11 0 0
BITMAP
F3C0
6100
3100
1A00
1C00
0C00
1600
1300
2300
4180
E3C0
ENDCHAR
STARTCHAR 0079
ENCODING 121
SWIDTH 495 0
DWIDTH 11 0
BBX 11 16 0 -5
BITMAP
F8E0
7040
3040
3080
1880
1880
0D00
0D00
0700
0600
0200
0400
0400
0C00
7800
7000
ENDCHAR
STARTCHAR 007A
ENCODING 122
SWIDTH 405 0
DWIDTH 9 0
BBX 9 11 0 0
BITMAP
7F80
4300
0300
0600
0C00
1C00
1800
3000
6000
6080
FF80
ENDCHAR
STARTCHAR 007B
ENCODING 123
SWIDTH 495 0
DWIDTH 11 0
BBX 6 20 3 -4
BITMAP
0C
18
30
30
30
30
30
30
30
60
80
60
30
30
30
30
30
30
18
0C
ENDCHAR
STARTCHAR 007C
ENCODING 124
SWIDTH 180 0
DWIDTH 4 0
BBX 1 20 1 -4
BITMAP
80
80
80
80
80
80
80
80
80
80
80
80
80
80
80
80
80
80
80
80
ENDCHAR
STARTCHAR 007D
ENCODING 125
SWIDTH 495 0
DWIDTH 11 0
BBX 6 20 2 -4
BITMAP
C0
60
30
30
30
30
30
30
30
18
04
18
30
30
30
30
30
30
60
C0
ENDCHAR
STARTCHAR 007E
ENCODING 126
SWIDTH 540 0
DWIDTH 12 0
BBX 12 3 0 4
BITMAP
7810
C630
81E0
ENDCHAR
STARTCHAR 00A0
ENCODING 160
SWIDTH 225 0
DWIDTH 5 0
BBX 1 1 0 0
BITMAP
00
ENDCHAR
STARTCHAR 00A1
ENCODING 161
SWIDTH 270 0
DWIDTH 6 0
BBX 2 15 2 -5
BITMAP
C0
C0
00
00
40
40
40
40
40
C0
C0
C0
C0
C0
C0
ENDCHAR
STARTCHAR 00A2
ENCODING 162
SWIDTH 450 0
DWIDTH 10 0
BBX 8 18 1 -3
BITMAP
01
03
02
02
1E
67
47
CB
C8
D0
D0
D1
62
7E
3C
40
40
80
ENDCHAR
STARTCHAR 00A3
ENCODING 163
SWIDTH 495 0
DWIDTH 11 0
BBX 10 15 1 0
BITMAP
0700
0980
1800
1800
1800
1800
1800
7F00
1800
1800
1800
1800
78C0
BF80
E780
ENDCHAR
STARTCHAR 00A4
ENCODING 164
SWIDTH 495 0
DWIDTH 11 0
BBX 10 12 0 1
BITMAP
8040
5E80
2100
4080
8040
8040
8040
8040
4080
6100
5E80
8040
ENDCHAR
STARTCHAR 00A5
ENCODING 165
SWIDTH 495 0
DWIDTH 11 0
BBX 11 15 0 0
BITMAP
F1E0
6080
7080
3100
3100
1A00
1A00
FFC0
0C00
0C00
FFC0
0C00
0C00
0C00
3F00
ENDCHAR
STARTCHAR 00A6
ENCODING 166
SWIDTH 225 0
DWIDTH 5 0
BBX 1 20 2 -4
BITMAP
80
80
80
80
80
80
80
80
00
00
00
00
80
80
80
80
80
80
80
80
ENDCHAR
STARTCHAR 00A7
ENCODING 167
SWIDTH 495 0
DWIDTH 11 0
BBX 8 19 2 -4
BITMAP
1E
63
43
60
70
38
5C
86
83
81
C1
62
3A
1C
0E
06
C2
C6
78
ENDCHAR
STARTCHAR 00A8
ENCODING 168
SWIDTH 315 0
DWIDTH 7 0
BBX 5 2 1 12
BITMAP
D8
D8
ENDCHAR
STARTCHAR 00A9
ENCODING 169
SWIDTH 765 0
DWIDTH 17 0
BBX 15 15 1 0
BITMAP
07C0
1830
2008
43E4
4C64
8822
9802
9802
9802
9802
4C64
4784
2008
1830
07C0
ENDCHAR
STARTCHAR 00AA
ENCODING 170
SWIDTH 270 0
DWIDTH 6 0
BBX 6 7 0 8
BITMAP
70
88
18
68
88
98
EC
ENDCHAR
STARTCHAR 00AB
ENCODING 171
SWIDTH 495 0
DWIDTH 11 0
BBX 10 11 0 0
BITMAP
0840
1080
3180
6300
6300
C600
6300
6300
3180
1080
0840
ENDCHAR
STARTCHAR 00AC
ENCODING 172
SWIDTH 540 0
DWIDTH 12 0
BBX 11 4 0 5
BITMAP
FFE0
0020
0020
0020
ENDCHAR
STARTCHAR 00AD
ENCODING 173
SWIDTH 315 0
DWIDTH 7 0
BBX 5 2 1 4
BITMAP
F8
F8
ENDCHAR
STARTCHAR 00AE
ENCODING 174
SWIDTH 765 0
DWIDTH 17 0
BBX 15 15 1 0
BITMAP
07C0
1830
2008
5FC4
4CE4
8C62
8CE2
8F82
8D82
8CC2
4C64
5E34
2008
1830
07C0
ENDCHAR
STARTCHAR 00AF
ENCODING 175
SWIDTH 495 0
DWIDTH 11 0
BBX 11 1 0 16
BITMAP
FFE0
ENDCHAR
STARTCHAR 00B0
ENCODING 176
SWIDTH 405 0
DWIDTH 9 0
BBX 7 7 1 8
BITMAP
38
44
82
82
82
44
38
ENDCHAR
STARTCHAR 00B1
ENCODING 177
SWIDTH 540 0
DWIDTH 12 0
BBX 11 11 0 2
BITMAP
0400
0400
0400
0400
0400
FFE0
0400
0400
0400
0400
FFE0
ENDCHAR
STARTCHAR 00B2
ENCODING 178
SWIDTH 315 0
DWIDTH 7 0
BBX 6 8 0 7
BITMAP
78
84
04
08
10
20
40
FC
ENDCHAR
STARTCHAR 00B3
ENCODING 179
SWIDTH 270 0
DWIDTH 6 0
BBX 5 8 0 7
BITMAP
70
88
10
38
08
08
08
F0
ENDCHAR
STARTCHAR 00B4
ENCODING 180
SWIDTH 315 0
DWIDTH 7 0
BBX 3 4 2 11
BITMAP
60
40
80
80
ENDCHAR
STARTCHAR 00B5
ENCODING 181
SWIDTH 585 0
DWIDTH 13 0
BBX 11 16 1 -5
BITMAP
6180
6180
6180
6180
6180
6180
6180
6180
6180
77A0
78C0
4000
4000
C000
C000
C000
ENDCHAR
STARTCHAR 00B6
ENCODING 182
SWIDTH 450 0
DWIDTH 10 0
BBX 10 20 0 -5
BITMAP
3FC0
7C80
FC80
FC80
FC80
FC80
7C80
3C80
0480
0480
0480
0480
0480
0480
0480
0480
0480
0480
0480
0480
ENDCHAR
STARTCHAR 00B7
ENCODING 183
SWIDTH 225 0
DWIDTH 5 0
BBX 2 2 1 6
BITMAP
C0
C0
ENDCHAR
STARTCHAR 00B8
ENCODING 184
SWIDTH 315 0
DWIDTH 7 0
BBX 4 4 2 -4
BITMAP
20
60
30
E0
ENDCHAR
STARTCHAR 00B9
ENCODING 185
SWIDTH 315 0
DWIDTH 7 0
BBX 3 8 1 7
BITMAP
40
C0
40
40
40
40
40
E0
ENDCHAR
STARTCHAR 00BA
ENCODING 186
SWIDTH 315 0
DWIDTH 7 0
BBX 6 7 0 8
BITMAP
78
8C
84
84
84
C4
78
ENDCHAR
STARTCHAR 00BB
ENCODING 187
SWIDTH 495 0
DWIDTH 11 0
BBX 10 11 0 0
BITMAP
8400
4200
6300
3180
3180
18C0
3180
3180
6300
4200
8400
ENDCHAR
STARTCHAR 00BC
ENCODING 188
SWIDTH 765 0
DWIDTH 17 0
BBX 14 15 2 0
BITMAP
4010
C020
4040
4040
4080
4100
4100
E208
0418
0428
0848
1088
10FC
2008
4008
ENDCHAR
STARTCHAR 00BD
ENCODING 189
SWIDTH 765 0
DWIDTH 17 0
BBX 15 15 2 0
BITMAP
4010
C020
4040
4040
4080
4100
4100
E23C
0446
0802
0804
1008
2010
2020
407E
ENDCHAR
STARTCHAR 00BE
ENCODING 190
SWIDTH 765 0
DWIDTH 17 0
BBX 16 15 0 0
BITMAP
7004
8808
1010
3810
0820
0840
0840
F082
0106
010A
0212
0422
043F
0802
1002
ENDCHAR
STARTCHAR 00BF
ENCODING 191
SWIDTH 450 0
DWIDTH 10 0
BBX 8 15 1 -5
BITMAP
18
18
00
08
08
10
10
20
60
C0
C3
C3
C1
62
3C
ENDCHAR
STARTCHAR 00C0
ENCODING 192
SWIDTH 720 0
DWIDTH 16 0
BBX 15 20 1 0
BITMAP
0600
0200
0100
0100
0000
0100
0300
0380
0580
0580
05C0
08C0
08C0
1060
1FE0
1060
2030
2030
6038
F07E
ENDCHAR
STARTCHAR 00C1
ENCODING 193
SWIDTH 720 0
DWIDTH 16 0
BBX 15 20 1 0
BITMAP
00C0
0080
0100
0100
0000
0100
0300
0380
0580
0580
05C0
08C0
08C0
1060
1FE0
1060
2030
2030
6038
F07E
ENDCHAR
STARTCHAR 00C2
ENCODING 194
SWIDTH 720 0
DWIDTH 16 0
BBX 15 20 1 0
BITMAP
0300
0780
0480
0840
0000
0100
0300
0380
0580
0580
05C0
08C0
08C0
1060
1FE0
1060
2030
2030
6038
F07E
ENDCHAR
STARTCHAR 00C3
ENCODING 195
SWIDTH 720 0
DWIDTH 16 0
BBX 15 19 1 0
BITMAP
0620
0920
08C0
0000
0100
0300
0380
0580
0580
05C0
08C0
08C0
1060
1FE0
1060
2030
2030
6038
F07E
ENDCHAR
STARTCHAR 00C4
ENCODING 196
SWIDTH 720 0
DWIDTH 16 0
BBX 15 18 1 0
BITMAP
06C0
06C0
0000
0100
0300
0380
0580
0580
05C0
08C0
08C0
1060
1FE0
1060
2030
2030
6038
F07E
ENDCHAR
STARTCHAR 00C5
ENCODING 197
SWIDTH 720 0
DWIDTH 16 0
BBX 15 18 1 0
BITMAP
0180
0240
0240
0180
0300
0380
0580
0580
05C0
08C0
08C0
1060
1FE0
1060
2030
2030
6038
F07E
ENDCHAR
STARTCHAR 00C6
ENCODING 198
SWIDTH 900 0
DWIDTH 20 0
BBX 20 15 -1 0
BITMAP
01FFE0
00F060
00B020
00B000
013000
023080
023080
043F80
043080
0FF080
083000
103010
103030
203060
F8FFE0
ENDCHAR
STARTCHAR 00C7
ENCODING 199
SWIDTH 675 0
DWIDTH 15 0
BBX 13 19 1 -4
BITMAP
07C8
1878
3018
6018
4008
C000
C000
C000
C000
C000
C000
6008
3010
1860
0FC0
0100
0300
0180
0700
ENDCHAR
STARTCHAR 00C8
ENCODING 200
SWIDTH 585 0
DWIDTH 13 0
BBX 13 20 0 0
BITMAP
0C00
0400
0200
0200
0000
FFF0
3030
3010
3000
3000
3040
3040
3FC0
3040
3040
3000
3008
3010
3030
FFF0
ENDCHAR
STARTCHAR 00C9
ENCODING 201
SWIDTH 585 0
DWIDTH 13 0
BBX 13 20 0 0
BITMAP
0180
0100
0200
0200
0000
FFF0
3030
3010
3000
3000
3040
3040
3FC0
3040
3040
3000
3008
3010
3030
FFF0
ENDCHAR
STARTCHAR 00CA
ENCODING 202
SWIDTH 585 0
DWIDTH 13 0
BBX 13 20 0 0
BITMAP
0600
0B00
0900
1080
0000
FFF0
3030
3010
3000
3000
3040
3040
3FC0
3040
3040
3000
3008
3010
3030
FFF0
ENDCHAR
STARTCHAR 00CB
ENCODING 203
SWIDTH 585 0
DWIDTH 13 0
BBX 13 18 0 0
BITMAP
0D80
0D80
0000
FFF0
3030
3010
3000
3000
3040
3040
3FC0
3040
3040
3000
3008
3010
3030
FFF0
ENDCHAR
STARTCHAR 00CC
ENCODING 204
SWIDTH 270 0
DWIDTH 6 0
BBX 6 20 0 0
BITMAP
60
20
10
10
00
FC
30
30
30
30
30
30
30
30
30
30
30
30
30
FC
ENDCHAR
STARTCHAR 00CD
ENCODING 205
SWIDTH 270 0
DWIDTH 6 0
BBX 6 20 0 0
BITMAP
18
10
20
20
00
FC
30
30
30
30
30
30
30
30
30
30
30
30
30
FC
ENDCHAR
STARTCHAR 00CE
ENCODING 206
SWIDTH 270 0
DWIDTH 6 0
BBX 6 20 0 0
BITMAP
30
58
48
84
00
FC
30
30
30
30
30
30
30
30
30
30
30
30
30
FC
ENDCHAR
STARTCHAR 00CF
ENCODING 207
SWIDTH 270 0
DWIDTH 6 0
BBX 6 18 0 0
BITMAP
6C
6C
00
FC
30
30
30
30
30
30
30
30
30
30
30
30
30
FC
ENDCHAR
STARTCHAR 00D0
ENCODING 208
SWIDTH 720 0
DWIDTH 16 0
BBX 14 15 1 0
BITMAP
FFC0
3070
3030
3018
301C
300C
300C
FF0C
300C
300C
3018
3018
3030
3060
FFC0
ENDCHAR
STARTCHAR 00D1
ENCODING 209
SWIDTH 720 0
DWIDTH 16 0
BBX 16 19 0 0
BITMAP
0310
0490
0460
0000
F01F
3804
1C04
1C04
1604
1304
1184
11C4
10E4
1064
1034
101C
101C
100C
7C04
ENDCHAR
STARTCHAR 00D2
ENCODING 210
SWIDTH 720 0
DWIDTH 16 0
BBX 14 20 1 0
BITMAP
0600
0200
0100
0100
0000
0FC0
1860
2010
6018
4008
C00C
C00C
C00C
C00C
C00C
4008
6018
3010
1860
0FC0
ENDCHAR
STARTCHAR 00D3
ENCODING 211
SWIDTH 720 0
DWIDTH 16 0
BBX 14 20 1 0
BITMAP
0180
0100
0200
0200
0000
0FC0
1860
2010
6018
4008
C00C
C00C
C00C
C00C
C00C
4008
6018
3010
1860
0FC0
ENDCHAR
STARTCHAR 00D4
ENCODING 212
SWIDTH 720 0
DWIDTH 16 0
BBX 14 20 1 0
BITMAP
0300
0580
0480
0840
0000
0FC0
1860
2010
6018
4008
C00C
C00C
C00C
C00C
C00C
4008
6018
3010
1860
0FC0
ENDCHAR
STARTCHAR 00D5
ENCODING 213
SWIDTH 720 0
DWIDTH 16 0
BBX 14 19 1 0
BITMAP
0620
0920
08C0
0000
0FC0
1860
2010
6018
4008
C00C
C00C
C00C
C00C
C00C
4008
6018
3010
1860
0FC0
ENDCHAR
STARTCHAR 00D6
ENCODING 214
SWIDTH 720 0
DWIDTH 16 0
BBX 14 18 1 0
BITMAP
06C0
06C0
0000
0FC0
1860
2010
6018
4008
C00C
C00C
C00C
C00C
C00C
4008
6018
3010
1860
0FC0
ENDCHAR
STARTCHAR 00D7
ENCODING 215
SWIDTH 540 0
DWIDTH 12 0
BBX 9 9 2 3
BITMAP
8080
4100
2200
1400
0800
1400
2200
4100
8080
ENDCHAR
STARTCHAR 00D8
ENCODING 216
SWIDTH 720 0
DWIDTH 16 0
BBX 14 15 1 0
BITMAP
0FC8
1868
2030
6038
404C
C08C
C10C
C20C
C20C
C40C
4808
7018
3010
5860
4F80
ENDCHAR
STARTCHAR 00D9
ENCODING 217
SWIDTH 675 0
DWIDTH 15 0
BBX 15 20 0 0
BITMAP
0300
0100
0080
0080
0000
FC3E
3008
3008
3008
3008
3008
3008
3008
3008
3008
3008
3008
1810
1C30
07C0
ENDCHAR
STARTCHAR 00DA
ENCODING 218
SWIDTH 675 0
DWIDTH 15 0
BBX 15 20 0 0
BITMAP
00C0
0080
0100
0100
0000
FC3E
3008
3008
3008
3008
3008
3008
3008
3008
3008
3008
3008
1810
1C30
07C0
ENDCHAR
STARTCHAR 00DB
ENCODING 219
SWIDTH 675 0
DWIDTH 15 0
BBX 15 20 0 0
BITMAP
0180
02C0
0240
0420
0000
FC3E
3008
3008
3008
3008
3008
3008
3008
3008
3008
3008
3008
1810
1C30
07C0
ENDCHAR
STARTCHAR 00DC
ENCODING 220
SWIDTH 675 0
DWIDTH 15 0
BBX 15 18 0 0
BITMAP
0360
0360
0000
FC3E
3008
3008
3008
3008
3008
3008
3008
3008
3008
3008
3008
1810
1C30
07C0
ENDCHAR
STARTCHAR 00DD
ENCODING 221
SWIDTH 720 0
DWIDTH 16 0
BBX 16 20 0 0
BITMAP
0060
0040
0080
0080
0000
FE1F
380C
1808
0C10
0620
0620
0340
0340
0180
0180
0180
0180
0180
0180
07E0
ENDCHAR
STARTCHAR 00DE
ENCODING 222
SWIDTH 585 0
DWIDTH 13 0
BBX 11 15 1 0
BITMAP
FC00
3000
3000
3F00
31C0
30E0
3060
3060
3060
30E0
31C0
3F80
3000
3000
FC00
ENDCHAR
STARTCHAR 00DF
ENCODING 223
SWIDTH 540 0
DWIDTH 12 0
BBX 10 16 1 0
BITMAP
1E00
3300
6180
6180
6180
6300
6700
6380
61C0
60C0
60C0
60C0
60C0
6080
6D80
EF00
ENDCHAR
STARTCHAR 00E0
ENCODING 224
SWIDTH 450 0
DWIDTH 10 0
BBX 9 16 1 0
BITMAP
3000
1000
0800
0800
0000
7C00
C600
C600
C600
0E00
3600
6600
C600
C600
CE80
7700
ENDCHAR
STARTCHAR 00E1
ENCODING 225
SWIDTH 450 0
DWIDTH 10 0
BBX 9 16 1 0
BITMAP
0C00
0800
1000
1000
0000
7C00
C600
C600
C600
0E00
3600
6600
C600
C600
CE80
7700
ENDCHAR
STARTCHAR 00E2
ENCODING 226
SWIDTH 450 0
DWIDTH 10 0
BBX 9 16 1 0
BITMAP
3000
5800
4800
8400
0000
7C00
C600
C600
C600
0E00
3600
6600
C600
C600
CE80
7700
ENDCHAR
STARTCHAR 00E3
ENCODING 227
SWIDTH 450 0
DWIDTH 10 0
BBX 9 15 1 0
BITMAP
6200
9200
8C00
0000
7C00
C600
C600
C600
0E00
3600
6600
C600
C600
CE80
7700
ENDCHAR
STARTCHAR 00E4
ENCODING 228
SWIDTH 450 0
DWIDTH 10 0
BBX 9 14 1 0
BITMAP
6C00
6C00
0000
7C00
C600
C600
C600
0E00
3600
6600
C600
C600
CE80
7700
ENDCHAR
STARTCHAR 00E5
ENCODING 229
SWIDTH 450 0
DWIDTH 10 0
BBX 9 16 1 0
BITMAP
1800
2400
2400
1800
0000
7C00
C600
C600
C600
0E00
3600
6600
C600
C600
CE80
7700
ENDCHAR
STARTCHAR 00E6
ENCODING 230
SWIDTH 675 0
DWIDTH 15 0
BBX 13 11 1 0
BITMAP
3CE0
C730
C618
C618
0FF8
3600
6600
C608
C718
C7F0
79E0
ENDCHAR
STARTCHAR 00E7
ENCODING 231
SWIDTH 450 0
DWIDTH 10 0
BBX 8 15 1 -4
BITMAP
1E
63
43
C0
C0
C0
C0
E0
61
7E
3C
08
18
0C
38
ENDCHAR
STARTCHAR 00E8
ENCODING 232
SWIDTH 450 0
DWIDTH 10 0
BBX 8 16 1 0
BITMAP
30
10
08
08
00
3C
66
43
FF
C0
C0
C0
E1
73
7E
3C
ENDCHAR
STARTCHAR 00E9
ENCODING 233
SWIDTH 450 0
DWIDTH 10 0
BBX 8 16 1 0
BITMAP
06
04
08
08
00
3C
66
43
FF
C0
C0
C0
E1
73
7E
3C
ENDCHAR
STARTCHAR 00EA
ENCODING 234
SWIDTH 450 0
DWIDTH 10 0
BBX 8 16 1 0
BITMAP
18
2C
24
42
00
3C
66
43
FF
C0
C0
C0
E1
73
7E
3C
ENDCHAR
STARTCHAR 00EB
ENCODING 235
SWIDTH 450 0
DWIDTH 10 0
BBX 8 14 1 0
BITMAP
36
36
00
3C
66
43
FF
C0
C0
C0
E1
73
7E
3C
ENDCHAR
STARTCHAR 00EC
ENCODING 236
SWIDTH 270 0
DWIDTH 6 0
BBX 4 16 1 0
BITMAP
C0
40
20
20
00
60
E0
60
60
60
60
60
60
60
60
F0
ENDCHAR
STARTCHAR 00ED
ENCODING 237
SWIDTH 270 0
DWIDTH 6 0
BBX 4 16 1 0
BITMAP
30
20
40
40
00
60
E0
60
60
60
60
60
60
60
60
F0
ENDCHAR
STARTCHAR 00EE
ENCODING 238
SWIDTH 270 0
DWIDTH 6 0
BBX 6 16 0 0
BITMAP
30
58
48
84
00
30
70
30
30
30
30
30
30
30
30
78
ENDCHAR
STARTCHAR 00EF
ENCODING 239
SWIDTH 270 0
DWIDTH 6 0
BBX 5 14 1 0
BITMAP
D8
D8
00
60
E0
60
60
60
60
60
60
60
60
F0
ENDCHAR
STARTCHAR 00F0
ENCODING 240
SWIDTH 495 0
DWIDTH 11 0
BBX 9 16 1 0
BITMAP
2200
1C00
1C00
6400
0600
3F00
6300
4380
C180
C180
C180
C180
C180
6100
7300
3C00
ENDCHAR
STARTCHAR 00F1
ENCODING 241
SWIDTH 450 0
DWIDTH 10 0
BBX 10 15 0 0
BITMAP
1880
2480
2300
0000
6700
F980
6180
6180
6180
6180
6180
6180
6180
6180
F3C0
ENDCHAR
STARTCHAR 00F2
ENCODING 242
SWIDTH 495 0
DWIDTH 11 0
BBX 9 16 1 0
BITMAP
3000
1000
0800
0800
0000
1E00
6300
4300
C180
C180
C180
C180
C180
6100
7300
1C00
ENDCHAR
STARTCHAR 00F3
ENCODING 243
SWIDTH 495 0
DWIDTH 11 0
BBX 9 16 1 0
BITMAP
0600
0400
0800
0800
0000
1E00
6300
4300
C180
C180
C180
C180
C180
6100
7300
1C00
ENDCHAR
STARTCHAR 00F4
ENCODING 244
SWIDTH 495 0
DWIDTH 11 0
BBX 9 16 1 0
BITMAP
0C00
1600
1200
2100
0000
1E00
6300
4300
C180
C180
C180
C180
C180
6100
7300
1C00
ENDCHAR
STARTCHAR 00F5
ENCODING 245
SWIDTH 495 0
DWIDTH 11 0
BBX 9 15 1 0
BITMAP
3100
4900
4600
0000
1E00
6300
4300
C180
C180
C180
C180
C180
6100
7300
1C00
ENDCHAR
STARTCHAR 00F6
ENCODING 246
SWIDTH 495 0
DWIDTH 11 0
BBX 9 14 1 0
BITMAP
1B00
1B00
0000
1E00
6300
4300
C180
C180
C180
C180
C180
6100
7300
1C00
ENDCHAR
STARTCHAR 00F7
ENCODING 247
SWIDTH 540 0
DWIDTH 12 0
BBX 12 9 0 3
BITMAP
0600
0600
0000
0000
FFF0
0000
0000
0600
0600
ENDCHAR
STARTCHAR 00F8
ENCODING 248
SWIDTH 495 0
DWIDTH 11 0
BBX 10 11 1 0
BITMAP
1C40
6680
4300
C380
C580
C980
D180
D180
6100
7300
9E00
ENDCHAR
STARTCHAR 00F9
ENCODING 249
SWIDTH 495 0
DWIDTH 11 0
BBX 10 16 0 0
BITMAP
1800
0800
0400
0400
0000
E380
6180
6180
6180
6180
6180
6180
6180
6180
63C0
3D80
ENDCHAR
STARTCHAR 00FA
ENCODING 250
SWIDTH 495 0
DWIDTH 11 0
BBX 10 16 0 0
BITMAP
0600
0400
0800
0800
0000
E380
6180
6180
6180
6180
6180
6180
6180
6180
63C0
3D80
ENDCHAR
STARTCHAR 00FB
ENCODING 251
SWIDTH 495 0
DWIDTH 11 0
BBX 10 16 0 0
BITMAP
0C00
1600
1200
2100
0000
E380
6180
6180
6180
6180
6180
6180
6180
6180
63C0
3D80
ENDCHAR
STARTCHAR 00FC
ENCODING 252
SWIDTH 495 0
DWIDTH 11 0
BBX 10 14 0 0
BITMAP
1B00
1B00
0000
E380
6180
6180
6180
6180
6180
6180
6180
6180
63C0
3D80
ENDCHAR
STARTCHAR 00FD
ENCODING 253
SWIDTH 495 0
DWIDTH 11 0
BBX 11 21 0 -5
BITMAP
0180
0100
0200
0200
0000
F8E0
7040
3040
3080
1880
1880
0D00
0D00
0700
0600
0200
0400
0400
0C00
7800
7000
ENDCHAR
STARTCHAR 00FE
ENCODING 254
SWIDTH 540 0
DWIDTH 12 0
BBX 10 21 1 -5
BITMAP
6000
E000
6000
6000
6000
6F00
7180
61C0
60C0
60C0
60C0
60C0
60C0
6180
7180
6E00
6000
6000
6000
6000
F000
ENDCHAR
STARTCHAR 00FF
ENCODING 255
SWIDTH 495 0
DWIDTH 11 0
BBX 11 19 0 -5
BITMAP
0D80
0D80
0000
F8E0
7040
3040
3080
1880
1880
0D00
0D00
0700
0600
0200
0400
0400
0C00
7800
7000
ENDCHAR
STARTCHAR 0100
ENCODING 256
SWIDTH 720 0
DWIDTH 16 0
BBX 15 17 1 0
BITMAP
0FE0
0000
0100
0300
0380
0580
0580
05C0
08C0
08C0
1060
1FE0
1060
2030
2030
6038
F07E
ENDCHAR
STARTCHAR 0101
ENCODING 257
SWIDTH 450 0
DWIDTH 10 0
BBX 9 14 1 0
BITMAP
FE00
0000
0000
7C00
C600
C600
C600
0E00
3600
6600
C600
C600
CE80
7700
ENDCHAR
STARTCHAR 0102
ENCODING 258
SWIDTH 720 0
DWIDTH 16 0
BBX 15 19 1 0
BITMAP
0840
0FC0
0780
0000
0100
0300
0380
0580
0580
05C0
08C0
08C0
1060
1FE0
1060
2030
2030
6038
F07E
ENDCHAR
STARTCHAR 0103
ENCODING 259
SWIDTH 450 0
DWIDTH 10 0
BBX 9 15 1 0
BITMAP
4200
7E00
3C00
0000
7C00
C600
C600
C600
0E00
3600
6600
C600
C600
CE80
7700
ENDCHAR
STARTCHAR 0104
ENCODING 260
SWIDTH 720 0
DWIDTH 16 0
BBX 15 19 1 -4
BITMAP
0100
0300
0380
0580
0580
05C0
08C0
08C0
1060
1FE0
1060
2030
2030
6038
F07E
0010
0010
0018
000C
ENDCHAR
STARTCHAR 0105
ENCODING 261
SWIDTH 450 0
DWIDTH 10 0
BBX 9 15 1 -4
BITMAP
7C00
C600
C600
C600
0E00
3600
6600
C600
C600
CE80
7700
0400
0400
0600
0300
ENDCHAR
STARTCHAR 0106
ENCODING 262
SWIDTH 675 0
DWIDTH 15 0
BBX 13 20 1 0
BITMAP
0180
0100
0200
0200
0000
07C8
1878
3018
6018
4008
C000
C000
C000
C000
C000
C000
6008
3010
1860
0FC0
ENDCHAR
STARTCHAR 0107
ENCODING 263
SWIDTH 450 0
DWIDTH 10 0
BBX 8 16 1 0
BITMAP
06
04
08
08
00
1E
63
43
C0
C0
C0
C0
E0
61
7E
3C
ENDCHAR
STARTCHAR 0108
ENCODING 264
SWIDTH 675 0
DWIDTH 15 0
BBX 13 20 1 0
BITMAP
0300
0580
0480
0840
0000
07C8
1878
3018
6018
4008
C000
C000
C000
C000
C000
C000
6008
3010
1860
0FC0
ENDCHAR
STARTCHAR 0109
ENCODING 265
SWIDTH 450 0
DWIDTH 10 0
BBX 8 16 1 0
BITMAP
0C
16
12
21
00
1E
63
43
C0
C0
C0
C0
E0
61
7E
3C
ENDCHAR
STARTCHAR 010A
ENCODING 266
SWIDTH 675 0
DWIDTH 15 0
BBX 13 18 1 0
BITMAP
0300
0300
0000
07C8
1878
3018
6018
4008
C000
C000
C000
C000
C000
C000
6008
3010
1860
0FC0
ENDCHAR
STARTCHAR 010B
ENCODING 267
SWIDTH 450 0
DWIDTH 10 0
BBX 8 15 1 0
BITMAP
18
18
00
00
1E
63
43
C0
C0
C0
C0
E0
61
7E
3C
ENDCHAR
STARTCHAR 010C
ENCODING 268
SWIDTH 675 0
DWIDTH 15 0
BBX 13 20 1 0
BITMAP
0840
0480
0680
0300
0000
07C8
1878
3018
6018
4008
C000
C000
C000
C000
C000
C000
6008
3010
1860
0FC0
ENDCHAR
STARTCHAR 010D
ENCODING 269
SWIDTH 450 0
DWIDTH 10 0
BBX 8 16 1 0
BITMAP
21
12
1A
0C
00
1E
63
43
C0
C0
C0
C0
E0
61
7E
3C
ENDCHAR
STARTCHAR 010E
ENCODING 270
SWIDTH 720 0
DWIDTH 16 0
BBX 15 20 0 0
BITMAP
0840
0480
0680
0300
0000
FFC0
3070
3018
300C
300C
3006
3006
3006
3006
3006
300C
300C
3018
3070
FFC0
ENDCHAR
STARTCHAR 010F
ENCODING 271
SWIDTH 630 0
DWIDTH 14 0
BBX 13 16 1 0
BITMAP
01B0
03B8
0188
0190
01A0
1D80
2380
6180
C180
C180
C180
C180
C180
6180
73C0
3D80
ENDCHAR
STARTCHAR 0110
ENCODING 272
SWIDTH 720 0
DWIDTH 16 0
BBX 14 15 1 0
BITMAP
FFC0
3070
3030
3018
301C
300C
FF0C
300C
300C
300C
3018
3018
3030
3060
FFC0
ENDCHAR
STARTCHAR 0111
ENCODING 273
SWIDTH 495 0
DWIDTH 11 0
BBX 11 16 0 0
BITMAP
0180
0380
0180
0FE0
0180
1D80
2380
6180
C180
C180
C180
C180
C180
6180
73C0
3D80
ENDCHAR
STARTCHAR 0112
ENCODING 274
SWIDTH 585 0
DWIDTH 13 0
BBX 13 17 0 0
BITMAP
0FE0
0000
FFF0
3030
3010
3000
3000
3040
3040
3FC0
3040
3040
3000
3008
3010
3030
FFF0
ENDCHAR
STARTCHAR 0113
ENCODING 275
SWIDTH 450 0
DWIDTH 10 0
BBX 8 14 1 0
BITMAP
7F
00
00
3C
66
43
FF
C0
C0
C0
E1
73
7E
3C
ENDCHAR
STARTCHAR 0114
ENCODING 276
SWIDTH 585 0
DWIDTH 13 0
BBX 13 19 0 0
BITMAP
0840
0FC0
0780
0000
FFF0
3030
3010
3000
3000
3040
3040
3FC0
3040
3040
3000
3008
3010
3030
FFF0
ENDCHAR
STARTCHAR 0115
ENCODING 277
SWIDTH 450 0
DWIDTH 10 0
BBX 8 15 1 0
BITMAP
42
7E
3C
00
3C
66
43
FF
C0
C0
C0
E1
73
7E
3C
ENDCHAR
STARTCHAR 0116
ENCODING 278
SWIDTH 585 0
DWIDTH 13 0
BBX 13 18 0 0
BITMAP
0300
0300
0000
FFF0
3030
3010
3000
3000
3040
3040
3FC0
3040
3040
3000
3008
3010
3030
FFF0
ENDCHAR
STARTCHAR 0117
ENCODING 279
SWIDTH 450 0
DWIDTH 10 0
BBX 8 15 1 0
BITMAP
18
18
00
00
3C
66
43
FF
C0
C0
C0
E1
73
7E
3C
ENDCHAR
STARTCHAR 0118
ENCODING 280
SWIDTH 585 0
DWIDTH 13 0
BBX 13 19 0 -4
BITMAP
FFF0
3030
3010
3000
3000
3040
3040
3FC0
3040
3040
3000
3008
3010
3030
FFF0
0040
0040
0060
0030
ENDCHAR
STARTCHAR 0119
ENCODING 281
SWIDTH 450 0
DWIDTH 10 0
BBX 8 15 1 -4
BITMAP
3C
66
43
FF
C0
C0
C0
E1
73
7E
3C
10
10
18
0C
ENDCHAR
STARTCHAR 011A
ENCODING 282
SWIDTH 585 0
DWIDTH 13 0
BBX 13 20 0 0
BITMAP
1080
0900
0D00
0600
0000
FFF0
3030
3010
3000
3000
3040
3040
3FC0
3040
3040
3000
3008
3010
3030
FFF0
ENDCHAR
STARTCHAR 011B
ENCODING 283
SWIDTH 450 0
DWIDTH 10 0
BBX 8 16 1 0
BITMAP
42
24
34
18
00
3C
66
43
FF
C0
C0
C0
E1
73
7E
3C
ENDCHAR
STARTCHAR 011C
ENCODING 284
SWIDTH 720 0
DWIDTH 16 0
BBX 15 20 1 0
BITMAP
0300
0580
0480
0840
0000
07C8
1878
3018
6018
4008
C000
C000
C07E
C018
C018
6018
6018
3018
1C18
07E0
ENDCHAR
STARTCHAR 011D
ENCODING 285
SWIDTH 450 0
DWIDTH 10 0
BBX 10 21 0 -5
BITMAP
0C00
1600
1200
2100
0000
1E00
33C0
6180
6180
6180
3300
1E00
6000
4000
7F80
3FC0
4040
8040
8080
C080
3F00
ENDCHAR
STARTCHAR 011E
ENCODING 286
SWIDTH 720 0
DWIDTH 16 0
BBX 15 19 1 0
BITMAP
0420
07E0
03C0
0000
07C8
1878
3018
6018
4008
C000
C000
C07E
C018
C018
6018
6018
3018
1C18
07E0
ENDCHAR
STARTCHAR 011F
ENCODING 287
SWIDTH 450 0
DWIDTH 10 0
BBX 10 20 0 -5
BITMAP
2100
3F00
1E00
0000
1E00
33C0
6180
6180
6180
3300
1E00
6000
4000
7F80
3FC0
4040
8040
8080
C080
3F00
ENDCHAR
STARTCHAR 0120
ENCODING 288
SWIDTH 720 0
DWIDTH 16 0
BBX 15 18 1 0
BITMAP
0300
0300
0000
07C8
1878
3018
6018
4008
C000
C000
C07E
C018
C018
6018
6018
3018
1C18
07E0
ENDCHAR
STARTCHAR 0121
ENCODING 289
SWIDTH 450 0
DWIDTH 10 0
BBX 10 20 0 -5
BITMAP
0C00
0C00
0000
0000
1E00
33C0
6180
6180
6180
3300
1E00
6000
4000
7F80
3FC0
4040
8040
8080
C080
3F00
ENDCHAR
STARTCHAR 0122
ENCODING 290
SWIDTH 720 0
DWIDTH 16 0
BBX 15 19 1 -4
BITMAP
07C8
1878
3018
6018
4008
C000
C000
C07E
C018
C018
6018
6018
3018
1C18
07E0
0100
0300
0180
0700
ENDCHAR
STARTCHAR 0123
ENCODING 291
SWIDTH 450 0
DWIDTH 10 0
BBX 10 23 0 -5
BITMAP
0C00
1000
1000
1C00
0C00
0000
0000
1E00
33C0
6180
6180
6180
3300
1E00
6000
4000
7F80
3FC0
4040
8040
8080
C080
3F00
ENDCHAR
STARTCHAR 0124
ENCODING 292
SWIDTH 675 0
DWIDTH 15 0
BBX 15 20 0 0
BITMAP
0180
02C0
0240
0420
0000
FC7E
3018
3018
3018
3018
3018
3018
3FF8
3018
3018
3018
3018
3018
3018
FC7E
ENDCHAR
STARTCHAR 0125
ENCODING 293
SWIDTH 450 0
DWIDTH 10 0
BBX 10 20 0 0
BITMAP
0600
0B00
0900
1080
6000
E000
6000
6000
6000
6700
7980
6180
6180
6180
6180
6180
6180
6180
6180
F3C0
ENDCHAR
STARTCHAR 0126
ENCODING 294
SWIDTH 675 0
DWIDTH 15 0
BBX 15 15 0 0
BITMAP
FC7E
3018
FFFE
3018
3018
3018
3018
3FF8
3018
3018
3018
3018
3018
3018
FC7E
ENDCHAR
STARTCHAR 0127
ENCODING 295
SWIDTH 450 0
DWIDTH 10 0
BBX 11 16 -1 0
BITMAP
3000
7000
3000
FE00
3000
3380
3CC0
30C0
30C0
30C0
30C0
30C0
30C0
30C0
30C0
79E0
ENDCHAR
STARTCHAR 0128
ENCODING 296
SWIDTH 270 0
DWIDTH 6 0
BBX 7 19 0 0
BITMAP
62
92
8C
00
FC
30
30
30
30
30
30
30
30
30
30
30
30
30
FC
ENDCHAR
STARTCHAR 0129
ENCODING 297
SWIDTH 270 0
DWIDTH 6 0
BBX 7 15 -1 0
BITMAP
62
92
8C
00
18
38
18
18
18
18
18
18
18
18
3C
ENDCHAR
STARTCHAR 012A
ENCODING 298
SWIDTH 270 0
DWIDTH 6 0
BBX 7 17 0 0
BITMAP
FE
00
FC
30
30
30
30
30
30
30
30
30
30
30
30
30
FC
ENDCHAR
STARTCHAR 012B
ENCODING 299
SWIDTH 270 0
DWIDTH 6 0
BBX 7 14 0 0
BITMAP
FE
00
00
30
70
30
30
30
30
30
30
30
30
78
ENDCHAR
STARTCHAR 012C
ENCODING 300
SWIDTH 270 0
DWIDTH 6 0
BBX 6 19 0 0
BITMAP
84
FC
78
00
FC
30
30
30
30
30
30
30
30
30
30
30
30
30
FC
ENDCHAR
STARTCHAR 012D
ENCODING 301
SWIDTH 270 0
DWIDTH 6 0
BBX 6 15 0 0
BITMAP
84
FC
78
00
30
70
30
30
30
30
30
30
30
30
78
ENDCHAR
STARTCHAR 012E
ENCODING 302
SWIDTH 270 0
DWIDTH 6 0
BBX 6 19 0 -4
BITMAP
FC
30
30
30
30
30
30
30
30
30
30
30
30
30
FC
20
20
30
18
ENDCHAR
STARTCHAR 012F
ENCODING 303
SWIDTH 270 0
DWIDTH 6 0
BBX 4 20 1 -4
BITMAP
60
60
00
00
00
60
E0
60
60
60
60
60
60
60
60
F0
40
40
60
30
ENDCHAR
STARTCHAR 0130
ENCODING 304
SWIDTH 270 0
DWIDTH 6 0
BBX 6 18 0 0
BITMAP
30
30
00
FC
30
30
30
30
30
30
30
30
30
30
30
30
30
FC
ENDCHAR
STARTCHAR 0131
ENCODING 305
SWIDTH 270 0
DWIDTH 6 0
BBX 4 11 1 0
BITMAP
60
E0
60
60
60
60
60
60
60
60
F0
ENDCHAR
STARTCHAR 0132
ENCODING 306
SWIDTH 720 0
DWIDTH 16 0
BBX 15 15 1 0
BITMAP
FC7E
3018
3018
3018
3018
3018
3018
3018
3018
3018
3018
3018
3198
31D0
FCE0
ENDCHAR
STARTCHAR 0133
ENCODING 307
SWIDTH 540 0
DWIDTH 12 0
BBX 9 21 1 -5
BITMAP
6180
6180
0000
0000
0000
6180
E380
6180
6180
6180
6180
6180
6180
6180
6180
F180
0180
0180
0180
1900
1E00
ENDCHAR
STARTCHAR 0134
ENCODING 308
SWIDTH 405 0
DWIDTH 9 0
BBX 8 20 1 0
BITMAP
0C
16
12
21
00
3F
0C
0C
0C
0C
0C
0C
0C
0C
0C
0C
0C
CC
E8
70
ENDCHAR
STARTCHAR 0135
ENCODING 309
SWIDTH 270 0
DWIDTH 6 0
BBX 8 21 -2 -5
BITMAP
0C
16
12
21
00
0C
1C
0C
0C
0C
0C
0C
0C
0C
0C
0C
0C
0C
0C
C8
F0
ENDCHAR
STARTCHAR 0136
ENCODING 310
SWIDTH 675 0
DWIDTH 15 0
BBX 15 20 0 -5
BITMAP
FC7C
3038
3020
3040
3080
3100
3200
3E00
3700
3380
31C0
30E0
3070
3038
FC7E
0000
0300
0180
0180
0700
ENDCHAR
STARTCHAR 0137
ENCODING 311
SWIDTH 495 0
DWIDTH 11 0
BBX 11 21 0 -5
BITMAP
6000
E000
6000
6000
6000
63C0
6100
6200
6400
6800
7800
6C00
6600
6300
6180
F3E0
0000
0C00
0600
0600
1C00
ENDCHAR
STARTCHAR 0138
ENCODING 312
SWIDTH 495 0
DWIDTH 11 0
BBX 10 11 1 0
BITMAP
F3C0
6100
6200
6400
6800
7800
6C00
6600
6300
6180
F3C0
ENDCHAR
STARTCHAR 0139
ENCODING 313
SWIDTH 540 0
DWIDTH 12 0
BBX 12 20 0 0
BITMAP
0C00
0800
1000
1000
0000
FC00
3000
3000
3000
3000
3000
3000
3000
3000
3000
3000
3010
3030
3060
FFE0
ENDCHAR
STARTCHAR 013A
ENCODING 314
SWIDTH 270 0
DWIDTH 6 0
BBX 4 21 1 0
BITMAP
30
20
40
40
00
60
E0
60
60
60
60
60
60
60
60
60
60
60
60
60
F0
ENDCHAR
STARTCHAR 013B
ENCODING 315
SWIDTH 540 0
DWIDTH 12 0
BBX 12 20 0 -5
BITMAP
FC00
3000
3000
3000
3000
3000
3000
3000
3000
3000
3000
3010
3030
3060
FFE0
0000
0600
0300
0300
0E00
ENDCHAR
STARTCHAR 013C
ENCODING 316
SWIDTH 270 0
DWIDTH 6 0
BBX 4 21 1 -5
BITMAP
60
E0
60
60
60
60
60
60
60
60
60
60
60
60
60
F0
00
60
30
30
E0
ENDCHAR
STARTCHAR 013D
ENCODING 317
SWIDTH 585 0
DWIDTH 13 0
BBX 12 15 1 0
BITMAP
FCC0
30E0
3020
3040
3080
3000
3000
3000
3000
3000
3000
3010
3030
3060
FFE0
ENDCHAR
STARTCHAR 013E
ENCODING 318
SWIDTH 405 0
DWIDTH 9 0
BBX 7 16 1 0
BITMAP
6C
EE
62
64
68
60
60
60
60
60
60
60
60
60
60
F0
ENDCHAR
STARTCHAR 013F
ENCODING 319
SWIDTH 540 0
DWIDTH 12 0
BBX 12 15 0 0
BITMAP
FC00
3000
3000
3000
3000
3000
3000
3300
3300
3000
3000
3010
3030
3060
FFE0
ENDCHAR
STARTCHAR 0140
ENCODING 320
SWIDTH 360 0
DWIDTH 8 0
BBX 6 16 1 0
BITMAP
60
E0
60
60
60
60
60
60
6C
6C
60
60
60
60
60
F0
ENDCHAR
STARTCHAR 0141
ENCODING 321
SWIDTH 585 0
DWIDTH 13 0
BBX 12 15 1 0
BITMAP
FC00
3000
3000
3000
3000
3600
3C00
3000
3000
F000
B000
3010
3030
3060
FFE0
ENDCHAR
STARTCHAR 0142
ENCODING 322
SWIDTH 270 0
DWIDTH 6 0
BBX 6 16 0 0
BITMAP
30
70
30
30
30
30
34
38
30
70
B0
30
30
30
30
78
ENDCHAR
STARTCHAR 0143
ENCODING 323
SWIDTH 720 0
DWIDTH 16 0
BBX 16 20 0 0
BITMAP
0060
0040
0080
0080
0000
F01F
3804
1C04
1C04
1604
1304
1184
11C4
10E4
1064
1034
101C
101C
100C
7C04
ENDCHAR
STARTCHAR 0144
ENCODING 324
SWIDTH 450 0
DWIDTH 10 0
BBX 10 16 0 0
BITMAP
0600
0400
0800
0800
0000
6700
F980
6180
6180
6180
6180
6180
6180
6180
6180
F3C0
ENDCHAR
STARTCHAR 0145
ENCODING 325
SWIDTH 720 0
DWIDTH 16 0
BBX 16 20 0 -5
BITMAP
F01F
3804
1C04
1C04
1604
1304
1184
11C4
10E4
1064
1034
101C
101C
100C
7C04
0000
0180
00C0
00C0
0380
ENDCHAR
STARTCHAR 0146
ENCODING 326
SWIDTH 450 0
DWIDTH 10 0
BBX 10 16 0 -5
BITMAP
6700
F980
6180
6180
6180
6180
6180
6180
6180
6180
F3C0
0000
0C00
0600
0600
1C00
ENDCHAR
STARTCHAR 0147
ENCODING 327
SWIDTH 720 0
DWIDTH 16 0
BBX 16 20 0 0
BITMAP
0210
0120
01A0
00C0
0000
F01F
3804
1C04
1C04
1604
1304
1184
11C4
10E4
1064
1034
101C
101C
100C
7C04
ENDCHAR
STARTCHAR 0148
ENCODING 328
SWIDTH 450 0
DWIDTH 10 0
BBX 10 16 0 0
BITMAP
2100
1200
1A00
0C00
0000
6700
F980
6180
6180
6180
6180
6180
6180
6180
6180
F3C0
ENDCHAR
STARTCHAR 0149
ENCODING 329
SWIDTH 585 0
DWIDTH 13 0
BBX 13 15 0 0
BITMAP
C000
E000
2000
2000
CCE0
1F30
0C30
0C30
0C30
0C30
0C30
0C30
0C30
0C30
1E78
ENDCHAR
STARTCHAR 014A
ENCODING 330
SWIDTH 675 0
DWIDTH 15 0
BBX 14 15 0 0
BITMAP
F1E0
3630
3818
3818
300C
300C
300C
300C
300C
300C
300C
3008
3188
3190
FCE0
ENDCHAR
STARTCHAR 014B
ENCODING 331
SWIDTH 450 0
DWIDTH 10 0
BBX 9 16 0 -5
BITMAP
6700
F980
6180
6180
6180
6180
6180
6180
6180
6180
F180
0180
0180
0180
1900
1E00
ENDCHAR
STARTCHAR 014C
ENCODING 332
SWIDTH 720 0
DWIDTH 16 0
BBX 14 17 1 0
BITMAP
0FE0
0000
0FC0
1860
2010
6018
4008
C00C
C00C
C00C
C00C
C00C
4008
6018
3010
1860
0FC0
ENDCHAR
STARTCHAR 014D
ENCODING 333
SWIDTH 495 0
DWIDTH 11 0
BBX 9 14 1 0
BITMAP
7F00
0000
0000
1E00
6300
4300
C180
C180
C180
C180
C180
6100
7300
1C00
ENDCHAR
STARTCHAR 014E
ENCODING 334
SWIDTH 720 0
DWIDTH 16 0
BBX 14 19 1 0
BITMAP
0840
0FC0
0780
0000
0FC0
1860
2010
6018
4008
C00C
C00C
C00C
C00C
C00C
4008
6018
3010
1860
0FC0
ENDCHAR
STARTCHAR 014F
ENCODING 335
SWIDTH 495 0
DWIDTH 11 0
BBX 9 15 1 0
BITMAP
2100
3F00
1E00
0000
1E00
6300
4300
C180
C180
C180
C180
C180
6100
7300
1C00
ENDCHAR
STARTCHAR 0150
ENCODING 336
SWIDTH 720 0
DWIDTH 16 0
BBX 14 20 1 0
BITMAP
0360
0240
0480
0000
0000
0FC0
1860
2010
6018
4008
C00C
C00C
C00C
C00C
C00C
4008
6018
3010
1860
0FC0
ENDCHAR
STARTCHAR 0151
ENCODING 337
SWIDTH 495 0
DWIDTH 11 0
BBX 9 16 1 0
BITMAP
1B00
1200
2400
0000
0000
1E00
6300
4300
C180
C180
C180
C180
C180
6100
7300
1C00
ENDCHAR
STARTCHAR 0152
ENCODING 338
SWIDTH 900 0
DWIDTH 20 0
BBX 19 15 1 0
BITMAP
0FFFC0
18E0C0
206040
606000
406000
C06100
C06100
C07F00
C06100
C06100
406000
606020
206060
18E0C0
0FFFC0
ENDCHAR
STARTCHAR 0153
ENCODING 339
SWIDTH 720 0
DWIDTH 16 0
BBX 14 11 1 0
BITMAP
3C70
6698
470C
C30C
C3FC
C300
C300
C384
6384
67F8
3CF0
ENDCHAR
STARTCHAR 0154
ENCODING 340
SWIDTH 630 0
DWIDTH 14 0
BBX 15 20 0 0
BITMAP
0300
0200
0400
0400
0000
FF80
30C0
3060
3060
3060
3060
31C0
3F00
3300
3180
30C0
30E0
3060
3038
FC3E
ENDCHAR
STARTCHAR 0155
ENCODING 341
SWIDTH 315 0
DWIDTH 7 0
BBX 7 16 0 0
BITMAP
0C
08
10
10
00
6E
F6
60
60
60
60
60
60
60
60
F0
ENDCHAR
STARTCHAR 0156
ENCODING 342
SWIDTH 630 0
DWIDTH 14 0
BBX 15 20 0 -5
BITMAP
FF80
30C0
3060
3060
3060
3060
31C0
3F00
3300
3180
30C0
30E0
3060
3038
FC3E
0000
0300
0180
0180
0700
ENDCHAR
STARTCHAR 0157
ENCODING 343
SWIDTH 315 0
DWIDTH 7 0
BBX 7 16 0 -5
BITMAP
6E
F6
60
60
60
60
60
60
60
60
F0
00
30
18
18
70
ENDCHAR
STARTCHAR 0158
ENCODING 344
SWIDTH 630 0
DWIDTH 14 0
BBX 15 20 0 0
BITMAP
1080
0900
0D00
0600
0000
FF80
30C0
3060
3060
3060
3060
31C0
3F00
3300
3180
30C0
30E0
3060
3038
FC3E
ENDCHAR
STARTCHAR 0159
ENCODING 345
SWIDTH 315 0
DWIDTH 7 0
BBX 7 16 0 0
BITMAP
84
48
68
30
00
6E
F6
60
60
60
60
60
60
60
60
F0
ENDCHAR
STARTCHAR 015A
ENCODING 346
SWIDTH 540 0
DWIDTH 12 0
BBX 10 20 1 0
BITMAP
0300
0200
0400
0400
0000
3C80
6380
C180
C080
E080
7000
3C00
0F00
0380
01C0
80C0
80C0
C0C0
E180
9F00
ENDCHAR
STARTCHAR 015B
ENCODING 347
SWIDTH 405 0
DWIDTH 9 0
BBX 7 16 1 0
BITMAP
0C
08
10
10
00
7A
86
82
C0
F0
7C
1E
06
82
C2
BC
ENDCHAR
STARTCHAR 015C
ENCODING 348
SWIDTH 540 0
DWIDTH 12 0
BBX 10 20 1 0
BITMAP
0C00
1600
1200
2100
0000
3C80
6380
C180
C080
E080
7000
3C00
0F00
0380
01C0
80C0
80C0
C0C0
E180
9F00
ENDCHAR
STARTCHAR 015D
ENCODING 349
SWIDTH 405 0
DWIDTH 9 0
BBX 7 16 1 0
BITMAP
18
2C
24
42
00
7A
86
82
C0
F0
7C
1E
06
82
C2
BC
ENDCHAR
STARTCHAR 015E
ENCODING 350
SWIDTH 540 0
DWIDTH 12 0
BBX 10 19 1 -4
BITMAP
3C80
6380
C180
C080
E080
7000
3C00
0F00
0380
01C0
80C0
80C0
C0C0
E180
9F00
0400
0C00
0600
1C00
ENDCHAR
STARTCHAR 015F
ENCODING 351
SWIDTH 405 0
DWIDTH 9 0
BBX 7 15 1 -4
BITMAP
7A
86
82
C0
F0
7C
1E
06
82
C2
BC
10
30
18
70
ENDCHAR
STARTCHAR 0160
ENCODING 352
SWIDTH 540 0
DWIDTH 12 0
BBX 10 20 1 0
BITMAP
4200
2400
3400
1800
0000
3C80
6380
C180
C080
E080
7000
3C00
0F00
0380
01C0
80C0
80C0
C0C0
E180
9F00
ENDCHAR
STARTCHAR 0161
ENCODING 353
SWIDTH 405 0
DWIDTH 9 0
BBX 7 16 1 0
BITMAP
42
24
34
18
00
7A
86
82
C0
F0
7C
1E
06
82
C2
BC
ENDCHAR
STARTCHAR 0162
ENCODING 354
SWIDTH 585 0
DWIDTH 13 0
BBX 12 20 1 -5
BITMAP
FFF0
8630
8610
0600
0600
0600
0600
0600
0600
0600
0600
0600
0600
0600
1F80
0000
0700
0700
0100
0600
ENDCHAR
STARTCHAR 0163
ENCODING 355
SWIDTH 270 0
DWIDTH 6 0
BBX 6 19 1 -5
BITMAP
20
60
60
F8
60
60
60
60
60
60
60
60
64
38
00
70
70
10
60
ENDCHAR
STARTCHAR 0164
ENCODING 356
SWIDTH 630 0
DWIDTH 14 0
BBX 12 20 1 0
BITMAP
1080
0900
0D00
0600
0000
FFF0
C630
8610
8610
0600
0600
0600
0600
0600
0600
0600
0600
0600
0600
1F80
ENDCHAR
STARTCHAR 0165
ENCODING 357
SWIDTH 405 0
DWIDTH 9 0
BBX 9 16 0 0
BITMAP
0300
0380
1080
3100
3200
FC00
3000
3000
3000
3000
3000
3000
3000
3000
3200
1C00
ENDCHAR
STARTCHAR 0166
ENCODING 358
SWIDTH 630 0
DWIDTH 14 0
BBX 12 15 1 0
BITMAP
FFF0
C630
8610
8610
0600
0600
0600
7FE0
0600
0600
0600
0600
0600
0600
1F80
ENDCHAR
STARTCHAR 0167
ENCODING 359
SWIDTH 270 0
DWIDTH 6 0
BBX 7 14 -1 0
BITMAP
10
10
30
7C
30
30
30
FC
30
30
30
30
32
1C
ENDCHAR
STARTCHAR 0168
ENCODING 360
SWIDTH 675 0
DWIDTH 15 0
BBX 15 19 0 0
BITMAP
0620
0920
08C0
0000
FC3E
3008
3008
3008
3008
3008
3008
3008
3008
3008
3008
3008
1810
1C30
07C0
ENDCHAR
STARTCHAR 0169
ENCODING 361
SWIDTH 495 0
DWIDTH 11 0
BBX 10 15 0 0
BITMAP
1880
2480
2300
0000
E380
6180
6180
6180
6180
6180
6180
6180
6180
63C0
3D80
ENDCHAR
STARTCHAR 016A
ENCODING 362
SWIDTH 675 0
DWIDTH 15 0
BBX 15 17 0 0
BITMAP
0FE0
0000
FC3E
3008
3008
3008
3008
3008
3008
3008
3008
3008
3008
3008
1810
1C30
07C0
ENDCHAR
STARTCHAR 016B
ENCODING 363
SWIDTH 495 0
DWIDTH 11 0
BBX 10 14 0 0
BITMAP
3F80
0000
0000
E380
6180
6180
6180
6180
6180
6180
6180
6180
63C0
3D80
ENDCHAR
STARTCHAR 016C
ENCODING 364
SWIDTH 675 0
DWIDTH 15 0
BBX 15 19 0 0
BITMAP
0420
07E0
03C0
0000
FC3E
3008
3008
3008
3008
3008
3008
3008
3008
3008
3008
3008
1810
1C30
07C0
ENDCHAR
STARTCHAR 016D
ENCODING 365
SWIDTH 495 0
DWIDTH 11 0
BBX 10 15 0 0
BITMAP
2100
3F00
1E00
0000
E380
6180
6180
6180
6180
6180
6180
6180
6180
63C0
3D80
ENDCHAR
STARTCHAR 016E
ENCODING 366
SWIDTH 675 0
DWIDTH 15 0
BBX 15 20 0 0
BITMAP
0180
0240
0240
0180
0000
FC3E
3008
3008
3008
3008
3008
3008
3008
3008
3008
3008
3008
1810
1C30
07C0
ENDCHAR
STARTCHAR 016F
ENCODING 367
SWIDTH 495 0
DWIDTH 11 0
BBX 10 16 0 0
BITMAP
0C00
1200
1200
0C00
0000
E380
6180
6180
6180
6180
6180
6180
6180
6180
63C0
3D80
ENDCHAR
STARTCHAR 0170
ENCODING 368
SWIDTH 675 0
DWIDTH 15 0
BBX 15 20 0 0
BITMAP
01B0
0120
0240
0000
0000
FC3E
3008
3008
3008
3008
3008
3008
3008
3008
3008
3008
3008
1810
1C30
07C0
ENDCHAR
STARTCHAR 0171
ENCODING 369
SWIDTH 495 0
DWIDTH 11 0
BBX 10 16 0 0
BITMAP
1B00
1200
2400
0000
0000
E380
6180
6180
6180
6180
6180
6180
6180
6180
63C0
3D80
ENDCHAR
STARTCHAR 0172
ENCODING 370
SWIDTH 675 0
DWIDTH 15 0
BBX 15 19 0 -4
BITMAP
FC3E
3008
3008
3008
3008
3008
3008
3008
3008
3008
3008
3008
1810
1C30
07C0
0100
0100
0180
00C0
ENDCHAR
STARTCHAR 0173
ENCODING 371
SWIDTH 495 0
DWIDTH 11 0
BBX 10 15 0 -4
BITMAP
E380
6180
6180
6180
6180
6180
6180
6180
6180
63C0
3D80
0100
0100
0180
00C0
ENDCHAR
STARTCHAR 0174
ENCODING 372
SWIDTH 900 0
DWIDTH 20 0
BBX 20 20 0 0
BITMAP
006000
00B000
009000
010800
000000
F9F8F0
706060
306040
303040
303040
107080
185880
189880
189880
0C8D00
0D0D00
0D0F00
0E0600
060600
040200
ENDCHAR
STARTCHAR 0175
ENCODING 373
SWIDTH 675 0
DWIDTH 15 0
BBX 16 16 -1 0
BITMAP
00C0
0160
0120
0210
0000
FBE7
30C2
30C2
30E4
1964
1964
1A68
0E38
0E38
0C30
0410
ENDCHAR
STARTCHAR 0176
ENCODING 374
SWIDTH 720 0
DWIDTH 16 0
BBX 16 20 0 0
BITMAP
0180
02C0
0240
0420
0000
FE1F
380C
1808
0C10
0620
0620
0340
0340
0180
0180
0180
0180
0180
0180
07E0
ENDCHAR
STARTCHAR 0177
ENCODING 375
SWIDTH 495 0
DWIDTH 11 0
BBX 11 21 0 -5
BITMAP
0600
0B00
0900
1080
0000
F8E0
7040
3040
3080
1880
1880
0D00
0D00
0700
0600
0200
0400
0400
0C00
7800
7000
ENDCHAR
STARTCHAR 0178
ENCODING 376
SWIDTH 720 0
DWIDTH 16 0
BBX 16 18 0 0
BITMAP
0360
0360
0000
FE1F
380C
1808
0C10
0620
0620
0340
0340
0180
0180
0180
0180
0180
0180
07E0
ENDCHAR
STARTCHAR 0179
ENCODING 377
SWIDTH 540 0
DWIDTH 12 0
BBX 12 20 0 0
BITMAP
0300
0200
0400
0400
0000
7FE0
60C0
40C0
4180
0180
0300
0600
0600
0C00
1800
1800
3010
6010
6030
FFE0
ENDCHAR
STARTCHAR 017A
ENCODING 378
SWIDTH 405 0
DWIDTH 9 0
BBX 9 16 0 0
BITMAP
0300
0200
0400
0400
0000
7F80
4300
0300
0600
0C00
1C00
1800
3000
6000
6080
FF80
ENDCHAR
STARTCHAR 017B
ENCODING 379
SWIDTH 540 0
DWIDTH 12 0
BBX 12 18 0 0
BITMAP
0600
0600
0000
7FE0
60C0
40C0
4180
0180
0300
0600
0600
0C00
1800
1800
3010
6010
6030
FFE0
ENDCHAR
STARTCHAR 017C
ENCODING 380
SWIDTH 405 0
DWIDTH 9 0
BBX 9 14 0 0
BITMAP
0C00
0C00
0000
7F80
4300
0300
0600
0C00
1C00
1800
3000
6000
6080
FF80
ENDCHAR
STARTCHAR 017D
ENCODING 381
SWIDTH 540 0
DWIDTH 12 0
BBX 12 20 0 0
BITMAP
2100
1200
1A00
0C00
0000
7FE0
60C0
40C0
4180
0180
0300
0600
0600
0C00
1800
1800
3010
6010
6030
FFE0
ENDCHAR
STARTCHAR 017E
ENCODING 382
SWIDTH 405 0
DWIDTH 9 0
BBX 9 16 0 0
BITMAP
2100
1200
1A00
0C00
0000
7F80
4300
0300
0600
0C00
1C00
1800
3000
6000
6080
FF80
ENDCHAR
STARTCHAR 017F
ENCODING 383
SWIDTH 270 0
DWIDTH 6 0
BBX 8 16 1 0
BITMAP
1E
23
63
60
60
60
60
60
60
60
60
60
60
60
60
F0
ENDCHAR
STARTCHAR 018F
ENCODING 399
SWIDTH 720 0
DWIDTH 16 0
BBX 14 15 1 0
BITMAP
4F80
7860
6030
6018
4008
000C
000C
FFFC
C00C
C00C
C008
6018
3030
1860
0FC0
ENDCHAR
STARTCHAR 0192
ENCODING 402
SWIDTH 495 0
DWIDTH 11 0
BBX 11 20 0 -5
BITMAP
00E0
01A0
0180
0300
0300
0F80
0300
0600
0600
0600
0600
0C00
0C00
0C00
0C00
1800
1800
1800
B000
E000
ENDCHAR
STARTCHAR 01A0
ENCODING 416
SWIDTH 720 0
DWIDTH 16 0
BBX 14 17 1 0
BITMAP
000C
000C
07C4
1878
2010
6018
4008
C00C
C00C
C00C
C00C
C00C
4008
6018
3010
1860
0FC0
ENDCHAR
STARTCHAR 01A1
ENCODING 417
SWIDTH 540 0
DWIDTH 12 0
BBX 11 12 1 0
BITMAP
0060
1E60
6320
43C0
C180
C180
C180
C180
C180
6100
7300
1C00
ENDCHAR
STARTCHAR 01AF
ENCODING 431
SWIDTH 765 0
DWIDTH 17 0
BBX 17 18 1 0
BITMAP
000180
000180
000080
FC3F00
300800
300800
300800
300800
300800
300800
300800
300800
300800
300800
300800
181000
1C3000
07C000
ENDCHAR
STARTCHAR 01B0
ENCODING 432
SWIDTH 540 0
DWIDTH 12 0
BBX 12 12 0 0
BITMAP
0030
E3B0
6190
61E0
6180
6180
6180
6180
6180
6180
63C0
3D80
ENDCHAR
STARTCHAR 01CD
ENCODING 461
SWIDTH 720 0
DWIDTH 16 0
BBX 15 20 1 0
BITMAP
0840
0480
0680
0300
0000
0100
0300
0380
0580
0580
05C0
08C0
08C0
1060
1FE0
1060
2030
2030
6038
F07E
ENDCHAR
STARTCHAR 01CE
ENCODING 462
SWIDTH 450 0
DWIDTH 10 0
BBX 9 16 1 0
BITMAP
8400
4800
6800
3000
0000
7C00
C600
C600
C600
0E00
3600
6600
C600
C600
CE80
7700
ENDCHAR
STARTCHAR 01CF
ENCODING 463
SWIDTH 270 0
DWIDTH 6 0
BBX 6 20 0 0
BITMAP
84
48
68
30
00
FC
30
30
30
30
30
30
30
30
30
30
30
30
30
FC
ENDCHAR
STARTCHAR 01D0
ENCODING 464
SWIDTH 270 0
DWIDTH 6 0
BBX 6 16 0 0
BITMAP
84
48
68
30
00
30
70
30
30
30
30
30
30
30
30
78
ENDCHAR
STARTCHAR 01D1
ENCODING 465
SWIDTH 720 0
DWIDTH 16 0
BBX 14 20 1 0
BITMAP
0840
0480
0680
0300
0000
0FC0
1860
2010
6018
4008
C00C
C00C
C00C
C00C
C00C
4008
6018
3010
1860
0FC0
ENDCHAR
STARTCHAR 01D2
ENCODING 466
SWIDTH 495 0
DWIDTH 11 0
BBX 9 16 1 0
BITMAP
4200
2400
3400
1800
0000
1E00
6300
4300
C180
C180
C180
C180
C180
6100
7300
1C00
ENDCHAR
STARTCHAR 01D3
ENCODING 467
SWIDTH 675 0
DWIDTH 15 0
BBX 15 20 0 0
BITMAP
0420
0240
0340
0180
0000
FC3E
3008
3008
3008
3008
3008
3008
3008
3008
3008
3008
3008
1810
1C30
07C0
ENDCHAR
STARTCHAR 01D4
ENCODING 468
SWIDTH 495 0
DWIDTH 11 0
BBX 10 16 0 0
BITMAP
2100
1200
1A00
0C00
0000
E380
6180
6180
6180
6180
6180
6180
6180
6180
63C0
3D80
ENDCHAR
STARTCHAR 01D5
ENCODING 469
SWIDTH 675 0
DWIDTH 15 0
BBX 15 20 0 0
BITMAP
07E0
0000
0660
0660
0000
FC3E
3008
3008
3008
3008
3008
3008
3008
3008
3008
3008
3008
1810
1C30
07C0
ENDCHAR
STARTCHAR 01D6
ENCODING 470
SWIDTH 495 0
DWIDTH 11 0
BBX 10 17 0 0
BITMAP
7F00
0000
0000
3600
3600
0000
E380
6180
6180
6180
6180
6180
6180
6180
6180
63C0
3D80
ENDCHAR
STARTCHAR 01D7
ENCODING 471
SWIDTH 675 0
DWIDTH 15 0
BBX 15 20 0 0
BITMAP
0060
0080
0660
0660
0000
FC3E
3008
3008
3008
3008
3008
3008
3008
3008
3008
3008
3008
1810
1C30
07C0
ENDCHAR
STARTCHAR 01D8
ENCODING 472
SWIDTH 495 0
DWIDTH 11 0
BBX 10 19 0 0
BITMAP
0600
0400
0800
0800
0000
3600
3600
0000
E380
6180
6180
6180
6180
6180
6180
6180
6180
63C0
3D80
ENDCHAR
STARTCHAR 01D9
ENCODING 473
SWIDTH 675 0
DWIDTH 15 0
BBX 15 20 0 0
BITMAP
0280
0100
0660
0660
0000
FC3E
3008
3008
3008
3008
3008
3008
3008
3008
3008
3008
3008
1810
1C30
07C0
ENDCHAR
STARTCHAR 01DA
ENCODING 474
SWIDTH 495 0
DWIDTH 11 0
BBX 10 19 0 0
BITMAP
2100
1200
1A00
0C00
0000
3600
3600
0000
E380
6180
6180
6180
6180
6180
6180
6180
6180
63C0
3D80
ENDCHAR
STARTCHAR 01DB
ENCODING 475
SWIDTH 675 0
DWIDTH 15 0
BBX 15 20 0 0
BITMAP
0600
0100
0660
0660
0000
FC3E
3008
3008
3008
3008
3008
3008
3008
3008
3008
3008
3008
1810
1C30
07C0
ENDCHAR
STARTCHAR 01DC
ENCODING 476
SWIDTH 495 0
DWIDTH 11 0
BBX 10 19 0 0
BITMAP
3000
1000
0800
0800
0000
3600
3600
0000
E380
6180
6180
6180
6180
6180
6180
6180
6180
63C0
3D80
ENDCHAR
STARTCHAR 01FA
ENCODING 506
SWIDTH 720 0
DWIDTH 16 0
BBX 15 22 1 0
BITMAP
0180
0100
0200
0200
0180
0240
0240
0180
0300
0380
0580
0580
05C0
08C0
08C0
1060
1FE0
1060
2030
2030
6038
F07E
ENDCHAR
STARTCHAR 01FB
ENCODING 507
SWIDTH 450 0
DWIDTH 10 0
BBX 9 20 1 0
BITMAP
0C00
0800
1000
1000
1800
2400
2400
1800
0000
7C00
C600
C600
C600
0E00
3600
6600
C600
C600
CE80
7700
ENDCHAR
STARTCHAR 01FC
ENCODING 508
SWIDTH 900 0
DWIDTH 20 0
BBX 20 20 -1 0
BITMAP
001800
001000
002000
002000
000000
01FFE0
00F060
00B020
00B000
013000
023080
023080
043F80
043080
0FF080
083000
103010
103030
203060
F8FFE0
ENDCHAR
STARTCHAR 01FD
ENCODING 509
SWIDTH 675 0
DWIDTH 15 0
BBX 13 16 1 0
BITMAP
0300
0200
0400
0400
0000
3CE0
C730
C618
C618
0FF8
3600
6600
C608
C718
C7F0
79E0
ENDCHAR
STARTCHAR 01FE
ENCODING 510
SWIDTH 720 0
DWIDTH 16 0
BBX 14 20 1 0
BITMAP
0180
0100
0200
0200
0000
0FC8
1868
2030
6038
404C
C08C
C10C
C20C
C20C
C40C
4808
7018
3010
5860
4F80
ENDCHAR
STARTCHAR 01FF
ENCODING 511
SWIDTH 495 0
DWIDTH 11 0
BBX 10 16 1 0
BITMAP
0C00
0800
1000
1000
0000
1C40
6680
4300
C380
C580
C980
D180
D180
6100
7300
9E00
ENDCHAR
STARTCHAR 0259
ENCODING 601
SWIDTH 450 0
DWIDTH 10 0
BBX 8 11 1 0
BITMAP
3C
7E
C6
87
03
03
03
FF
C2
66
3C
ENDCHAR
STARTCHAR 02C6
ENCODING 710
SWIDTH 315 0
DWIDTH 7 0
BBX 6 4 0 12
BITMAP
30
58
48
84
ENDCHAR
STARTCHAR 02C7
ENCODING 711
SWIDTH 315 0
DWIDTH 7 0
BBX 6 4 0 11
BITMAP
84
48
68
30
ENDCHAR
STARTCHAR 02C9
ENCODING 713
SWIDTH 360 0
DWIDTH 8 0
BBX 7 1 0 13
BITMAP
FE
ENDCHAR
STARTCHAR 02D8
ENCODING 728
SWIDTH 315 0
DWIDTH 7 0
BBX 6 3 0 12
BITMAP
84
FC
78
ENDCHAR
STARTCHAR 02D9
ENCODING 729
SWIDTH 315 0
DWIDTH 7 0
BBX 2 2 2 12
BITMAP
C0
C0
ENDCHAR
STARTCHAR 02DA
ENCODING 730
SWIDTH 315 0
DWIDTH 7 0
BBX 4 4 2 12
BITMAP
60
90
90
60
ENDCHAR
STARTCHAR 02DB
ENCODING 731
SWIDTH 315 0
DWIDTH 7 0
BBX 3 4 2 -4
BITMAP
80
80
C0
60
ENDCHAR
STARTCHAR 02DC
ENCODING 732
SWIDTH 315 0
DWIDTH 7 0
BBX 7 3 0 13
BITMAP
62
92
8C
ENDCHAR
STARTCHAR 02DD
ENCODING 733
SWIDTH 315 0
DWIDTH 7 0
BBX 6 3 1 12
BITMAP
6C
48
90
ENDCHAR
STARTCHAR 0300
ENCODING 768
SWIDTH 0 0
DWIDTH 0 0
BBX 3 4 -5 16
BITMAP
C0
40
20
20
ENDCHAR
STARTCHAR 0301
ENCODING 769
SWIDTH 0 0
DWIDTH 0 0
BBX 3 4 -4 16
BITMAP
60
40
80
80
ENDCHAR
STARTCHAR 0303
ENCODING 771
SWIDTH 0 0
DWIDTH 0 0
BBX 8 2 -9 17
BITMAP
71
8E
ENDCHAR
STARTCHAR 0309
ENCODING 777
SWIDTH 0 0
DWIDTH 0 0
BBX 4 3 -4 17
BITMAP
F0
10
60
ENDCHAR
STARTCHAR 0323
ENCODING 803
SWIDTH 0 0
DWIDTH 0 0
BBX 2 2 -10 -3
BITMAP
C0
C0
ENDCHAR
STARTCHAR 037E
ENCODING 894
SWIDTH 225 0
DWIDTH 5 0
BBX 3 14 1 -3
BITMAP
C0
C0
00
00
00
00
00
00
00
C0
E0
20
40
80
ENDCHAR
STARTCHAR 0384
ENCODING 900
SWIDTH 315 0
DWIDTH 7 0
BBX 3 4 2 11
BITMAP
60
40
80
80
ENDCHAR
STARTCHAR 0385
ENCODING 901
SWIDTH 315 0
DWIDTH 7 0
BBX 8 4 0 12
BITMAP
0C
08
D3
D3
ENDCHAR
STARTCHAR 0386
ENCODING 902
SWIDTH 720 0
DWIDTH 16 0
BBX 15 15 1 0
BITMAP
3100
2300
4380
4580
0580
05C0
08C0
08C0
1060
1FE0
1060
2030
2030
6038
F07E
ENDCHAR
STARTCHAR 0387
ENCODING 903
SWIDTH 270 0
DWIDTH 6 0
BBX 2 2 2 8
BITMAP
C0
C0
ENDCHAR
STARTCHAR 0388
ENCODING 904
SWIDTH 675 0
DWIDTH 15 0
BBX 16 15 -2 0
BITMAP
6FFE
4306
8302
8300
0300
0308
0308
03F8
0308
0308
0300
0301
0303
0306
0FFE
ENDCHAR
STARTCHAR 0389
ENCODING 905
SWIDTH 810 0
DWIDTH 18 0
BBX 19 15 -2 0
BITMAP
6FC7E0
430180
830180
830180
030180
030180
030180
03FF80
030180
030180
030180
030180
030180
030180
0FC7E0
ENDCHAR
STARTCHAR 038A
ENCODING 906
SWIDTH 405 0
DWIDTH 9 0
BBX 10 15 -2 0
BITMAP
6FC0
4300
8300
8300
0300
0300
0300
0300
0300
0300
0300
0300
0300
0300
0FC0
ENDCHAR
STARTCHAR 038C
ENCODING 908
SWIDTH 720 0
DWIDTH 16 0
BBX 16 15 -1 0
BITMAP
63F0
4618
8804
9806
1002
3003
3003
3003
3003
3003
1002
1806
0C04
0618
03F0
ENDCHAR
STARTCHAR 038E
ENCODING 910
SWIDTH 810 0
DWIDTH 18 0
BBX 20 15 -2 0
BITMAP
6FC1F0
4380C0
818080
818100
00C100
006200
006400
003400
001800
001800
001800
001800
001800
001800
007E00
ENDCHAR
STARTCHAR 038F
ENCODING 911
SWIDTH 720 0
DWIDTH 16 0
BBX 17 15 -1 0
BITMAP
63F000
4E1C00
980600
980600
300300
300300
300300
300300
300300
180600
0C0C00
061800
421080
7E1F80
7E1F80
ENDCHAR
STARTCHAR 0390
ENCODING 912
SWIDTH 270 0
DWIDTH 6 0
BBX 8 16 -1 0
BITMAP
0C
08
D3
D3
00
18
78
18
18
18
18
18
18
18
19
0E
ENDCHAR
STARTCHAR 0391
ENCODING 913
SWIDTH 720 0
DWIDTH 16 0
BBX 15 15 1 0
BITMAP
0100
0300
0380
0580
0580
05C0
08C0
08C0
1060
1FE0
1060
2030
2030
6038
F07E
ENDCHAR
STARTCHAR 0392
ENCODING 914
SWIDTH 630 0
DWIDTH 14 0
BBX 13 15 0 0
BITMAP
FFC0
3060
3030
3030
3030
3030
3060
3FC0
3070
3038
3018
3018
3018
3030
FFE0
ENDCHAR
STARTCHAR 0393
ENCODING 915
SWIDTH 585 0
DWIDTH 13 0
BBX 12 15 0 0
BITMAP
FFF0
3030
3010
3000
3000
3000
3000
3000
3000
3000
3000
3000
3000
3000
FC00
ENDCHAR
STARTCHAR 0394
ENCODING 916
SWIDTH 630 0
DWIDTH 14 0
BBX 13 15 1 0
BITMAP
0200
0200
0700
0700
0980
0980
11C0
10C0
10C0
2060
2060
4030
4030
8030
FFF8
ENDCHAR
STARTCHAR 0395
ENCODING 917
SWIDTH 585 0
DWIDTH 13 0
BBX 13 15 0 0
BITMAP
FFF0
3030
3010
3000
3000
3040
3040
3FC0
3040
3040
3000
3008
3010
3030
FFF0
ENDCHAR
STARTCHAR 0396
ENCODING 918
SWIDTH 540 0
DWIDTH 12 0
BBX 12 15 0 0
BITMAP
7FE0
60C0
40C0
4180
0180
0300
0600
0600
0C00
1800
1800
3010
6010
6030
FFE0
ENDCHAR
STARTCHAR 0397
ENCODING 919
SWIDTH 675 0
DWIDTH 15 0
BBX 15 15 0 0
BITMAP
FC7E
3018
3018
3018
3018
3018
3018
3FF8
3018
3018
3018
3018
3018
3018
FC7E
ENDCHAR
STARTCHAR 0398
ENCODING 920
SWIDTH 720 0
DWIDTH 16 0
BBX 14 15 1 0
BITMAP
0FC0
1860
2010
6018
484C
C84C
CFCC
CFCC
C84C
C84C
4008
6018
3010
1860
0FC0
ENDCHAR
STARTCHAR 0399
ENCODING 921
SWIDTH 270 0
DWIDTH 6 0
BBX 6 15 0 0
BITMAP
FC
30
30
30
30
30
30
30
30
30
30
30
30
30
FC
ENDCHAR
STARTCHAR 039A
ENCODING 922
SWIDTH 675 0
DWIDTH 15 0
BBX 15 15 0 0
BITMAP
FC7C
3038
3020
3040
3080
3100
3200
3E00
3700
3380
31C0
30E0
3070
3038
FC7E
ENDCHAR
STARTCHAR 039B
ENCODING 923
SWIDTH 720 0
DWIDTH 16 0
BBX 15 15 1 0
BITMAP
0200
0300
0300
0580
0580
08C0
08C0
08C0
1060
1060
2030
2030
2030
6018
F07E
ENDCHAR
STARTCHAR 039C
ENCODING 924
SWIDTH 855 0
DWIDTH 19 0
BBX 19 15 0 0
BITMAP
F801E0
380380
3C0380
2C0380
2E0580
2E0580
260980
270980
231180
239180
219180
21E180
20E180
20C180
F847E0
ENDCHAR
STARTCHAR 039D
ENCODING 925
SWIDTH 720 0
DWIDTH 16 0
BBX 16 15 0 0
BITMAP
F01F
3804
1C04
1C04
1604
1304
1184
11C4
10E4
1064
1034
101C
101C
100C
7C04
ENDCHAR
STARTCHAR 039E
ENCODING 926
SWIDTH 630 0
DWIDTH 14 0
BBX 12 15 1 0
BITMAP
FFF0
FFF0
8010
8010
2040
2040
3FC0
3FC0
2040
2040
0000
8010
8010
FFF0
FFF0
ENDCHAR
STARTCHAR 039F
ENCODING 927
SWIDTH 720 0
DWIDTH 16 0
BBX 14 15 1 0
BITMAP
0FC0
1860
2010
6018
4008
C00C
C00C
C00C
C00C
C00C
4008
6018
3010
1860
0FC0
ENDCHAR
STARTCHAR 03A0
ENCODING 928
SWIDTH 675 0
DWIDTH 15 0
BBX 15 15 0 0
BITMAP
FFFE
3018
3018
3018
3018
3018
3018
3018
3018
3018
3018
3018
3018
3018
FC7E
ENDCHAR
STARTCHAR 03A1
ENCODING 929
SWIDTH 540 0
DWIDTH 12 0
BBX 11 15 0 0
BITMAP
FF00
31C0
30E0
3060
3060
3060
30C0
31C0
3F00
3000
3000
3000
3000
3000
FC00
ENDCHAR
STARTCHAR 03A3
ENCODING 931
SWIDTH 585 0
DWIDTH 13 0
BBX 12 15 0 0
BITMAP
FFE0
6060
3020
3020
1800
0C00
0600
0600
0400
0800
1010
1010
2030
7FF0
FFE0
ENDCHAR
STARTCHAR 03A4
ENCODING 932
SWIDTH 630 0
DWIDTH 14 0
BBX 12 15 1 0
BITMAP
FFF0
C630
8610
8610
0600
0600
0600
0600
0600
0600
0600
0600
0600
0600
1F80
ENDCHAR
STARTCHAR 03A5
ENCODING 933
SWIDTH 720 0
DWIDTH 16 0
BBX 16 15 0 0
BITMAP
FE1F
380C
1808
0C10
0620
0620
0340
0340
0180
0180
0180
0180
0180
0180
07E0
ENDCHAR
STARTCHAR 03A6
ENCODING 934
SWIDTH 720 0
DWIDTH 16 0
BBX 14 15 1 0
BITMAP
0FC0
0300
1FE0
3330
6318
C30C
C30C
C30C
C30C
C30C
6318
3330
1FE0
0300
0FC0
ENDCHAR
STARTCHAR 03A7
ENCODING 935
SWIDTH 675 0
DWIDTH 15 0
BBX 16 15 0 0
BITMAP
FE3E
380C
1808
0C10
0620
0640
0380
0180
01C0
02C0
0460
0830
1018
301C
F83F
ENDCHAR
STARTCHAR 03A8
ENCODING 936
SWIDTH 720 0
DWIDTH 16 0
BBX 16 15 0 0
BITMAP
C7E3
6186
6186
6186
6186
6186
6186
399C
0FF0
0180
0180
0180
0180
0180
07E0
ENDCHAR
STARTCHAR 03A9
ENCODING 937
SWIDTH 720 0
DWIDTH 16 0
BBX 16 15 0 0
BITMAP
07E0
1C38
300C
300C
6006
6006
6006
6006
6006
300C
1818
0C30
8421
FC3F
FC3F
ENDCHAR
STARTCHAR 03AA
ENCODING 938
SWIDTH 270 0
DWIDTH 6 0
BBX 6 18 0 0
BITMAP
6C
6C
00
FC
30
30
30
30
30
30
30
30
30
30
30
30
30
FC
ENDCHAR
STARTCHAR 03AB
ENCODING 939
SWIDTH 720 0
DWIDTH 16 0
BBX 16 18 0 0
BITMAP
0360
0360
0000
FE1F
380C
1808
0C10
0620
0620
0340
0340
0180
0180
0180
0180
0180
0180
07E0
ENDCHAR
STARTCHAR 03AC
ENCODING 940
SWIDTH 540 0
DWIDTH 12 0
BBX 12 16 1 0
BITMAP
0600
0400
0800
0800
0000
3CC0
64C0
4380
C180
C180
C180
C180
C300
C380
6690
3C60
ENDCHAR
STARTCHAR 03AD
ENCODING 941
SWIDTH 405 0
DWIDTH 9 0
BBX 8 16 1 0
BITMAP
18
10
20
20
00
1E
73
63
60
20
1C
60
C0
C3
E3
3C
ENDCHAR
STARTCHAR 03AE
ENCODING 942
SWIDTH 540 0
DWIDTH 12 0
BBX 10 21 0 -5
BITMAP
0300
0200
0400
0400
0000
6780
B8C0
30C0
30C0
30C0
30C0
30C0
30C0
30C0
30C0
30C0
00C0
00C0
00C0
00C0
00C0
ENDCHAR
STARTCHAR 03AF
ENCODING 943
SWIDTH 270 0
DWIDTH 6 0
BBX 7 16 0 0
BITMAP
18
10
20
20
00
30
F0
30
30
30
30
30
30
30
32
1C
ENDCHAR
STARTCHAR 03B0
ENCODING 944
SWIDTH 495 0
DWIDTH 11 0
BBX 10 16 0 0
BITMAP
0600
0400
6980
6980
0000
6300
B180
3080
30C0
30C0
30C0
30C0
30C0
3080
1900
0E00
ENDCHAR
STARTCHAR 03B1
ENCODING 945
SWIDTH 540 0
DWIDTH 12 0
BBX 12 11 1 0
BITMAP
3CC0
64C0
4380
C180
C180
C180
C180
C300
C380
6690
3C60
ENDCHAR
STARTCHAR 03B2
ENCODING 946
SWIDTH 495 0
DWIDTH 11 0
BBX 9 21 1 -5
BITMAP
3C00
6600
C300
C300
C300
C200
DC00
C300
C300
C180
C180
C180
C180
C100
E300
DE00
C000
C000
C000
C000
C000
ENDCHAR
STARTCHAR 03B3
ENCODING 947
SWIDTH 450 0
DWIDTH 10 0
BBX 10 16 0 -5
BITMAP
70C0
F080
9980
8900
0900
0B00
0A00
0A00
0400
0400
0400
0400
0C00
0C00
0C00
0C00
ENDCHAR
STARTCHAR 03B4
ENCODING 948
SWIDTH 450 0
DWIDTH 10 0
BBX 9 16 1 0
BITMAP
3E00
4700
4300
2000
1000
0800
0E00
3300
6300
C180
C180
C180
C180
C100
6300
3C00
ENDCHAR
STARTCHAR 03B5
ENCODING 949
SWIDTH 405 0
DWIDTH 9 0
BBX 8 11 1 0
BITMAP
1E
73
63
60
20
1C
60
C0
C3
E3
3C
ENDCHAR
STARTCHAR 03B6
ENCODING 950
SWIDTH 405 0
DWIDTH 9 0
BBX 8 21 1 -5
BITMAP
23
47
4E
3C
10
20
40
40
80
80
80
80
80
C0
7E
3F
01
01
01
02
1C
ENDCHAR
STARTCHAR 03B7
ENCODING 951
SWIDTH 540 0
DWIDTH 12 0
BBX 10 16 0 -5
BITMAP
6780
B8C0
30C0
30C0
30C0
30C0
30C0
30C0
30C0
30C0
30C0
00C0
00C0
00C0
00C0
00C0
ENDCHAR
STARTCHAR 03B8
ENCODING 952
SWIDTH 495 0
DWIDTH 11 0
BBX 9 15 1 0
BITMAP
1C00
2200
6300
4100
C180
C180
C180
FF80
C180
C180
C180
4100
6300
2200
1C00
ENDCHAR
STARTCHAR 03B9
ENCODING 953
SWIDTH 270 0
DWIDTH 6 0
BBX 7 11 0 0
BITMAP
30
F0
30
30
30
30
30
30
30
32
1C
ENDCHAR
STARTCHAR 03BA
ENCODING 954
SWIDTH 495 0
DWIDTH 11 0
BBX 11 11 0 0
BITMAP
30E0
F160
3200
3400
3400
3C00
3600
3600
3300
3180
31E0
ENDCHAR
STARTCHAR 03BB
ENCODING 955
SWIDTH 495 0
DWIDTH 11 0
BBX 10 16 0 0
BITMAP
3000
4800
4800
0800
0400
0400
0400
0C00
0C00
1A00
1A00
3200
3240
6240
63C0
C180
ENDCHAR
STARTCHAR 03BC
ENCODING 956
SWIDTH 540 0
DWIDTH 12 0
BBX 12 16 1 -5
BITMAP
6180
6180
6180
6180
6180
6180
6180
6180
6180
7390
7CE0
4000
4000
C000
C000
C000
ENDCHAR
STARTCHAR 03BD
ENCODING 957
SWIDTH 450 0
DWIDTH 10 0
BBX 10 11 0 0
BITMAP
60C0
E0C0
30C0
3080
3080
1900
1900
1A00
1A00
0C00
0C00
ENDCHAR
STARTCHAR 03BE
ENCODING 958
SWIDTH 450 0
DWIDTH 10 0
BBX 9 21 1 -5
BITMAP
6000
4E00
3C00
2000
2000
2000
2700
1F00
2000
4000
8000
8000
8000
C000
7F00
3F80
0080
0080
0080
0100
0E00
ENDCHAR
STARTCHAR 03BF
ENCODING 959
SWIDTH 495 0
DWIDTH 11 0
BBX 9 11 1 0
BITMAP
1E00
6300
4300
C180
C180
C180
C180
C180
6100
7300
1C00
ENDCHAR
STARTCHAR 03C0
ENCODING 960
SWIDTH 495 0
DWIDTH 11 0
BBX 11 11 0 0
BITMAP
3FE0
7FE0
D300
9300
1300
1300
3300
3300
2320
63E0
61C0
ENDCHAR
STARTCHAR 03C1
ENCODING 961
SWIDTH 495 0
DWIDTH 11 0
BBX 9 16 1 -5
BITMAP
1E00
6700
4380
C180
C180
C180
C180
C180
C300
E200
DC00
C000
C000
C000
C000
C000
ENDCHAR
STARTCHAR 03C2
ENCODING 962
SWIDTH 405 0
DWIDTH 9 0
BBX 7 16 1 -5
BITMAP
1E
26
40
80
80
80
80
80
C0
7C
3E
02
02
02
04
1C
ENDCHAR
STARTCHAR 03C3
ENCODING 963
SWIDTH 540 0
DWIDTH 12 0
BBX 11 11 1 0
BITMAP
1FE0
7FE0
6300
C180
C080
C0C0
C0C0
C0C0
60C0
3180
1E00
ENDCHAR
STARTCHAR 03C4
ENCODING 964
SWIDTH 405 0
DWIDTH 9 0
BBX 9 11 0 0
BITMAP
7F80
7F80
8800
1800
1800
1800
1800
1800
1900
1F00
0E00
ENDCHAR
STARTCHAR 03C5
ENCODING 965
SWIDTH 495 0
DWIDTH 11 0
BBX 10 11 0 0
BITMAP
6300
B180
3080
30C0
30C0
30C0
30C0
30C0
3080
1900
0E00
ENDCHAR
STARTCHAR 03C6
ENCODING 966
SWIDTH 585 0
DWIDTH 13 0
BBX 11 16 1 -5
BITMAP
3380
64C0
4440
C460
C460
C460
C460
C460
64C0
3580
1F00
0400
0400
0400
0400
0400
ENDCHAR
STARTCHAR 03C7
ENCODING 967
SWIDTH 450 0
DWIDTH 10 0
BBX 10 16 0 -5
BITMAP
6180
F300
9300
9700
1600
1600
0C00
0C00
1800
1800
3400
3400
3440
6440
63C0
C380
ENDCHAR
STARTCHAR 03C8
ENCODING 968
SWIDTH 630 0
DWIDTH 14 0
BBX 13 16 1 -5
BITMAP
C238
6230
6230
6230
3260
3260
3260
3260
1240
1AC0
0700
0200
0200
0200
0200
0200
ENDCHAR
STARTCHAR 03C9
ENCODING 969
SWIDTH 630 0
DWIDTH 14 0
BBX 12 11 1 0
BITMAP
1980
60E0
6660
C630
C630
C630
C630
C430
C630
6A60
31C0
ENDCHAR
STARTCHAR 03CA
ENCODING 970
SWIDTH 270 0
DWIDTH 6 0
BBX 7 14 0 0
BITMAP
6C
6C
00
30
F0
30
30
30
30
30
30
30
32
1C
ENDCHAR
STARTCHAR 03CB
ENCODING 971
SWIDTH 495 0
DWIDTH 11 0
BBX 10 14 0 0
BITMAP
1B00
1B00
0000
6300
B180
3080
30C0
30C0
30C0
30C0
30C0
3080
1900
0E00
ENDCHAR
STARTCHAR 03CC
ENCODING 972
SWIDTH 495 0
DWIDTH 11 0
BBX 9 16 1 0
BITMAP
0600
0400
0800
0800
0000
1E00
6300
4300
C180
C180
C180
C180
C180
6100
7300
1C00
ENDCHAR
STARTCHAR 03CD
ENCODING 973
SWIDTH 495 0
DWIDTH 11 0
BBX 10 16 0 0
BITMAP
0300
0200
0400
0400
0000
6300
B180
3080
30C0
30C0
30C0
30C0
30C0
3080
1900
0E00
ENDCHAR
STARTCHAR 03CE
ENCODING 974
SWIDTH 630 0
DWIDTH 14 0
BBX 12 16 1 0
BITMAP
0300
0200
0400
0400
0000
1980
60E0
6660
C630
C630
C630
C630
C430
C630
6A60
31C0
ENDCHAR
STARTCHAR 0401
ENCODING 1025
SWIDTH 585 0
DWIDTH 13 0
BBX 13 18 0 0
BITMAP
0D80
0D80
0000
FFF0
3030
3010
3000
3000
3040
3040
3FC0
3040
3040
3000
3008
3010
3030
FFF0
ENDCHAR
STARTCHAR 0402
ENCODING 1026
SWIDTH 765 0
DWIDTH 17 0
BBX 16 15 0 0
BITMAP
FFF0
C630
8610
0600
067C
0686
0706
0603
0603
0603
0603
0603
0603
0606
1F9C
ENDCHAR
STARTCHAR 0403
ENCODING 1027
SWIDTH 585 0
DWIDTH 13 0
BBX 12 20 0 0
BITMAP
0180
0100
0200
0200
0000
FFF0
3030
3010
3000
3000
3000
3000
3000
3000
3000
3000
3000
3000
3000
FC00
ENDCHAR
STARTCHAR 0404
ENCODING 1028
SWIDTH 675 0
DWIDTH 15 0
BBX 13 15 1 0
BITMAP
0F90
18F0
2030
6010
4010
C000
C000
FF00
C000
C000
4000
6008
3010
1860
0FC0
ENDCHAR
STARTCHAR 0405
ENCODING 1029
SWIDTH 540 0
DWIDTH 12 0
BBX 10 15 1 0
BITMAP
3C80
6380
C180
C080
E080
7000
3C00
0F00
0380
01C0
80C0
80C0
C0C0
E180
9F00
ENDCHAR
STARTCHAR 0406
ENCODING 1030
SWIDTH 270 0
DWIDTH 6 0
BBX 6 15 0 0
BITMAP
FC
30
30
30
30
30
30
30
30
30
30
30
30
30
FC
ENDCHAR
STARTCHAR 0407
ENCODING 1031
SWIDTH 270 0
DWIDTH 6 0
BBX 6 18 0 0
BITMAP
6C
6C
00
FC
30
30
30
30
30
30
30
30
30
30
30
30
30
FC
ENDCHAR
STARTCHAR 0408
ENCODING 1032
SWIDTH 405 0
DWIDTH 9 0
BBX 8 15 1 0
BITMAP
3F
0C
0C
0C
0C
0C
0C
0C
0C
0C
0C
0C
CC
E8
70
ENDCHAR
STARTCHAR 0409
ENCODING 1033
SWIDTH 855 0
DWIDTH 19 0
BBX 19 15 0 0
BITMAP
1FFC00
043000
043000
043000
043000
043000
043000
043F80
0431C0
043060
043060
083060
C83060
F831C0
F0FF00
ENDCHAR
STARTCHAR 040A
ENCODING 1034
SWIDTH 855 0
DWIDTH 19 0
BBX 18 15 0 0
BITMAP
FDF800
306000
306000
306000
306000
306000
306000
3FFF00
306180
3060C0
3060C0
3060C0
3060C0
306180
FDFE00
ENDCHAR
STARTCHAR 040B
ENCODING 1035
SWIDTH 720 0
DWIDTH 16 0
BBX 16 15 0 0
BITMAP
FFF0
C630
8610
0600
0678
069C
070C
060C
060C
060C
060C
060C
060C
060C
1FBF
ENDCHAR
STARTCHAR 040C
ENCODING 1036
SWIDTH 675 0
DWIDTH 15 0
BBX 13 20 0 0
BITMAP
0180
0100
0200
0200
0000
FC38
3058
3080
3080
3100
3100
3200
3E00
3300
3300
3180
30C0
30E0
3060
FC38
ENDCHAR
STARTCHAR 040E
ENCODING 1038
SWIDTH 720 0
DWIDTH 16 0
BBX 14 20 1 0
BITMAP
1860
1860
1CE0
0FC0
0000
FC3C
7018
3010
1810
0C20
0C20
0660
0640
0340
03C0
0180
0180
0100
1B00
1E00
ENDCHAR
STARTCHAR 040F
ENCODING 1039
SWIDTH 675 0
DWIDTH 15 0
BBX 15 19 0 -4
BITMAP
FC7E
3018
3018
3018
3018
3018
3018
3018
3018
3018
3018
3018
3018
3018
FFFE
0380
0100
0100
0100
ENDCHAR
STARTCHAR 0410
ENCODING 1040
SWIDTH 720 0
DWIDTH 16 0
BBX 15 15 1 0
BITMAP
0100
0300
0380
0580
0580
05C0
08C0
08C0
1060
1FE0
1060
2030
2030
6038
F07E
ENDCHAR
STARTCHAR 0411
ENCODING 1041
SWIDTH 585 0
DWIDTH 13 0
BBX 11 15 0 0
BITMAP
FFC0
30C0
3040
3000
3000
3000
3000
3F80
30C0
3060
3060
3060
3060
30C0
FF80
ENDCHAR
STARTCHAR 0412
ENCODING 1042
SWIDTH 630 0
DWIDTH 14 0
BBX 13 15 0 0
BITMAP
FFC0
3060
3030
3030
3030
3030
3060
3FC0
3070
3038
3018
3018
3018
3030
FFE0
ENDCHAR
STARTCHAR 0413
ENCODING 1043
SWIDTH 585 0
DWIDTH 13 0
BBX 12 15 0 0
BITMAP
FFF0
3030
3010
3000
3000
3000
3000
3000
3000
3000
3000
3000
3000
3000
FC00
ENDCHAR
STARTCHAR 0414
ENCODING 1044
SWIDTH 675 0
DWIDTH 15 0
BBX 14 19 1 -4
BITMAP
1FFC
0430
0430
0430
0430
0430
0430
0830
0830
0830
0830
1030
1030
2030
FFFC
E01C
C00C
8004
8004
ENDCHAR
STARTCHAR 0415
ENCODING 1045
SWIDTH 585 0
DWIDTH 13 0
BBX 13 15 0 0
BITMAP
FFF0
3030
3010
3000
3000
3040
3040
3FC0
3040
3040
3000
3008
3010
3030
FFF0
ENDCHAR
STARTCHAR 0416
ENCODING 1046
SWIDTH 900 0
DWIDTH 20 0
BBX 18 15 1 0
BITMAP
E3F1C0
D0C2C0
10C400
08C400
08C400
08C800
04C800
03F000
06D800
0CCC00
0CCC00
18C600
38C700
30C300
F3F3C0
ENDCHAR
STARTCHAR 0417
ENCODING 1047
SWIDTH 495 0
DWIDTH 11 0
BBX 10 15 0 0
BITMAP
4F00
7180
60C0
40C0
00C0
0380
1E00
0380
01C0
00C0
00C0
00C0
80C0
6180
3E00
ENDCHAR
STARTCHAR 0418
ENCODING 1048
SWIDTH 675 0
DWIDTH 15 0
BBX 15 15 0 0
BITMAP
FC7E
3018
3018
3018
3038
3058
3098
3118
3218
3418
3818
3018
3018
3018
FC7E
ENDCHAR
STARTCHAR 0419
ENCODING 1049
SWIDTH 675 0
DWIDTH 15 0
BBX 15 20 0 0
BITMAP
1830
1830
1C70
07C0
0000
FC7E
3018
3018
3018
3038
3058
3098
3118
3218
3418
3818
3018
3018
3018
FC7E
ENDCHAR
STARTCHAR 041A
ENCODING 1050
SWIDTH 675 0
DWIDTH 15 0
BBX 13 15 0 0
BITMAP
FC38
3058
3080
3080
3100
3100
3200
3E00
3300
3300
3180
30C0
30E0
3060
FC38
ENDCHAR
STARTCHAR 041B
ENCODING 1051
SWIDTH 675 0
DWIDTH 15 0
BBX 15 15 0 0
BITMAP
1FFE
0418
0418
0418
0418
0418
0418
0418
0418
0418
0418
0818
C818
F818
F07E
ENDCHAR
STARTCHAR 041C
ENCODING 1052
SWIDTH 855 0
DWIDTH 19 0
BBX 19 15 0 0
BITMAP
F801E0
380380
3C0380
2C0380
2E0580
2E0580
260980
270980
231180
239180
219180
21E180
20E180
20C180
F847E0
ENDCHAR
STARTCHAR 041D
ENCODING 1053
SWIDTH 675 0
DWIDTH 15 0
BBX 15 15 0 0
BITMAP
FC7E
3018
3018
3018
3018
3018
3018
3FF8
3018
3018
3018
3018
3018
3018
FC7E
ENDCHAR
STARTCHAR 041E
ENCODING 1054
SWIDTH 720 0
DWIDTH 16 0
BBX 14 15 1 0
BITMAP
0FC0
1860
2010
6018
4008
C00C
C00C
C00C
C00C
C00C
4008
6018
3010
1860
0FC0
ENDCHAR
STARTCHAR 041F
ENCODING 1055
SWIDTH 675 0
DWIDTH 15 0
BBX 15 15 0 0
BITMAP
FFFE
3018
3018
3018
3018
3018
3018
3018
3018
3018
3018
3018
3018
3018
FC7E
ENDCHAR
STARTCHAR 0420
ENCODING 1056
SWIDTH 540 0
DWIDTH 12 0
BBX 11 15 0 0
BITMAP
FF00
31C0
30E0
3060
3060
3060
30C0
31C0
3F00
3000
3000
3000
3000
3000
FC00
ENDCHAR
STARTCHAR 0421
ENCODING 1057
SWIDTH 675 0
DWIDTH 15 0
BBX 13 15 1 0
BITMAP
07C8
1878
3018
6018
4008
C000
C000
C000
C000
C000
C000
6008
3010
1860
0FC0
ENDCHAR
STARTCHAR 0422
ENCODING 1058
SWIDTH 630 0
DWIDTH 14 0
BBX 12 15 1 0
BITMAP
FFF0
C630
8610
8610
0600
0600
0600
0600
0600
0600
0600
0600
0600
0600
1F80
ENDCHAR
STARTCHAR 0423
ENCODING 1059
SWIDTH 720 0
DWIDTH 16 0
BBX 14 15 1 0
BITMAP
FC3C
7018
3010
1810
0C20
0C20
0660
0640
0340
03C0
0180
0180
0100
1B00
1E00
ENDCHAR
STARTCHAR 0424
ENCODING 1060
SWIDTH 765 0
DWIDTH 17 0
BBX 15 15 1 0
BITMAP
07E0
0180
1FF0
319C
618C
C186
C186
C186
C186
C186
618C
319C
0FF0
0180
07E0
ENDCHAR
STARTCHAR 0425
ENCODING 1061
SWIDTH 675 0
DWIDTH 15 0
BBX 16 15 0 0
BITMAP
FE3E
380C
1808
0C10
0620
0640
0380
0180
01C0
02C0
0460
0830
1018
301C
F83F
ENDCHAR
STARTCHAR 0426
ENCODING 1062
SWIDTH 675 0
DWIDTH 15 0
BBX 15 19 0 -4
BITMAP
FC7E
3018
3018
3018
3018
3018
3018
3018
3018
3018
3018
3018
3018
3018
FFF8
000E
0006
0002
0002
ENDCHAR
STARTCHAR 0427
ENCODING 1063
SWIDTH 630 0
DWIDTH 14 0
BBX 14 15 0 0
BITMAP
FCFC
3030
3030
3030
3030
3030
3030
1870
0FB0
0030
0030
0030
0030
0030
00FC
ENDCHAR
STARTCHAR 0428
ENCODING 1064
SWIDTH 945 0
DWIDTH 21 0
BBX 21 15 0 0
BITMAP
FCFDF8
303060
303060
303060
303060
303060
303060
303060
303060
303060
303060
303060
303060
303060
FFFFF8
ENDCHAR
STARTCHAR 0429
ENCODING 1065
SWIDTH 945 0
DWIDTH 21 0
BBX 21 19 0 -4
BITMAP
FCFDF8
303060
303060
303060
303060
303060
303060
303060
303060
303060
303060
303060
303060
303060
FFFFF8
000038
000018
000008
000008
ENDCHAR
STARTCHAR 042A
ENCODING 1066
SWIDTH 720 0
DWIDTH 16 0
BBX 14 15 0 0
BITMAP
FF80
C600
8600
0600
0600
0600
0600
07F0
0618
060C
060C
060C
060C
0618
1FF0
ENDCHAR
STARTCHAR 042B
ENCODING 1067
SWIDTH 855 0
DWIDTH 19 0
BBX 18 15 0 0
BITMAP
FC0FC0
300300
300300
300300
300300
300300
300300
3F8300
30C300
306300
306300
306300
306300
30C300
FF8FC0
ENDCHAR
STARTCHAR 042C
ENCODING 1068
SWIDTH 585 0
DWIDTH 13 0
BBX 11 15 0 0
BITMAP
FC00
3000
3000
3000
3000
3000
3000
3F80
30C0
3060
3060
3060
3060
30C0
FF80
ENDCHAR
STARTCHAR 042D
ENCODING 1069
SWIDTH 675 0
DWIDTH 15 0
BBX 13 15 1 0
BITMAP
4F80
78C0
6020
4030
4010
0018
0018
07F8
0018
0018
0010
8030
4060
30C0
1F80
ENDCHAR
STARTCHAR 042E
ENCODING 1070
SWIDTH 1035 0
DWIDTH 23 0
BBX 22 15 0 0
BITMAP
FC0F80
303060
306030
30C018
308008
31800C
31800C
3F800C
31800C
31800C
318008
30C018
306030
303060
FC0F80
ENDCHAR
STARTCHAR 042F
ENCODING 1071
SWIDTH 675 0
DWIDTH 15 0
BBX 15 15 0 0
BITMAP
03FE
0618
0C18
0C18
0C18
0C18
0718
01F8
0198
0318
0618
0E18
0C18
3818
F87E
ENDCHAR
STARTCHAR 0430
ENCODING 1072
SWIDTH 450 0
DWIDTH 10 0
BBX 9 11 1 0
BITMAP
7C00
C600
C600
C600
0E00
3600
6600
C600
C600
CE80
7700
ENDCHAR
STARTCHAR 0431
ENCODING 1073
SWIDTH 495 0
DWIDTH 11 0
BBX 9 15 1 0
BITMAP
0080
1F80
3F00
6000
5E00
A300
C300
C180
C180
C180
C180
C180
6100
7300
3C00
ENDCHAR
STARTCHAR 0432
ENCODING 1074
SWIDTH 450 0
DWIDTH 10 0
BBX 9 11 0 0
BITMAP
FE00
6300
6300
6300
6700
7C00
6300
6180
6180
6380
FF00
ENDCHAR
STARTCHAR 0433
ENCODING 1075
SWIDTH 405 0
DWIDTH 9 0
BBX 8 11 1 0
BITMAP
FE
63
61
60
60
60
60
60
60
60
F0
ENDCHAR
STARTCHAR 0434
ENCODING 1076
SWIDTH 495 0
DWIDTH 11 0
BBX 10 14 0 -3
BITMAP
7FC0
3180
1180
1180
1180
1180
1180
2180
2180
4180
FFC0
C0C0
8040
8040
ENDCHAR
STARTCHAR 0435
ENCODING 1077
SWIDTH 450 0
DWIDTH 10 0
BBX 8 11 1 0
BITMAP
3C
66
43
FF
C0
C0
C0
E1
73
7E
3C
ENDCHAR
STARTCHAR 0436
ENCODING 1078
SWIDTH 675 0
DWIDTH 15 0
BBX 14 11 1 0
BITMAP
E79C
E31C
1320
1320
0B40
0FC0
1B60
3330
3330
6318
E79C
ENDCHAR
STARTCHAR 0437
ENCODING 1079
SWIDTH 405 0
DWIDTH 9 0
BBX 8 11 0 0
BITMAP
5E
63
43
03
06
18
06
03
03
87
7E
ENDCHAR
STARTCHAR 0438
ENCODING 1080
SWIDTH 540 0
DWIDTH 12 0
BBX 10 11 1 0
BITMAP
F3C0
6180
6180
6380
6580
6980
7180
6180
6180
6180
F3C0
ENDCHAR
STARTCHAR 0439
ENCODING 1081
SWIDTH 540 0
DWIDTH 12 0
BBX 10 15 1 0
BITMAP
2100
3300
1E00
0000
F3C0
6180
6180
6380
6580
6980
7180
6180
6180
6180
F3C0
ENDCHAR
STARTCHAR 043A
ENCODING 1082
SWIDTH 495 0
DWIDTH 11 0
BBX 10 11 1 0
BITMAP
F380
6380
6400
6400
7800
6C00
6C00
6600
6600
6300
F3C0
ENDCHAR
STARTCHAR 043B
ENCODING 1083
SWIDTH 495 0
DWIDTH 11 0
BBX 10 11 0 0
BITMAP
3FC0
1180
1180
1180
1180
1180
1180
1180
1180
D180
E3C0
ENDCHAR
STARTCHAR 043C
ENCODING 1084
SWIDTH 630 0
DWIDTH 14 0
BBX 13 11 1 0
BITMAP
F038
7070
7070
58B0
58B0
58B0
4D30
4D30
4630
4630
E478
ENDCHAR
STARTCHAR 043D
ENCODING 1085
SWIDTH 540 0
DWIDTH 12 0
BBX 10 11 1 0
BITMAP
F3C0
6180
6180
6180
6180
7F80
6180
6180
6180
6180
F3C0
ENDCHAR
STARTCHAR 043E
ENCODING 1086
SWIDTH 495 0
DWIDTH 11 0
BBX 9 11 1 0
BITMAP
1E00
6300
4300
C180
C180
C180
C180
C180
6100
7300
1C00
ENDCHAR
STARTCHAR 043F
ENCODING 1087
SWIDTH 540 0
DWIDTH 12 0
BBX 10 11 1 0
BITMAP
FFC0
6180
6180
6180
6180
6180
6180
6180
6180
6180
F3C0
ENDCHAR
STARTCHAR 0440
ENCODING 1088
SWIDTH 495 0
DWIDTH 11 0
BBX 10 16 0 -5
BITMAP
6F00
F180
61C0
60C0
60C0
60C0
60C0
60C0
6180
7180
6E00
6000
6000
6000
6000
F000
ENDCHAR
STARTCHAR 0441
ENCODING 1089
SWIDTH 450 0
DWIDTH 10 0
BBX 8 11 1 0
BITMAP
1E
63
43
C0
C0
C0
C0
E0
61
7E
3C
ENDCHAR
STARTCHAR 0442
ENCODING 1090
SWIDTH 450 0
DWIDTH 10 0
BBX 10 11 0 0
BITMAP
7F80
CCC0
8C40
0C00
0C00
0C00
0C00
0C00
0C00
0C00
1E00
ENDCHAR
STARTCHAR 0443
ENCODING 1091
SWIDTH 495 0
DWIDTH 11 0
BBX 11 16 0 -5
BITMAP
F8E0
7040
3040
3080
1880
1880
0D00
0D00
0700
0600
0200
0400
0400
0C00
7800
7000
ENDCHAR
STARTCHAR 0444
ENCODING 1092
SWIDTH 630 0
DWIDTH 14 0
BBX 12 21 1 -5
BITMAP
0600
1E00
0600
0600
0600
37C0
6E60
C620
C630
C630
C630
C630
C630
4620
6660
3FC0
0600
0600
0600
0600
0F00
ENDCHAR
STARTCHAR 0445
ENCODING 1093
SWIDTH 450 0
DWIDTH 10 0
BBX 10 11 0 0
BITMAP
F3C0
6100
3100
1A00
1C00
0C00
1600
1300
2300
4180
E3C0
ENDCHAR
STARTCHAR 0446
ENCODING 1094
SWIDTH 540 0
DWIDTH 12 0
BBX 11 14 1 -3
BITMAP
F3C0
6180
6180
6180
6180
6180
6180
6180
6180
6180
FFC0
0060
0020
0020
ENDCHAR
STARTCHAR 0447
ENCODING 1095
SWIDTH 495 0
DWIDTH 11 0
BBX 10 11 0 0
BITMAP
F3C0
6180
6180
6180
6180
6380
7D80
0180
0180
0180
03C0
ENDCHAR
STARTCHAR 0448
ENCODING 1096
SWIDTH 765 0
DWIDTH 17 0
BBX 15 11 1 0
BITMAP
F7DE
618C
618C
618C
618C
618C
618C
618C
618C
618C
FFFE
ENDCHAR
STARTCHAR 0449
ENCODING 1097
SWIDTH 765 0
DWIDTH 17 0
BBX 16 14 1 -3
BITMAP
F7DE
618C
618C
618C
618C
618C
618C
618C
618C
618C
FFFC
0003
0001
0001
ENDCHAR
STARTCHAR 044A
ENCODING 1098
SWIDTH 495 0
DWIDTH 11 0
BBX 10 11 0 0
BITMAP
7C00
D800
9800
1800
1800
1F80
18C0
18C0
18C0
18C0
3F80
ENDCHAR
STARTCHAR 044B
ENCODING 1099
SWIDTH 675 0
DWIDTH 15 0
BBX 13 11 1 0
BITMAP
F078
6030
6030
6030
6030
7E30
6330
6330
6330
6330
FE78
ENDCHAR
STARTCHAR 044C
ENCODING 1100
SWIDTH 450 0
DWIDTH 10 0
BBX 8 11 1 0
BITMAP
F0
60
60
60
60
7E
63
63
63
63
FE
ENDCHAR
STARTCHAR 044D
ENCODING 1101
SWIDTH 405 0
DWIDTH 9 0
BBX 8 11 0 0
BITMAP
5C
66
46
03
03
1F
03
03
02
C6
78
ENDCHAR
STARTCHAR 044E
ENCODING 1102
SWIDTH 720 0
DWIDTH 16 0
BBX 14 11 1 0
BITMAP
F0F0
6318
6218
660C
660C
7E0C
660C
660C
6308
6398
F1E0
ENDCHAR
STARTCHAR 044F
ENCODING 1103
SWIDTH 450 0
DWIDTH 10 0
BBX 9 11 0 0
BITMAP
3F80
7300
6300
6300
3300
1F00
1B00
3300
3300
6300
C780
ENDCHAR
STARTCHAR 0451
ENCODING 1105
SWIDTH 450 0
DWIDTH 10 0
BBX 8 14 1 0
BITMAP
36
36
00
3C
66
43
FF
C0
C0
C0
E1
73
7E
3C
ENDCHAR
STARTCHAR 0452
ENCODING 1106
SWIDTH 495 0
DWIDTH 11 0
BBX 10 21 0 -5
BITMAP
F000
3000
FF80
3000
3000
3700
3980
30C0
30C0
30C0
30C0
30C0
30C0
30C0
30C0
78C0
0080
0180
0180
0300
0600
ENDCHAR
STARTCHAR 0453
ENCODING 1107
SWIDTH 405 0
DWIDTH 9 0
BBX 8 16 1 0
BITMAP
0C
08
10
10
00
FE
63
61
60
60
60
60
60
60
60
F0
ENDCHAR
STARTCHAR 0454
ENCODING 1108
SWIDTH 405 0
DWIDTH 9 0
BBX 8 11 1 0
BITMAP
3A
66
62
C0
C0
F8
C0
C0
40
63
1E
ENDCHAR
STARTCHAR 0455
ENCODING 1109
SWIDTH 405 0
DWIDTH 9 0
BBX 7 11 1 0
BITMAP
7A
86
82
C0
F0
7C
1E
06
82
C2
BC
ENDCHAR
STARTCHAR 0456
ENCODING 1110
SWIDTH 270 0
DWIDTH 6 0
BBX 4 16 1 0
BITMAP
60
60
00
00
00
60
E0
60
60
60
60
60
60
60
60
F0
ENDCHAR
STARTCHAR 0457
ENCODING 1111
SWIDTH 270 0
DWIDTH 6 0
BBX 5 15 1 0
BITMAP
D8
D8
00
00
60
E0
60
60
60
60
60
60
60
60
F0
ENDCHAR
STARTCHAR 0458
ENCODING 1112
SWIDTH 270 0
DWIDTH 6 0
BBX 6 21 -2 -5
BITMAP
0C
0C
00
00
00
0C
1C
0C
0C
0C
0C
0C
0C
0C
0C
0C
0C
0C
0C
C8
F0
ENDCHAR
STARTCHAR 0459
ENCODING 1113
SWIDTH 720 0
DWIDTH 16 0
BBX 15 11 0 0
BITMAP
1FE0
08C0
08C0
08C0
08C0
08FC
08C6
08C6
08C6
C8C6
F1FC
ENDCHAR
STARTCHAR 045A
ENCODING 1114
SWIDTH 720 0
DWIDTH 16 0
BBX 14 11 1 0
BITMAP
F3C0
6180
6180
6180
6180
7FF8
618C
618C
618C
618C
F3F8
ENDCHAR
STARTCHAR 045B
ENCODING 1115
SWIDTH 450 0
DWIDTH 10 0
BBX 11 16 -1 0
BITMAP
F000
3000
FF80
3000
3000
3380
3CC0
30C0
30C0
30C0
30C0
30C0
30C0
30C0
30C0
79E0
ENDCHAR
STARTCHAR 045C
ENCODING 1116
SWIDTH 495 0
DWIDTH 11 0
BBX 10 16 1 0
BITMAP
0600
0400
0800
0800
0000
F380
6380
6400
6400
7800
6C00
6C00
6600
6600
6300
F3C0
ENDCHAR
STARTCHAR 045E
ENCODING 1118
SWIDTH 495 0
DWIDTH 11 0
BBX 11 20 0 -5
BITMAP
18C0
18C0
0F80
0000
F8E0
7040
3080
1880
1880
0D00
0D00
0D00
0600
0600
0200
0400
0400
0800
6800
7000
ENDCHAR
STARTCHAR 045F
ENCODING 1119
SWIDTH 540 0
DWIDTH 12 0
BBX 10 14 1 -3
BITMAP
F3C0
6180
6180
6180
6180
6180
6180
6180
6180
6180
FFC0
0E00
0400
0400
ENDCHAR
STARTCHAR 0490
ENCODING 1168
SWIDTH 450 0
DWIDTH 10 0
BBX 10 18 0 0
BITMAP
0040
0040
00C0
FFC0
3000
3000
3000
3000
3000
3000
3000
3000
3000
3000
3000
3000
3000
FC00
ENDCHAR
STARTCHAR 0491
ENCODING 1169
SWIDTH 360 0
DWIDTH 8 0
BBX 7 13 1 0
BITMAP
02
02
FE
60
60
60
60
60
60
60
60
60
F0
ENDCHAR
STARTCHAR 0492
ENCODING 1170
SWIDTH 585 0
DWIDTH 13 0
BBX 12 15 0 0
BITMAP
FFF0
3030
3010
3000
3000
3000
FF00
3000
3000
3000
3000
3000
3000
3000
FC00
ENDCHAR
STARTCHAR 0493
ENCODING 1171
SWIDTH 405 0
DWIDTH 9 0
BBX 8 11 1 0
BITMAP
FE
63
61
60
60
F8
60
60
60
60
F0
ENDCHAR
STARTCHAR 0496
ENCODING 1174
SWIDTH 900 0
DWIDTH 20 0
BBX 18 19 1 -4
BITMAP
E3F1C0
D0C2C0
10C400
08C400
08C400
08C800
04C800
03F000
06D800
0CCC00
0CCC00
18C600
18C600
70C300
F3F3C0
0000C0
000040
000040
000040
ENDCHAR
STARTCHAR 0497
ENCODING 1175
SWIDTH 675 0
DWIDTH 15 0
BBX 14 14 1 -3
BITMAP
E79C
E31C
1320
1320
0B40
0FC0
3B60
3330
3330
6318
E79C
0004
0004
0004
ENDCHAR
STARTCHAR 049A
ENCODING 1178
SWIDTH 675 0
DWIDTH 15 0
BBX 15 19 0 -4
BITMAP
FC38
3058
3080
3080
3100
3100
3200
3E00
3300
3300
3180
30C0
30E0
3070
FC3C
000E
0006
0002
0002
ENDCHAR
STARTCHAR 049B
ENCODING 1179
SWIDTH 495 0
DWIDTH 11 0
BBX 10 14 1 -3
BITMAP
F380
6380
6400
6400
7800
6C00
6C00
6600
6600
6300
F3C0
00C0
0040
0040
ENDCHAR
STARTCHAR 049C
ENCODING 1180
SWIDTH 675 0
DWIDTH 15 0
BBX 14 15 0 0
BITMAP
FC38
3058
3080
3480
3500
3500
3600
3E00
3600
3700
3580
34C0
30C0
3070
FC3C
ENDCHAR
STARTCHAR 049D
ENCODING 1181
SWIDTH 495 0
DWIDTH 11 0
BBX 10 11 1 0
BITMAP
F180
6B80
6C00
6C00
7800
6C00
6E00
6E00
6B00
6300
F3C0
ENDCHAR
STARTCHAR 04A2
ENCODING 1186
SWIDTH 675 0
DWIDTH 15 0
BBX 15 19 0 -4
BITMAP
FC7E
3018
3018
3018
3018
3018
3018
3FF8
3018
3018
3018
3018
3018
3018
FC7C
000E
0006
0002
0002
ENDCHAR
STARTCHAR 04A3
ENCODING 1187
SWIDTH 540 0
DWIDTH 12 0
BBX 10 14 1 -3
BITMAP
F3C0
6180
6180
6180
6180
7F80
6180
6180
6180
6180
F380
00C0
0040
0040
ENDCHAR
STARTCHAR 04AE
ENCODING 1198
SWIDTH 720 0
DWIDTH 16 0
BBX 16 15 0 0
BITMAP
FE1F
380C
1808
0C10
0620
0620
0340
0340
0180
0180
0180
0180
0180
0180
07E0
ENDCHAR
STARTCHAR 04AF
ENCODING 1199
SWIDTH 495 0
DWIDTH 11 0
BBX 11 16 0 -5
BITMAP
F9E0
7040
3080
3080
1880
1900
0D00
0D00
0E00
0600
0600
0600
0600
0600
0600
1F80
ENDCHAR
STARTCHAR 04B0
ENCODING 1200
SWIDTH 720 0
DWIDTH 16 0
BBX 16 15 0 0
BITMAP
FE1F
380C
1808
0C10
0620
0620
0340
0340
0180
1FF8
0180
0180
0180
0180
07E0
ENDCHAR
STARTCHAR 04B1
ENCODING 1201
SWIDTH 495 0
DWIDTH 11 0
BBX 11 16 0 -5
BITMAP
F9E0
7040
3080
3080
1880
1900
0D00
0D00
0E00
0600
FFE0
0600
0600
0600
0600
1F80
ENDCHAR
STARTCHAR 04B2
ENCODING 1202
SWIDTH 675 0
DWIDTH 15 0
BBX 16 19 0 -4
BITMAP
FE3E
380C
1808
0C10
0620
0640
0380
0180
01C0
02C0
0460
0830
1018
301C
F83E
0007
0003
0001
0001
ENDCHAR
STARTCHAR 04B3
ENCODING 1203
SWIDTH 450 0
DWIDTH 10 0
BBX 10 14 0 -3
BITMAP
F3C0
6100
3100
1A00
1C00
0C00
1600
1300
2300
4180
E3C0
00C0
0040
0040
ENDCHAR
STARTCHAR 04B8
ENCODING 1208
SWIDTH 630 0
DWIDTH 14 0
BBX 14 15 0 0
BITMAP
FCFC
3030
3030
3130
3130
3130
3130
1970
0FB0
0130
0130
0130
0030
0030
00FC
ENDCHAR
STARTCHAR 04B9
ENCODING 1209
SWIDTH 495 0
DWIDTH 11 0
BBX 10 11 0 0
BITMAP
F3C0
6180
6180
6980
6980
6B80
7D80
0980
0980
0180
03C0
ENDCHAR
STARTCHAR 04BA
ENCODING 1210
SWIDTH 630 0
DWIDTH 14 0
BBX 14 15 0 0
BITMAP
FC00
3000
3000
3000
3000
3000
37E0
3860
3030
3030
3030
3030
3030
3030
FCFC
ENDCHAR
STARTCHAR 04BB
ENCODING 1211
SWIDTH 450 0
DWIDTH 10 0
BBX 10 16 0 0
BITMAP
6000
E000
6000
6000
6000
6700
7980
6180
6180
6180
6180
6180
6180
6180
6180
F3C0
ENDCHAR
STARTCHAR 04D8
ENCODING 1240
SWIDTH 720 0
DWIDTH 16 0
BBX 14 15 1 0
BITMAP
4F80
7860
6030
6018
4008
000C
000C
FFFC
C00C
C00C
C008
6018
3030
1860
0FC0
ENDCHAR
STARTCHAR 04D9
ENCODING 1241
SWIDTH 450 0
DWIDTH 10 0
BBX 8 11 1 0
BITMAP
3C
7E
C6
87
03
03
03
FF
C2
66
3C
ENDCHAR
STARTCHAR 04E8
ENCODING 1256
SWIDTH 720 0
DWIDTH 16 0
BBX 14 15 1 0
BITMAP
0FC0
1860
2010
6018
4008
C00C
C00C
FFFC
C00C
C00C
4008
6018
2010
1860
0FC0
ENDCHAR
STARTCHAR 04E9
ENCODING 1257
SWIDTH 495 0
DWIDTH 11 0
BBX 9 11 1 0
BITMAP
1C00
6300
4300
C180
C180
FF80
C180
C180
6100
6300
1C00
ENDCHAR
STARTCHAR 05B0
ENCODING 1456
SWIDTH 315 0
DWIDTH 7 0
BBX 1 3 3 -5
BITMAP
80
00
80
ENDCHAR
STARTCHAR 05B1
ENCODING 1457
SWIDTH 315 0
DWIDTH 7 0
BBX 5 3 1 -5
BITMAP
A8
00
48
ENDCHAR
STARTCHAR 05B2
ENCODING 1458
SWIDTH 315 0
DWIDTH 7 0
BBX 6 3 1 -5
BITMAP
F4
00
04
ENDCHAR
STARTCHAR 05B3
ENCODING 1459
SWIDTH 315 0
DWIDTH 7 0
BBX 7 3 0 -5
BITMAP
F2
40
42
ENDCHAR
STARTCHAR 05B4
ENCODING 1460
SWIDTH 315 0
DWIDTH 7 0
BBX 1 1 3 -3
BITMAP
80
ENDCHAR
STARTCHAR 05B5
ENCODING 1461
SWIDTH 315 0
DWIDTH 7 0
BBX 3 1 2 -3
BITMAP
A0
ENDCHAR
STARTCHAR 05B6
ENCODING 1462
SWIDTH 315 0
DWIDTH 7 0
BBX 3 3 2 -5
BITMAP
A0
00
40
ENDCHAR
STARTCHAR 05B7
ENCODING 1463
SWIDTH 315 0
DWIDTH 7 0
BBX 4 1 2 -3
BITMAP
F0
ENDCHAR
STARTCHAR 05B8
ENCODING 1464
SWIDTH 315 0
DWIDTH 7 0
BBX 4 3 2 -5
BITMAP
F0
40
40
ENDCHAR
STARTCHAR 05B9
ENCODING 1465
SWIDTH 315 0
DWIDTH 7 0
BBX 1 1 3 14
BITMAP
80
ENDCHAR
STARTCHAR 05BA
ENCODING 1466
SWIDTH 315 0
DWIDTH 7 0
BBX 1 1 3 14
BITMAP
80
ENDCHAR
STARTCHAR 05BB
ENCODING 1467
SWIDTH 315 0
DWIDTH 7 0
BBX 5 3 1 -5
BITMAP
80
20
08
ENDCHAR
STARTCHAR 05BC
ENCODING 1468
SWIDTH 315 0
DWIDTH 7 0
BBX 1 1 3 5
BITMAP
80
ENDCHAR
STARTCHAR 05BD
ENCODING 1469
SWIDTH 315 0
DWIDTH 7 0
BBX 1 4 3 -5
BITMAP
80
80
80
80
ENDCHAR
STARTCHAR 05BE
ENCODING 1470
SWIDTH 360 0
DWIDTH 8 0
BBX 6 2 1 9
BITMAP
FC
FC
ENDCHAR
STARTCHAR 05BF
ENCODING 1471
SWIDTH 315 0
DWIDTH 7 0
BBX 4 1 2 13
BITMAP
F0
ENDCHAR
STARTCHAR 05C0
ENCODING 1472
SWIDTH 270 0
DWIDTH 6 0
BBX 1 13 2 -1
BITMAP
80
80
80
80
80
80
80
80
80
80
80
80
80
ENDCHAR
STARTCHAR 05C1
ENCODING 1473
SWIDTH 360 0
DWIDTH 8 0
BBX 1 1 7 14
BITMAP
80
ENDCHAR
STARTCHAR 05C2
ENCODING 1474
SWIDTH 360 0
DWIDTH 8 0
BBX 1 1 -1 14
BITMAP
80
ENDCHAR
STARTCHAR 05C3
ENCODING 1475
SWIDTH 270 0
DWIDTH 6 0
BBX 2 11 2 0
BITMAP
C0
C0
00
00
00
00
00
00
00
C0
C0
ENDCHAR
STARTCHAR 05D0
ENCODING 1488
SWIDTH 495 0
DWIDTH 11 0
BBX 9 12 1 0
BITMAP
8400
8780
C780
6200
3200
3C00
5C00
8E00
C700
4380
6180
E080
ENDCHAR
STARTCHAR 05D1
ENCODING 1489
SWIDTH 450 0
DWIDTH 10 0
BBX 9 12 1 0
BITMAP
8000
FE00
FF00
0100
0100
0100
0100
0100
0100
0200
FF80
FF80
ENDCHAR
STARTCHAR 05D2
ENCODING 1490
SWIDTH 315 0
DWIDTH 7 0
BBX 7 12 0 0
BITMAP
40
78
78
08
08
08
08
0C
14
26
E6
E2
ENDCHAR
STARTCHAR 05D3
ENCODING 1491
SWIDTH 405 0
DWIDTH 9 0
BBX 7 12 1 0
BITMAP
80
FE
FE
04
08
08
08
08
08
08
08
08
ENDCHAR
STARTCHAR 05D4
ENCODING 1492
SWIDTH 450 0
DWIDTH 10 0
BBX 8 12 1 0
BITMAP
80
FF
FF
01
02
02
02
82
82
82
82
82
ENDCHAR
STARTCHAR 05D5
ENCODING 1493
SWIDTH 270 0
DWIDTH 6 0
BBX 4 12 1 0
BITMAP
80
E0
F0
10
10
10
10
10
10
10
10
10
ENDCHAR
STARTCHAR 05D6
ENCODING 1494
SWIDTH 270 0
DWIDTH 6 0
BBX 4 12 1 0
BITMAP
80
F0
F0
40
40
40
40
40
40
40
40
40
ENDCHAR
STARTCHAR 05D7
ENCODING 1495
SWIDTH 450 0
DWIDTH 10 0
BBX 8 12 1 0
BITMAP
80
FF
FF
81
82
82
82
82
82
82
82
82
ENDCHAR
STARTCHAR 05D8
ENCODING 1496
SWIDTH 450 0
DWIDTH 10 0
BBX 8 12 1 0
BITMAP
80
E6
E7
49
49
41
41
41
61
22
3E
3E
ENDCHAR
STARTCHAR 05D9
ENCODING 1497
SWIDTH 270 0
DWIDTH 6 0
BBX 4 7 1 5
BITMAP
80
F0
F0
10
10
10
20
ENDCHAR
STARTCHAR 05DA
ENCODING 1498
SWIDTH 450 0
DWIDTH 10 0
BBX 8 16 1 -4
BITMAP
80
FF
FF
01
01
01
01
01
01
01
01
01
01
01
01
01
ENDCHAR
STARTCHAR 05DB
ENCODING 1499
SWIDTH 450 0
DWIDTH 10 0
BBX 8 12 1 0
BITMAP
80
FC
FE
03
01
01
01
01
01
03
7E
FC
ENDCHAR
STARTCHAR 05DC
ENCODING 1500
SWIDTH 450 0
DWIDTH 10 0
BBX 9 16 0 0
BITMAP
8000
C000
4000
4000
4000
7F00
7F80
0080
0080
0080
0100
0200
0400
0800
0800
0800
ENDCHAR
STARTCHAR 05DD
ENCODING 1501
SWIDTH 495 0
DWIDTH 11 0
BBX 9 12 1 0
BITMAP
8000
FF00
FF80
2180
4080
8080
8080
8080
8080
8080
FF80
FF80
ENDCHAR
STARTCHAR 05DE
ENCODING 1502
SWIDTH 495 0
DWIDTH 11 0
BBX 9 12 1 0
BITMAP
8000
E600
EF00
3100
2080
4080
4080
8080
8080
8080
8F00
9F00
ENDCHAR
STARTCHAR 05DF
ENCODING 1503
SWIDTH 270 0
DWIDTH 6 0
BBX 4 16 1 -4
BITMAP
80
F0
F0
10
10
10
10
10
10
10
10
10
10
10
10
10
ENDCHAR
STARTCHAR 05E0
ENCODING 1504
SWIDTH 315 0
DWIDTH 7 0
BBX 6 12 0 0
BITMAP
40
7C
3C
04
04
04
04
04
04
04
FC
FC
ENDCHAR
STARTCHAR 05E1
ENCODING 1505
SWIDTH 450 0
DWIDTH 10 0
BBX 8 12 1 0
BITMAP
80
FC
FE
43
81
81
81
81
81
C3
7E
3C
ENDCHAR
STARTCHAR 05E2
ENCODING 1506
SWIDTH 450 0
DWIDTH 10 0
BBX 8 12 1 0
BITMAP
84
E7
E7
41
42
62
32
14
14
14
FC
F0
ENDCHAR
STARTCHAR 05E3
ENCODING 1507
SWIDTH 450 0
DWIDTH 10 0
BBX 8 16 1 -4
BITMAP
80
FE
FE
43
81
81
E1
E1
01
01
01
01
01
01
01
01
ENDCHAR
STARTCHAR 05E4
ENCODING 1508
SWIDTH 450 0
DWIDTH 10 0
BBX 8 12 1 0
BITMAP
80
FC
FE
83
81
E1
E1
01
01
03
FE
FC
ENDCHAR
STARTCHAR 05E5
ENCODING 1509
SWIDTH 495 0
DWIDTH 11 0
BBX 9 16 1 -4
BITMAP
8400
F780
7380
1100
1600
2800
3000
3000
2000
2000
2000
2000
2000
2000
2000
2000
ENDCHAR
STARTCHAR 05E6
ENCODING 1510
SWIDTH 450 0
DWIDTH 10 0
BBX 8 12 1 0
BITMAP
84
E7
E7
22
24
24
34
1C
06
03
FF
FF
ENDCHAR
STARTCHAR 05E7
ENCODING 1511
SWIDTH 450 0
DWIDTH 10 0
BBX 8 16 1 -4
BITMAP
80
FE
FF
01
01
81
81
82
8C
90
90
90
80
80
80
80
ENDCHAR
STARTCHAR 05E8
ENCODING 1512
SWIDTH 450 0
DWIDTH 10 0
BBX 8 12 1 0
BITMAP
80
FE
FF
03
01
01
01
01
01
01
01
01
ENDCHAR
STARTCHAR 05E9
ENCODING 1513
SWIDTH 585 0
DWIDTH 13 0
BBX 11 12 1 0
BITMAP
8880
EEE0
EEE0
4420
4440
4440
4480
4880
6880
2980
3F00
3F00
ENDCHAR
STARTCHAR 05EA
ENCODING 1514
SWIDTH 495 0
DWIDTH 11 0
BBX 10 12 0 0
BITMAP
4000
7F80
7FC0
10C0
2040
2040
2040
2040
2040
3040
F040
F040
ENDCHAR
STARTCHAR 05F0
ENCODING 1520
SWIDTH 540 0
DWIDTH 12 0
BBX 10 12 1 0
BITMAP
8200
E380
F3C0
1040
1040
1040
1040
1040
1040
1040
1040
1040
ENDCHAR
STARTCHAR 05F1
ENCODING 1521
SWIDTH 540 0
DWIDTH 12 0
BBX 10 12 1 0
BITMAP
8200
F380
F3C0
1040
1040
1040
2040
0040
0040
0040
0040
0040
ENDCHAR
STARTCHAR 05F2
ENCODING 1522
SWIDTH 540 0
DWIDTH 12 0
BBX 10 7 1 5
BITMAP
8200
F3C0
F3C0
1040
1040
1040
2080
ENDCHAR
STARTCHAR 05F3
ENCODING 1523
SWIDTH 225 0
DWIDTH 5 0
BBX 2 5 1 6
BITMAP
C0
C0
C0
80
80
ENDCHAR
STARTCHAR 05F4
ENCODING 1524
SWIDTH 360 0
DWIDTH 8 0
BBX 6 5 1 6
BITMAP
CC
CC
CC
88
88
ENDCHAR
STARTCHAR 060C
ENCODING 1548
SWIDTH 315 0
DWIDTH 7 0
BBX 3 7 2 3
BITMAP
40
40
80
80
E0
E0
60
ENDCHAR
STARTCHAR 061B
ENCODING 1563
SWIDTH 315 0
DWIDTH 7 0
BBX 4 11 2 3
BITMAP
40
40
80
80
E0
E0
60
00
70
70
70
ENDCHAR
STARTCHAR 061F
ENCODING 1567
SWIDTH 360 0
DWIDTH 8 0
BBX 7 13 1 3
BITMAP
3C
46
CE
CE
E0
70
30
10
10
00
38
38
38
ENDCHAR
STARTCHAR 0621
ENCODING 1569
SWIDTH 405 0
DWIDTH 9 0
BBX 7 7 1 2
BITMAP
30
78
90
C6
FC
78
60
ENDCHAR
STARTCHAR 0622
ENCODING 1570
SWIDTH 225 0
DWIDTH 5 0
BBX 4 16 1 3
BITMAP
D0
B0
00
20
20
20
20
20
20
20
20
20
20
20
20
20
ENDCHAR
STARTCHAR 0623
ENCODING 1571
SWIDTH 225 0
DWIDTH 5 0
BBX 3 16 2 3
BITMAP
60
80
60
80
00
40
40
40
40
40
40
40
40
40
40
40
ENDCHAR
STARTCHAR 0624
ENCODING 1572
SWIDTH 450 0
DWIDTH 10 0
BBX 9 17 1 -2
BITMAP
0C00
1000
0C00
1000
0000
0000
0300
0780
0480
0480
0780
0380
0080
0100
0300
8600
7C00
ENDCHAR
STARTCHAR 0625
ENCODING 1573
SWIDTH 225 0
DWIDTH 5 0
BBX 3 18 1 -2
BITMAP
20
20
20
20
20
20
20
20
20
20
20
20
20
00
60
80
60
80
ENDCHAR
STARTCHAR 0626
ENCODING 1574
SWIDTH 630 0
DWIDTH 14 0
BBX 13 13 1 -1
BITMAP
6000
8000
6038
8078
00C8
4080
8100
81F0
81F0
8010
C0E0
FFC0
7F00
ENDCHAR
STARTCHAR 0627
ENCODING 1575
SWIDTH 225 0
DWIDTH 5 0
BBX 1 13 3 3
BITMAP
80
80
80
80
80
80
80
80
80
80
80
80
80
ENDCHAR
STARTCHAR 0628
ENCODING 1576
SWIDTH 720 0
DWIDTH 16 0
BBX 15 12 1 -2
BITMAP
4004
8006
8006
8002
E002
7FFE
3FFE
0000
0000
0100
0380
0100
ENDCHAR
STARTCHAR 0629
ENCODING 1577
SWIDTH 270 0
DWIDTH 6 0
BBX 6 12 0 3
BITMAP
08
5C
E8
40
00
20
38
3C
44
44
7C
78
ENDCHAR
STARTCHAR 062A
ENCODING 1578
SWIDTH 720 0
DWIDTH 16 0
BBX 15 11 1 3
BITMAP
0080
05C0
0E80
0400
4004
8006
8006
8002
E002
7FFE
3FFE
ENDCHAR
STARTCHAR 062B
ENCODING 1579
SWIDTH 720 0
DWIDTH 16 0
BBX 15 13 1 3
BITMAP
0400
0E00
0480
05C0
0E80
0400
4004
8006
8006
8002
E002
7FFE
3FFE
ENDCHAR
STARTCHAR 062C
ENCODING 1580
SWIDTH 540 0
DWIDTH 12 0
BBX 9 14 1 -5
BITMAP
7F80
FF80
0E00
3000
4000
4000
8400
8E00
8400
8000
C000
7000
7F80
1F00
ENDCHAR
STARTCHAR 062D
ENCODING 1581
SWIDTH 540 0
DWIDTH 12 0
BBX 9 14 1 -5
BITMAP
7F80
FF80
0E00
3000
4000
4000
8000
8000
8000
8000
C000
7000
7F80
1F00
ENDCHAR
STARTCHAR 062E
ENCODING 1582
SWIDTH 540 0
DWIDTH 12 0
BBX 9 19 1 -5
BITMAP
0800
1C00
0800
0000
0000
7F80
FF80
0E00
3000
4000
4000
8000
8000
8000
8000
C000
7000
7F80
1F00
ENDCHAR
STARTCHAR 062F
ENCODING 1583
SWIDTH 315 0
DWIDTH 7 0
BBX 6 9 1 3
BITMAP
10
18
08
0C
04
04
84
FC
FC
ENDCHAR
STARTCHAR 0630
ENCODING 1584
SWIDTH 315 0
DWIDTH 7 0
BBX 6 14 1 3
BITMAP
20
70
20
00
00
10
18
08
0C
04
04
84
FC
FC
ENDCHAR
STARTCHAR 0631
ENCODING 1585
SWIDTH 495 0
DWIDTH 11 0
BBX 10 11 1 -2
BITMAP
0100
0180
00C0
00C0
0040
0040
0040
00C0
0180
8700
7C00
ENDCHAR
STARTCHAR 0632
ENCODING 1586
SWIDTH 495 0
DWIDTH 11 0
BBX 10 16 1 -2
BITMAP
0200
0700
0200
0000
0000
0100
0180
00C0
00C0
0040
0040
0040
00C0
0180
8700
7C00
ENDCHAR
STARTCHAR 0633
ENCODING 1587
SWIDTH 810 0
DWIDTH 18 0
BBX 17 11 1 -2
BITMAP
008100
00C580
40C480
404480
807F80
807B80
804000
80C000
C18000
FF8000
3E0000
ENDCHAR
STARTCHAR 0634
ENCODING 1588
SWIDTH 810 0
DWIDTH 18 0
BBX 17 18 1 -2
BITMAP
001000
003800
001200
001700
003A00
001000
000000
008100
00C580
40C480
404480
807F80
807B80
804000
80C000
C18000
FF8000
3E0000
ENDCHAR
STARTCHAR 0635
ENCODING 1589
SWIDTH 1080 0
DWIDTH 24 0
BBX 23 11 1 -2
BITMAP
00803C
00C0FE
40C186
404606
807FFE
807FFE
804000
80C000
C18000
FF8000
3E0000
ENDCHAR
STARTCHAR 0636
ENCODING 1590
SWIDTH 1080 0
DWIDTH 24 0
BBX 23 15 1 -2
BITMAP
000200
000700
000200
000000
00803C
00C0FE
40C186
404606
807FFE
807FFE
804000
80C000
C18000
FF8000
3E0000
ENDCHAR
STARTCHAR 0637
ENCODING 1591
SWIDTH 585 0
DWIDTH 13 0
BBX 14 14 -1 3
BITMAP
1000
1C00
0C00
0800
0800
0400
0400
0400
0478
05FC
060C
080C
FFFC
FFFC
ENDCHAR
STARTCHAR 0638
ENCODING 1592
SWIDTH 585 0
DWIDTH 13 0
BBX 14 14 -1 3
BITMAP
1000
1C00
0C40
08E0
0840
0400
0400
0400
0478
05FC
060C
080C
FFFC
FFFC
ENDCHAR
STARTCHAR 0639
ENCODING 1593
SWIDTH 540 0
DWIDTH 12 0
BBX 11 18 0 -5
BITMAP
3800
7E00
E000
8000
80C0
E3C0
7F00
3C00
3000
4000
4000
8000
8000
8000
C000
7000
3FE0
0FC0
ENDCHAR
STARTCHAR 063A
ENCODING 1594
SWIDTH 540 0
DWIDTH 12 0
BBX 11 23 0 -5
BITMAP
1000
3800
1000
0000
0000
3800
7E00
E000
8000
80C0
E3C0
7F00
3C00
3000
4000
4000
8000
8000
8000
C000
7000
3FE0
0FC0
ENDCHAR
STARTCHAR 0640
ENCODING 1600
SWIDTH 225 0
DWIDTH 5 0
BBX 6 2 -1 3
BITMAP
FC
FC
ENDCHAR
STARTCHAR 0641
ENCODING 1601
SWIDTH 765 0
DWIDTH 17 0
BBX 17 12 0 3
BITMAP
000400
000E00
000400
000000
000000
400300
800780
800480
800480
E00380
7FFF80
1FFF80
ENDCHAR
STARTCHAR 0642
ENCODING 1602
SWIDTH 585 0
DWIDTH 13 0
BBX 12 18 1 -2
BITMAP
0040
02E0
0740
0200
0000
0000
00E0
00E0
0130
4130
41F0
80F0
8010
8010
8030
C0F0
7FE0
3F80
ENDCHAR
STARTCHAR 0643
ENCODING 1603
SWIDTH 585 0
DWIDTH 13 0
BBX 13 14 0 3
BITMAP
0030
0038
0018
0110
0210
0410
0790
0088
4188
8F08
8008
C008
FFF8
7FF8
ENDCHAR
STARTCHAR 0644
ENCODING 1604
SWIDTH 495 0
DWIDTH 11 0
BBX 10 17 1 0
BITMAP
0080
00C0
00C0
0080
0080
0080
0080
0040
2040
4040
8040
8040
8040
8040
C1C0
FF80
3F00
ENDCHAR
STARTCHAR 0645
ENCODING 1605
SWIDTH 315 0
DWIDTH 7 0
BBX 7 13 0 -5
BITMAP
38
7C
0E
3E
7E
C0
80
80
80
40
40
40
40
ENDCHAR
STARTCHAR 0646
ENCODING 1606
SWIDTH 540 0
DWIDTH 12 0
BBX 11 15 1 -2
BITMAP
0400
0E00
0400
0000
0040
0060
4060
4020
8020
8020
8020
8060
C0E0
7FC0
3F00
ENDCHAR
STARTCHAR 0647
ENCODING 1607
SWIDTH 270 0
DWIDTH 6 0
BBX 5 7 1 3
BITMAP
40
70
78
88
88
F8
F0
ENDCHAR
STARTCHAR 0648
ENCODING 1608
SWIDTH 450 0
DWIDTH 10 0
BBX 9 11 1 -2
BITMAP
0300
0780
0480
0480
0780
0380
0080
0100
0300
8600
7C00
ENDCHAR
STARTCHAR 0649
ENCODING 1609
SWIDTH 630 0
DWIDTH 14 0
BBX 13 11 1 -1
BITMAP
0038
0078
00C8
4080
8100
81F0
81F0
8010
C0E0
FFC0
7F00
ENDCHAR
STARTCHAR 064A
ENCODING 1610
SWIDTH 630 0
DWIDTH 14 0
BBX 13 15 1 -5
BITMAP
0038
0078
00C8
4080
8100
81F0
81F0
8010
C0E0
FFC0
7F00
0100
0B80
1D00
0800
ENDCHAR
STARTCHAR 064B
ENCODING 1611
SWIDTH 180 0
DWIDTH 4 0
BBX 4 4 1 13
BITMAP
30
C0
30
C0
ENDCHAR
STARTCHAR 064C
ENCODING 1612
SWIDTH 225 0
DWIDTH 5 0
BBX 6 5 0 13
BITMAP
0C
14
DC
54
60
ENDCHAR
STARTCHAR 064D
ENCODING 1613
SWIDTH 180 0
DWIDTH 4 0
BBX 4 4 1 -3
BITMAP
30
C0
30
C0
ENDCHAR
STARTCHAR 064E
ENCODING 1614
SWIDTH 180 0
DWIDTH 4 0
BBX 4 2 1 13
BITMAP
30
C0
ENDCHAR
STARTCHAR 064F
ENCODING 1615
SWIDTH 225 0
DWIDTH 5 0
BBX 4 5 1 13
BITMAP
30
50
70
30
C0
ENDCHAR
STARTCHAR 0650
ENCODING 1616
SWIDTH 180 0
DWIDTH 4 0
BBX 4 2 1 0
BITMAP
30
C0
ENDCHAR
STARTCHAR 0651
ENCODING 1617
SWIDTH 225 0
DWIDTH 5 0
BBX 5 3 0 13
BITMAP
28
B8
C0
ENDCHAR
STARTCHAR 0652
ENCODING 1618
SWIDTH 180 0
DWIDTH 4 0
BBX 4 3 0 13
BITMAP
70
90
E0
ENDCHAR
STARTCHAR 0653
ENCODING 1619
SWIDTH 225 0
DWIDTH 5 0
BBX 4 2 0 15
BITMAP
C0
30
ENDCHAR
STARTCHAR 0654
ENCODING 1620
SWIDTH 225 0
DWIDTH 5 0
BBX 3 4 1 15
BITMAP
60
80
60
80
ENDCHAR
STARTCHAR 0655
ENCODING 1621
SWIDTH 225 0
DWIDTH 5 0
BBX 3 4 1 -2
BITMAP
60
80
60
80
ENDCHAR
STARTCHAR 0660
ENCODING 1632
SWIDTH 540 0
DWIDTH 12 0
BBX 4 5 4 5
BITMAP
40
60
F0
E0
20
ENDCHAR
STARTCHAR 0661
ENCODING 1633
SWIDTH 540 0
DWIDTH 12 0
BBX 3 13 4 3
BITMAP
80
C0
C0
60
60
60
20
20
20
20
20
20
20
ENDCHAR
STARTCHAR 0662
ENCODING 1634
SWIDTH 540 0
DWIDTH 12 0
BBX 6 13 3 3
BITMAP
84
C4
FC
78
20
20
10
10
10
10
10
10
10
ENDCHAR
STARTCHAR 0663
ENCODING 1635
SWIDTH 540 0
DWIDTH 12 0
BBX 9 13 3 3
BITMAP
8880
8980
FF80
F700
4000
6000
6000
2000
2000
2000
2000
2000
2000
ENDCHAR
STARTCHAR 0664
ENCODING 1636
SWIDTH 540 0
DWIDTH 12 0
BBX 6 13 3 3
BITMAP
08
18
20
40
E0
F8
30
20
60
40
E0
FC
38
ENDCHAR
STARTCHAR 0665
ENCODING 1637
SWIDTH 540 0
DWIDTH 12 0
BBX 8 8 2 5
BITMAP
1C
3E
4F
83
81
C3
FE
7C
ENDCHAR
STARTCHAR 0666
ENCODING 1638
SWIDTH 540 0
DWIDTH 12 0
BBX 7 13 2 3
BITMAP
80
F8
F8
08
08
08
08
08
0C
0E
06
06
02
ENDCHAR
STARTCHAR 0667
ENCODING 1639
SWIDTH 540 0
DWIDTH 12 0
BBX 8 13 1 3
BITMAP
80
81
C1
C1
63
62
32
14
14
18
08
08
08
ENDCHAR
STARTCHAR 0668
ENCODING 1640
SWIDTH 540 0
DWIDTH 12 0
BBX 9 13 1 3
BITMAP
0800
0800
0800
0800
1400
2400
2600
2200
6300
C380
C180
8180
8080
ENDCHAR
STARTCHAR 0669
ENCODING 1641
SWIDTH 540 0
DWIDTH 12 0
BBX 6 13 3 3
BITMAP
30
78
88
88
F8
78
08
08
08
0C
0C
0C
04
ENDCHAR
STARTCHAR 066A
ENCODING 1642
SWIDTH 540 0
DWIDTH 12 0
BBX 10 15 1 2
BITMAP
E040
E080
E080
0100
0200
0200
0400
0400
0800
1000
1000
2000
21C0
41C0
81C0
ENDCHAR
STARTCHAR 066B
ENCODING 1643
SWIDTH 315 0
DWIDTH 7 0
BBX 3 5 2 1
BITMAP
E0
E0
E0
40
80
ENDCHAR
STARTCHAR 066C
ENCODING 1644
SWIDTH 315 0
DWIDTH 7 0
BBX 3 7 2 3
BITMAP
40
40
80
80
E0
E0
60
ENDCHAR
STARTCHAR 066D
ENCODING 1645
SWIDTH 540 0
DWIDTH 12 0
BBX 7 7 2 9
BITMAP
10
54
38
EE
38
54
10
ENDCHAR
STARTCHAR 066E
ENCODING 1646
SWIDTH 720 0
DWIDTH 16 0
BBX 15 7 1 3
BITMAP
4004
8006
8006
8002
E002
7FFE
3FFE
ENDCHAR
STARTCHAR 066F
ENCODING 1647
SWIDTH 585 0
DWIDTH 13 0
BBX 12 12 1 -2
BITMAP
00E0
00E0
0130
4130
41F0
80F0
8010
8010
8030
C0F0
7FE0
3F80
ENDCHAR
STARTCHAR 0670
ENCODING 1648
SWIDTH 0 0
DWIDTH 0 0
BBX 2 6 -1 11
BITMAP
80
80
C0
40
40
40
ENDCHAR
STARTCHAR 0671
ENCODING 1649
SWIDTH 225 0
DWIDTH 5 0
BBX 5 17 0 3
BITMAP
38
48
F0
80
10
10
10
10
10
10
10
10
10
10
10
10
10
ENDCHAR
STARTCHAR 0672
ENCODING 1650
SWIDTH 225 0
DWIDTH 5 0
BBX 4 17 1 3
BITMAP
30
40
30
C0
00
20
20
20
20
20
20
20
20
20
20
20
20
ENDCHAR
STARTCHAR 0673
ENCODING 1651
SWIDTH 225 0
DWIDTH 5 0
BBX 4 18 1 -2
BITMAP
20
20
20
20
20
20
20
20
20
20
20
20
20
00
30
40
30
C0
ENDCHAR
STARTCHAR 0674
ENCODING 1652
SWIDTH 225 0
DWIDTH 5 0
BBX 3 4 1 15
BITMAP
60
80
60
80
ENDCHAR
STARTCHAR 0675
ENCODING 1653
SWIDTH 225 0
DWIDTH 5 0
BBX 5 13 2 3
BITMAP
98
A0
98
A0
80
80
80
80
80
80
80
80
80
ENDCHAR
STARTCHAR 0676
ENCODING 1654
SWIDTH 450 0
DWIDTH 10 0
BBX 10 16 1 -2
BITMAP
00C0
0100
00C0
0100
0000
0300
0780
0480
0480
0780
0380
0080
0100
0300
8600
7C00
ENDCHAR
STARTCHAR 0677
ENCODING 1655
SWIDTH 450 0
DWIDTH 10 0
BBX 10 16 1 -2
BITMAP
0CC0
1500
1CC0
0D00
3000
0300
0780
0480
0480
0780
0380
0080
0100
0300
8600
7C00
ENDCHAR
STARTCHAR 0678
ENCODING 1656
SWIDTH 630 0
DWIDTH 14 0
BBX 14 16 1 -1
BITMAP
000C
0010
000C
0010
0000
0038
0078
00C8
4080
8100
81F0
81F0
8010
C0E0
FFC0
7F00
ENDCHAR
STARTCHAR 0679
ENCODING 1657
SWIDTH 720 0
DWIDTH 16 0
BBX 15 15 1 3
BITMAP
0200
0300
0200
0100
0160
01A0
07E0
0000
4004
8006
8006
8002
E002
7FFE
3FFE
ENDCHAR
STARTCHAR 067A
ENCODING 1658
SWIDTH 720 0
DWIDTH 16 0
BBX 15 14 1 3
BITMAP
0200
0700
0200
0100
0380
0100
0000
4004
8006
8006
8002
E002
7FFE
3FFE
ENDCHAR
STARTCHAR 067B
ENCODING 1659
SWIDTH 720 0
DWIDTH 16 0
BBX 15 14 1 -4
BITMAP
4004
8006
8006
8002
E002
7FFE
3FFE
0000
0100
0380
0100
0080
01C0
0080
ENDCHAR
STARTCHAR 067C
ENCODING 1660
SWIDTH 720 0
DWIDTH 16 0
BBX 15 13 1 1
BITMAP
0080
05C0
0E80
0400
4004
8006
8006
8002
E002
7FFE
3FFE
0240
0380
ENDCHAR
STARTCHAR 067D
ENCODING 1661
SWIDTH 720 0
DWIDTH 16 0
BBX 15 14 1 3
BITMAP
0100
0B80
1D00
0900
0380
0100
0000
4004
8006
8006
8002
E002
7FFE
3FFE
ENDCHAR
STARTCHAR 067E
ENCODING 1662
SWIDTH 720 0
DWIDTH 16 0
BBX 15 14 1 -4
BITMAP
4004
8006
8006
8002
E002
7FFE
3FFE
0000
0040
02E0
0740
0240
00E0
0040
ENDCHAR
STARTCHAR 067F
ENCODING 1663
SWIDTH 720 0
DWIDTH 16 0
BBX 15 14 1 3
BITMAP
0080
05C0
0E80
0440
02E0
0740
0200
4004
8006
8006
8002
E002
7FFE
3FFE
ENDCHAR
STARTCHAR 0680
ENCODING 1664
SWIDTH 720 0
DWIDTH 16 0
BBX 15 15 1 -5
BITMAP
4004
8006
8006
8002
E002
7FFE
3FFE
0000
0080
05C0
0E80
0440
02E0
0740
0200
ENDCHAR
STARTCHAR 0681
ENCODING 1665
SWIDTH 540 0
DWIDTH 12 0
BBX 9 20 1 -5
BITMAP
0C00
1000
0C00
1000
0000
0000
7F80
FF80
0E00
3000
4000
4000
8000
8000
8000
8000
C000
7000
7F80
1F00
ENDCHAR
STARTCHAR 0682
ENCODING 1666
SWIDTH 540 0
DWIDTH 12 0
BBX 9 22 1 -5
BITMAP
1000
3800
1000
0800
1C00
0800
0000
0000
7F80
FF80
0E00
3000
4000
4000
8000
8000
8000
8000
C000
7000
7F80
1F00
ENDCHAR
STARTCHAR 0683
ENCODING 1667
SWIDTH 540 0
DWIDTH 12 0
BBX 10 14 1 -5
BITMAP
7F80
FF80
0E00
3000
4000
4080
85C0
8E80
8400
8000
C000
7000
7F80
1F00
ENDCHAR
STARTCHAR 0684
ENCODING 1668
SWIDTH 540 0
DWIDTH 12 0
BBX 9 14 1 -5
BITMAP
7F80
FF80
0E00
3000
4400
4E00
8400
8200
8700
8200
C000
7000
7F80
1F00
ENDCHAR
STARTCHAR 0685
ENCODING 1669
SWIDTH 540 0
DWIDTH 12 0
BBX 9 22 1 -5
BITMAP
1000
3800
1200
1700
3A00
1000
0000
0000
7F80
FF80
0E00
3000
4000
4000
8000
8000
8000
8000
C000
7000
7F80
1F00
ENDCHAR
STARTCHAR 0686
ENCODING 1670
SWIDTH 540 0
DWIDTH 12 0
BBX 9 14 1 -5
BITMAP
7F80
FF80
0E00
3000
4000
4100
8B80
9D00
8900
8380
C100
7000
7F80
1F00
ENDCHAR
STARTCHAR 0687
ENCODING 1671
SWIDTH 540 0
DWIDTH 12 0
BBX 9 14 1 -5
BITMAP
7F80
FF80
0E00
3000
4200
5700
BA00
9100
8B80
9D00
C800
7000
7F80
1F00
ENDCHAR
STARTCHAR 0688
ENCODING 1672
SWIDTH 315 0
DWIDTH 7 0
BBX 6 17 1 3
BITMAP
40
60
40
20
2C
34
FC
00
10
18
08
0C
04
04
84
FC
FC
ENDCHAR
STARTCHAR 0689
ENCODING 1673
SWIDTH 315 0
DWIDTH 7 0
BBX 6 11 1 1
BITMAP
10
18
08
0C
04
04
84
FC
FC
48
70
ENDCHAR
STARTCHAR 068A
ENCODING 1674
SWIDTH 315 0
DWIDTH 7 0
BBX 6 13 1 -1
BITMAP
10
18
08
0C
04
04
84
FC
FC
00
10
38
10
ENDCHAR
STARTCHAR 068B
ENCODING 1675
SWIDTH 315 0
DWIDTH 7 0
BBX 6 21 1 -1
BITMAP
40
60
40
20
2C
34
FC
00
10
18
08
0C
04
04
84
FC
FC
00
10
38
10
ENDCHAR
STARTCHAR 068C
ENCODING 1676
SWIDTH 315 0
DWIDTH 7 0
BBX 6 14 1 3
BITMAP
08
5C
E8
40
00
10
18
08
0C
04
04
84
FC
FC
ENDCHAR
STARTCHAR 068D
ENCODING 1677
SWIDTH 315 0
DWIDTH 7 0
BBX 6 14 1 -2
BITMAP
10
18
08
0C
04
04
84
FC
FC
00
08
5C
E8
40
ENDCHAR
STARTCHAR 068E
ENCODING 1678
SWIDTH 315 0
DWIDTH 7 0
BBX 6 16 1 3
BITMAP
40
E0
48
5C
E8
40
00
10
18
08
0C
04
04
84
FC
FC
ENDCHAR
STARTCHAR 068F
ENCODING 1679
SWIDTH 315 0
DWIDTH 7 0
BBX 7 16 0 3
BITMAP
08
5C
E8
48
1C
08
00
08
0C
04
06
02
02
42
7E
7E
ENDCHAR
STARTCHAR 0690
ENCODING 1680
SWIDTH 315 0
DWIDTH 7 0
BBX 7 17 0 3
BITMAP
08
5C
E8
44
2E
74
20
00
08
0C
04
06
02
02
42
7E
7E
ENDCHAR
STARTCHAR 0691
ENCODING 1681
SWIDTH 495 0
DWIDTH 11 0
BBX 10 20 1 -2
BITMAP
0400
0600
0400
0200
02C0
0340
0FC0
0000
0000
0100
0180
00C0
00C0
0040
0040
0040
00C0
0180
8700
7C00
ENDCHAR
STARTCHAR 0692
ENCODING 1682
SWIDTH 495 0
DWIDTH 11 0
BBX 10 15 1 -2
BITMAP
0500
0200
0000
0000
0100
0180
00C0
00C0
0040
0040
0040
00C0
0180
8700
7C00
ENDCHAR
STARTCHAR 0693
ENCODING 1683
SWIDTH 495 0
DWIDTH 11 0
BBX 10 12 1 -3
BITMAP
0100
0180
00C0
00C0
0040
0040
0040
00C0
0180
87C0
7E40
0380
ENDCHAR
STARTCHAR 0694
ENCODING 1684
SWIDTH 495 0
DWIDTH 11 0
BBX 11 12 1 -3
BITMAP
0100
0180
00C0
00C0
0040
0040
0040
00C0
0180
8740
7CE0
0040
ENDCHAR
STARTCHAR 0695
ENCODING 1685
SWIDTH 495 0
DWIDTH 11 0
BBX 10 13 1 -4
BITMAP
0100
0180
00C0
00C0
0040
0040
0040
00C0
0180
8700
7C00
0140
0080
ENDCHAR
STARTCHAR 0696
ENCODING 1686
SWIDTH 495 0
DWIDTH 11 0
BBX 11 12 1 -3
BITMAP
0100
0180
00C0
00C0
1040
3840
1040
00C0
0180
8740
7CE0
0040
ENDCHAR
STARTCHAR 0697
ENCODING 1687
SWIDTH 495 0
DWIDTH 11 0
BBX 10 16 1 -2
BITMAP
0100
0B80
1D00
0800
0000
0100
0180
00C0
00C0
0040
0040
0040
00C0
0180
8700
7C00
ENDCHAR
STARTCHAR 0698
ENCODING 1688
SWIDTH 495 0
DWIDTH 11 0
BBX 10 18 1 -2
BITMAP
0400
0E00
0480
05C0
0E80
0400
0000
0100
0180
00C0
00C0
0040
0040
0040
00C0
0180
8700
7C00
ENDCHAR
STARTCHAR 0699
ENCODING 1689
SWIDTH 495 0
DWIDTH 11 0
BBX 10 19 1 -2
BITMAP
0200
1700
3A00
1100
0B80
1D00
0800
0000
0100
0180
00C0
00C0
0040
0040
0040
00C0
0180
8700
7C00
ENDCHAR
STARTCHAR 069A
ENCODING 1690
SWIDTH 810 0
DWIDTH 18 0
BBX 17 16 1 -2
BITMAP
000400
000E00
000400
000000
000000
008100
00C580
40C480
404480
807F80
807B80
804000
80C200
C18700
FF8200
3E0000
ENDCHAR
STARTCHAR 069B
ENCODING 1691
SWIDTH 810 0
DWIDTH 18 0
BBX 17 13 1 -4
BITMAP
008100
00C580
40C480
404480
807F80
807B80
804000
80C100
C18B80
FF9D00
3E0900
000380
000100
ENDCHAR
STARTCHAR 069C
ENCODING 1692
SWIDTH 810 0
DWIDTH 18 0
BBX 17 20 1 -4
BITMAP
001000
003800
001200
001700
003A00
001000
000000
008100
00C580
40C480
404480
807F80
807B80
804000
80C100
C18B80
FF9D00
3E0900
000380
000100
ENDCHAR
STARTCHAR 069D
ENCODING 1693
SWIDTH 1080 0
DWIDTH 24 0
BBX 23 11 1 -2
BITMAP
00803C
00C0FE
40C186
404606
807FFE
807FFE
804000
80C040
C182E0
FF8740
3E0200
ENDCHAR
STARTCHAR 069E
ENCODING 1694
SWIDTH 1080 0
DWIDTH 24 0
BBX 23 18 1 -2
BITMAP
000200
000700
000240
0002E0
000740
000200
000000
00803C
00C0FE
40C186
404606
807FFE
807FFE
804000
80C000
C18000
FF8000
3E0000
ENDCHAR
STARTCHAR 069F
ENCODING 1695
SWIDTH 585 0
DWIDTH 13 0
BBX 14 14 -1 3
BITMAP
1000
1C40
0CE0
0848
085C
04E8
0440
0400
0478
05FC
060C
080C
FFFC
FFFC
ENDCHAR
STARTCHAR 06A0
ENCODING 1696
SWIDTH 540 0
DWIDTH 12 0
BBX 11 25 0 -5
BITMAP
2000
7000
2400
2E00
7400
2000
0000
3800
7E00
E000
8000
80C0
E3C0
7F00
3C00
3000
4000
4000
8000
8000
8000
C000
7000
3FE0
0FC0
ENDCHAR
STARTCHAR 06A1
ENCODING 1697
SWIDTH 765 0
DWIDTH 17 0
BBX 17 7 0 3
BITMAP
400300
800780
800480
800480
E00380
7FFF80
1FFF80
ENDCHAR
STARTCHAR 06A2
ENCODING 1698
SWIDTH 765 0
DWIDTH 17 0
BBX 17 11 0 -1
BITMAP
400300
800780
800480
800480
E00380
7FFF80
1FFF80
000000
000200
000700
000200
ENDCHAR
STARTCHAR 06A3
ENCODING 1699
SWIDTH 765 0
DWIDTH 17 0
BBX 17 16 0 -1
BITMAP
000100
000380
000100
000000
000000
400300
800780
800480
800480
E00380
7FFF80
1FFF80
000000
008000
01C000
008000
ENDCHAR
STARTCHAR 06A4
ENCODING 1700
SWIDTH 765 0
DWIDTH 17 0
BBX 17 14 0 3
BITMAP
001000
003800
001200
001700
003A00
001000
000000
400300
800780
800480
800480
E00380
7FFF80
1FFF80
ENDCHAR
STARTCHAR 06A5
ENCODING 1701
SWIDTH 765 0
DWIDTH 17 0
BBX 18 14 0 -4
BITMAP
400300
800780
800480
800480
E00380
7FFF80
1FFF80
000000
000080
0005C0
000E80
000480
0001C0
000080
ENDCHAR
STARTCHAR 06A6
ENCODING 1702
SWIDTH 765 0
DWIDTH 17 0
BBX 18 14 0 3
BITMAP
000100
000B80
001D00
000880
0005C0
000E80
000400
400300
800780
800480
800480
E00380
7FFF80
1FFF80
ENDCHAR
STARTCHAR 06A7
ENCODING 1703
SWIDTH 585 0
DWIDTH 13 0
BBX 12 16 1 -2
BITMAP
0080
01C0
0080
0000
00E0
00E0
0130
4130
41F0
80F0
8010
8010
8030
C0F0
7FE0
3F80
ENDCHAR
STARTCHAR 06A8
ENCODING 1704
SWIDTH 585 0
DWIDTH 13 0
BBX 12 18 1 -2
BITMAP
0200
0700
0240
02E0
0740
0200
00E0
00E0
0130
4130
41F0
80F0
8010
8010
8030
C0F0
7FE0
3F80
ENDCHAR
STARTCHAR 06A9
ENCODING 1705
SWIDTH 810 0
DWIDTH 18 0
BBX 18 13 0 3
BITMAP
000080
000780
001E00
001000
002000
003800
003C00
401E00
800300
800180
C000C0
FFFFC0
7FFFC0
ENDCHAR
STARTCHAR 06AA
ENCODING 1706
SWIDTH 810 0
DWIDTH 18 0
BBX 18 12 0 3
BITMAP
004000
03C000
070000
080000
100000
1F0000
0FF800
80FF00
800380
C00040
FFFFC0
7FFFC0
ENDCHAR
STARTCHAR 06AB
ENCODING 1707
SWIDTH 810 0
DWIDTH 18 0
BBX 18 13 0 3
BITMAP
000080
000780
001F80
001480
002700
003800
003C00
401E00
800300
800180
C000C0
FFFFC0
7FFFC0
ENDCHAR
STARTCHAR 06AC
ENCODING 1708
SWIDTH 585 0
DWIDTH 13 0
BBX 13 15 0 3
BITMAP
0200
0730
0238
0018
0110
0210
0410
0790
0088
4188
8F08
8008
C008
FFF8
7FF8
ENDCHAR
STARTCHAR 06AD
ENCODING 1709
SWIDTH 585 0
DWIDTH 13 0
BBX 13 17 0 3
BITMAP
0800
1C00
0900
0BB0
1D38
0818
0110
0210
0410
0790
0088
4188
8F08
8008
C008
FFF8
7FF8
ENDCHAR
STARTCHAR 06AE
ENCODING 1710
SWIDTH 585 0
DWIDTH 13 0
BBX 13 21 0 -4
BITMAP
0030
0038
0018
0110
0210
0410
0790
0088
4188
8F08
8008
C008
FFF8
7FF8
0000
0080
05C0
0E80
0480
01C0
0080
ENDCHAR
STARTCHAR 06AF
ENCODING 1711
SWIDTH 810 0
DWIDTH 18 0
BBX 18 16 0 3
BITMAP
000080
000380
000F00
001880
002780
001E00
001000
002000
003800
003C00
401E00
800300
800180
C000C0
FFFFC0
7FFFC0
ENDCHAR
STARTCHAR 06B0
ENCODING 1712
SWIDTH 810 0
DWIDTH 18 0
BBX 18 16 0 3
BITMAP
000080
000380
000F00
001880
002780
001F80
001480
002700
003800
003C00
401E00
800300
800180
C000C0
FFFFC0
7FFFC0
ENDCHAR
STARTCHAR 06B1
ENCODING 1713
SWIDTH 810 0
DWIDTH 18 0
BBX 18 17 0 3
BITMAP
000C00
003C80
003380
000F00
001880
002780
001E00
001000
002000
003800
003C00
401E00
800300
800180
C000C0
FFFFC0
7FFFC0
ENDCHAR
STARTCHAR 06B2
ENCODING 1714
SWIDTH 810 0
DWIDTH 18 0
BBX 18 21 0 -2
BITMAP
000080
000380
000F00
001880
002780
001E00
001000
002000
003800
003C00
401E00
800300
800180
C000C0
FFFFC0
7FFFC0
000000
002000
017000
03A000
010000
ENDCHAR
STARTCHAR 06B3
ENCODING 1715
SWIDTH 810 0
DWIDTH 18 0
BBX 18 23 0 -4
BITMAP
000080
000380
000F00
001880
002780
001E00
001000
002000
003800
003C00
401E00
800300
800180
C000C0
FFFFC0
7FFFC0
000000
008000
01C000
008000
004000
00E000
004000
ENDCHAR
STARTCHAR 06B4
ENCODING 1716
SWIDTH 810 0
DWIDTH 18 0
BBX 18 17 0 3
BITMAP
003000
000C80
003380
000F00
001880
002780
001E00
001000
002000
003800
003C00
401E00
800300
800180
C000C0
FFFFC0
7FFFC0
ENDCHAR
STARTCHAR 06B5
ENCODING 1717
SWIDTH 495 0
DWIDTH 11 0
BBX 10 19 1 0
BITMAP
0140
0080
0000
00C0
00C0
0080
0080
0080
0080
0040
2040
4040
8040
8040
8040
8040
C1C0
FF80
3F00
ENDCHAR
STARTCHAR 06B6
ENCODING 1718
SWIDTH 495 0
DWIDTH 11 0
BBX 10 20 1 0
BITMAP
0080
01C0
0080
0000
00C0
00C0
0080
0080
0080
0080
0040
2040
4040
8040
8040
8040
8040
C1C0
FF80
3F00
ENDCHAR
STARTCHAR 06B7
ENCODING 1719
SWIDTH 495 0
DWIDTH 11 0
BBX 10 19 1 0
BITMAP
0300
00C0
0300
00C0
00C0
0080
0080
0080
0080
0040
2040
4040
8040
8040
8040
8040
C1C0
FF80
3F00
ENDCHAR
STARTCHAR 06B8
ENCODING 1720
SWIDTH 495 0
DWIDTH 11 0
BBX 10 21 1 -4
BITMAP
0080
00C0
00C0
0080
0080
0080
0080
0040
2040
4040
8040
8040
8040
8040
C1C0
FF80
3F00
0600
1400
1A00
0600
ENDCHAR
STARTCHAR 06B9
ENCODING 1721
SWIDTH 540 0
DWIDTH 12 0
BBX 11 18 1 -5
BITMAP
0400
0E00
0400
0000
0040
0060
4060
4020
8020
8020
8020
8060
C0E0
7FC0
3F00
0400
0E00
0400
ENDCHAR
STARTCHAR 06BA
ENCODING 1722
SWIDTH 540 0
DWIDTH 12 0
BBX 11 11 1 -2
BITMAP
0040
0060
4060
4020
8020
8020
8020
8060
C0E0
7FC0
3F00
ENDCHAR
STARTCHAR 06BB
ENCODING 1723
SWIDTH 540 0
DWIDTH 12 0
BBX 11 19 1 -2
BITMAP
0800
0C00
0800
0400
0580
0680
1F80
0000
0040
0060
4060
4020
8020
8020
8020
8060
C0E0
7FC0
3F00
ENDCHAR
STARTCHAR 06BC
ENCODING 1724
SWIDTH 540 0
DWIDTH 12 0
BBX 11 17 1 -4
BITMAP
0400
0E00
0400
0000
0040
0060
4060
4020
8020
8020
8020
8060
C0E0
7FC0
3F00
0900
0E00
ENDCHAR
STARTCHAR 06BD
ENCODING 1725
SWIDTH 540 0
DWIDTH 12 0
BBX 11 18 1 -2
BITMAP
0800
1C00
0900
0B80
1D00
0800
0000
0040
0060
4060
4020
8020
8020
8020
8060
C0E0
7FC0
3F00
ENDCHAR
STARTCHAR 06BE
ENCODING 1726
SWIDTH 450 0
DWIDTH 10 0
BBX 10 9 -1 3
BITMAP
0400
0600
0700
0F00
1380
12C0
0C40
FFC0
F180
ENDCHAR
STARTCHAR 06BF
ENCODING 1727
SWIDTH 540 0
DWIDTH 12 0
BBX 9 19 1 -5
BITMAP
0800
1C00
0800
0000
0000
7F80
FF80
0E00
3000
4000
4100
8B80
9D00
8900
8380
C100
7000
7F80
1F00
ENDCHAR
STARTCHAR 06C0
ENCODING 1728
SWIDTH 270 0
DWIDTH 6 0
BBX 5 12 1 3
BITMAP
30
40
30
40
00
40
70
78
88
88
F8
F0
ENDCHAR
STARTCHAR 06C1
ENCODING 1729
SWIDTH 405 0
DWIDTH 9 0
BBX 9 6 0 1
BITMAP
1C00
3E00
2780
4180
4000
8000
ENDCHAR
STARTCHAR 06C2
ENCODING 1730
SWIDTH 405 0
DWIDTH 9 0
BBX 9 11 0 1
BITMAP
0C00
1000
0C00
1000
0000
1C00
3E00
2780
4180
4000
8000
ENDCHAR
STARTCHAR 06C3
ENCODING 1731
SWIDTH 405 0
DWIDTH 9 0
BBX 9 12 0 1
BITMAP
0400
2E00
7400
2000
0000
0000
1C00
3E00
2780
4180
4000
8000
ENDCHAR
STARTCHAR 06C4
ENCODING 1732
SWIDTH 450 0
DWIDTH 10 0
BBX 9 11 1 -2
BITMAP
0300
0780
0480
0480
0780
0380
0080
0F00
1300
9E00
7C00
ENDCHAR
STARTCHAR 06C5
ENCODING 1733
SWIDTH 450 0
DWIDTH 10 0
BBX 9 11 1 -2
BITMAP
0300
0780
0480
0480
0780
0380
1880
0700
0300
8600
7C00
ENDCHAR
STARTCHAR 06C6
ENCODING 1734
SWIDTH 450 0
DWIDTH 10 0
BBX 9 14 1 -2
BITMAP
0500
0200
0000
0300
0780
0480
0480
0780
0380
0080
0100
0300
8600
7C00
ENDCHAR
STARTCHAR 06C7
ENCODING 1735
SWIDTH 450 0
DWIDTH 10 0
BBX 9 17 1 -2
BITMAP
0180
0280
0380
0180
0600
0000
0300
0780
0480
0480
0780
0380
0080
0100
0300
8600
7C00
ENDCHAR
STARTCHAR 06C8
ENCODING 1736
SWIDTH 450 0
DWIDTH 10 0
BBX 9 18 1 -2
BITMAP
0400
0400
0600
0200
0200
0200
0000
0300
0780
0480
0480
0780
0380
0080
0100
0300
8600
7C00
ENDCHAR
STARTCHAR 06C9
ENCODING 1737
SWIDTH 450 0
DWIDTH 10 0
BBX 9 14 1 -2
BITMAP
0200
0500
0000
0300
0780
0480
0480
0780
0380
0080
0100
0300
8600
7C00
ENDCHAR
STARTCHAR 06CA
ENCODING 1738
SWIDTH 450 0
DWIDTH 10 0
BBX 9 16 1 -2
BITMAP
0100
0B80
1D00
0800
0000
0300
0780
0480
0480
0780
0380
0080
0100
0300
8600
7C00
ENDCHAR
STARTCHAR 06CB
ENCODING 1739
SWIDTH 450 0
DWIDTH 10 0
BBX 9 18 1 -2
BITMAP
0800
1C00
0900
0B80
1D00
0800
0000
0300
0780
0480
0480
0780
0380
0080
0100
0300
8600
7C00
ENDCHAR
STARTCHAR 06CC
ENCODING 1740
SWIDTH 630 0
DWIDTH 14 0
BBX 13 11 1 -1
BITMAP
0038
0078
00C8
4080
8100
81F0
81F0
8010
C0E0
FFC0
7F00
ENDCHAR
STARTCHAR 06CD
ENCODING 1741
SWIDTH 630 0
DWIDTH 14 0
BBX 14 11 0 -1
BITMAP
001C
003C
0064
2040
E080
40F8
40F8
4008
6070
7FE0
3F80
ENDCHAR
STARTCHAR 06CE
ENCODING 1742
SWIDTH 630 0
DWIDTH 14 0
BBX 13 12 1 -1
BITMAP
1400
0838
0078
00C8
4080
8100
81F0
81F0
8010
C0E0
FFC0
7F00
ENDCHAR
STARTCHAR 06CF
ENCODING 1743
SWIDTH 450 0
DWIDTH 10 0
BBX 9 15 1 -2
BITMAP
0200
0700
0200
0000
0300
0780
0480
0480
0780
0380
0080
0100
0300
8600
7C00
ENDCHAR
STARTCHAR 06D0
ENCODING 1744
SWIDTH 630 0
DWIDTH 14 0
BBX 13 14 1 -4
BITMAP
0038
0078
00C8
4080
8100
81F0
81F0
8010
C0E0
FFC0
7F00
0000
0400
0400
ENDCHAR
STARTCHAR 06D1
ENCODING 1745
SWIDTH 630 0
DWIDTH 14 0
BBX 13 14 1 -4
BITMAP
0038
0078
00C8
4080
8100
81F0
81F0
8010
C0E0
FFC0
7F00
0000
0A00
0400
ENDCHAR
STARTCHAR 06D2
ENCODING 1746
SWIDTH 810 0
DWIDTH 18 0
BBX 16 9 1 -1
BITMAP
0300
0780
0C80
1800
3000
6000
8000
FFFF
FFFE
ENDCHAR
STARTCHAR 06D3
ENCODING 1747
SWIDTH 810 0
DWIDTH 18 0
BBX 16 12 1 -1
BITMAP
1800
2000
1800
2300
0780
0C80
1800
3000
6000
8000
FFFF
FFFE
ENDCHAR
STARTCHAR 06D4
ENCODING 1748
SWIDTH 225 0
DWIDTH 5 0
BBX 4 2 0 3
BITMAP
F0
F0
ENDCHAR
STARTCHAR 06D5
ENCODING 1749
SWIDTH 270 0
DWIDTH 6 0
BBX 5 7 1 3
BITMAP
40
70
78
88
88
F8
F0
ENDCHAR
STARTCHAR 06D6
ENCODING 1750
SWIDTH 0 0
DWIDTH 0 0
BBX 10 8 -5 11
BITMAP
4000
7000
2000
10C0
1540
7FC0
8000
FF00
ENDCHAR
STARTCHAR 06D7
ENCODING 1751
SWIDTH 0 0
DWIDTH 0 0
BBX 8 8 -4 11
BITMAP
42
74
26
16
12
7E
80
FF
ENDCHAR
STARTCHAR 06D8
ENCODING 1752
SWIDTH 0 0
DWIDTH 0 0
BBX 4 3 -2 11
BITMAP
20
50
B0
ENDCHAR
STARTCHAR 06D9
ENCODING 1753
SWIDTH 0 0
DWIDTH 0 0
BBX 5 7 -2 11
BITMAP
90
D8
50
50
20
50
70
ENDCHAR
STARTCHAR 06DA
ENCODING 1754
SWIDTH 0 0
DWIDTH 0 0
BBX 5 7 -3 11
BITMAP
F8
20
40
90
80
40
30
ENDCHAR
STARTCHAR 06DB
ENCODING 1755
SWIDTH 0 0
DWIDTH 0 0
BBX 2 2 -1 11
BITMAP
80
C0
ENDCHAR
STARTCHAR 06DC
ENCODING 1756
SWIDTH 0 0
DWIDTH 0 0
BBX 8 5 -4 11
BITMAP
50
95
9F
90
60
ENDCHAR
STARTCHAR 06DD
ENCODING 1757
SWIDTH 1125 0
DWIDTH 25 0
BBX 23 23 1 -4
BITMAP
00FE00
0F01E0
0BFFA0
1C0070
300018
200008
400004
400004
800002
800002
800002
800002
800002
800002
800002
400004
400004
200008
300018
1C0070
0BFFA0
0F01E0
00FE00
ENDCHAR
STARTCHAR 06DE
ENCODING 1758
SWIDTH 1080 0
DWIDTH 24 0
BBX 23 23 0 -3
BITMAP
001000
002800
004400
1FFFF0
110110
120090
140050
180030
100010
303818
504414
904412
504414
303818
100010
180030
140050
120090
110110
1FFFF0
004400
002800
001000
ENDCHAR
STARTCHAR 06DF
ENCODING 1759
SWIDTH 0 0
DWIDTH 0 0
BBX 2 2 -1 11
BITMAP
C0
C0
ENDCHAR
STARTCHAR 06E0
ENCODING 1760
SWIDTH 0 0
DWIDTH 0 0
BBX 2 2 -1 11
BITMAP
C0
C0
ENDCHAR
STARTCHAR 06E1
ENCODING 1761
SWIDTH 0 0
DWIDTH 0 0
BBX 6 3 -3 11
BITMAP
70
08
FC
ENDCHAR
STARTCHAR 06E2
ENCODING 1762
SWIDTH 0 0
DWIDTH 0 0
BBX 3 6 -2 11
BITMAP
40
A0
60
80
80
80
ENDCHAR
STARTCHAR 06E3
ENCODING 1763
SWIDTH 0 0
DWIDTH 0 0
BBX 8 5 -4 -5
BITMAP
50
95
9F
90
60
ENDCHAR
STARTCHAR 06E4
ENCODING 1764
SWIDTH 0 0
DWIDTH 0 0
BBX 2 1 -1 11
BITMAP
C0
ENDCHAR
STARTCHAR 06E5
ENCODING 1765
SWIDTH 180 0
DWIDTH 4 0
BBX 3 5 1 11
BITMAP
60
A0
E0
20
C0
ENDCHAR
STARTCHAR 06E6
ENCODING 1766
SWIDTH 360 0
DWIDTH 8 0
BBX 7 4 0 11
BITMAP
18
68
80
FE
ENDCHAR
STARTCHAR 06E7
ENCODING 1767
SWIDTH 0 0
DWIDTH 0 0
BBX 7 4 -4 11
BITMAP
18
68
80
FE
ENDCHAR
STARTCHAR 06E8
ENCODING 1768
SWIDTH 0 0
DWIDTH 0 0
BBX 5 6 -3 11
BITMAP
20
08
48
88
88
70
ENDCHAR
STARTCHAR 06E9
ENCODING 1769
SWIDTH 585 0
DWIDTH 13 0
BBX 15 18 -1 0
BITMAP
0100
06C0
0920
16D0
692C
96D2
5854
2EA8
2AA8
2AA8
2AA8
2AA8
2AA8
2BA8
2828
4FE4
4004
FFFE
ENDCHAR
STARTCHAR 06EA
ENCODING 1770
SWIDTH 0 0
DWIDTH 0 0
BBX 3 4 -2 -5
BITMAP
40
A0
A0
40
ENDCHAR
STARTCHAR 06EB
ENCODING 1771
SWIDTH 0 0
DWIDTH 0 0
BBX 3 4 -2 11
BITMAP
40
A0
A0
40
ENDCHAR
STARTCHAR 06EC
ENCODING 1772
SWIDTH 0 0
DWIDTH 0 0
BBX 2 2 -1 11
BITMAP
C0
C0
ENDCHAR
STARTCHAR 06ED
ENCODING 1773
SWIDTH 0 0
DWIDTH 0 0
BBX 3 6 -2 -5
BITMAP
40
A0
60
80
80
80
ENDCHAR
STARTCHAR 06F0
ENCODING 1776
SWIDTH 540 0
DWIDTH 12 0
BBX 4 5 4 5
BITMAP
40
60
F0
E0
20
ENDCHAR
STARTCHAR 06F1
ENCODING 1777
SWIDTH 540 0
DWIDTH 12 0
BBX 3 13 4 3
BITMAP
80
C0
C0
60
60
60
20
20
20
20
20
20
20
ENDCHAR
STARTCHAR 06F2
ENCODING 1778
SWIDTH 540 0
DWIDTH 12 0
BBX 6 13 3 3
BITMAP
84
C4
FC
78
20
20
10
10
10
10
10
10
10
ENDCHAR
STARTCHAR 06F3
ENCODING 1779
SWIDTH 540 0
DWIDTH 12 0
BBX 9 13 3 3
BITMAP
8880
8980
FF80
F700
4000
6000
6000
2000
2000
2000
2000
2000
2000
ENDCHAR
STARTCHAR 06F4
ENCODING 1780
SWIDTH 540 0
DWIDTH 12 0
BBX 8 13 3 3
BITMAP
8C
98
D1
F3
7E
7C
60
20
30
30
20
20
20
ENDCHAR
STARTCHAR 06F5
ENCODING 1781
SWIDTH 540 0
DWIDTH 12 0
BBX 8 13 2 3
BITMAP
10
18
1C
1C
26
26
43
43
C1
C1
C9
FE
7C
ENDCHAR
STARTCHAR 06F6
ENCODING 1782
SWIDTH 540 0
DWIDTH 12 0
BBX 8 13 2 3
BITMAP
18
3C
40
81
FF
7E
0C
18
10
30
20
20
20
ENDCHAR
STARTCHAR 06F7
ENCODING 1783
SWIDTH 540 0
DWIDTH 12 0
BBX 8 13 1 3
BITMAP
80
81
C1
C1
63
62
32
14
14
18
08
08
08
ENDCHAR
STARTCHAR 06F8
ENCODING 1784
SWIDTH 540 0
DWIDTH 12 0
BBX 9 13 1 3
BITMAP
0800
0800
0800
0800
1400
2400
2600
2200
6300
C380
C180
8180
8080
ENDCHAR
STARTCHAR 06F9
ENCODING 1785
SWIDTH 540 0
DWIDTH 12 0
BBX 6 13 3 3
BITMAP
30
78
88
88
F8
78
08
08
08
0C
0C
0C
04
ENDCHAR
STARTCHAR 06FA
ENCODING 1786
SWIDTH 810 0
DWIDTH 18 0
BBX 17 18 1 -2
BITMAP
001000
003800
001200
001700
003A00
001000
000000
008100
00C580
40C480
404480
807F80
807B80
804000
80C200
C18700
FF8200
3E0000
ENDCHAR
STARTCHAR 06FB
ENCODING 1787
SWIDTH 1080 0
DWIDTH 24 0
BBX 23 15 1 -2
BITMAP
000200
000700
000200
000000
00803C
00C0FE
40C186
404606
807FFE
807FFE
804000
80C080
C181C0
FF8080
3E0000
ENDCHAR
STARTCHAR 06FC
ENCODING 1788
SWIDTH 540 0
DWIDTH 12 0
BBX 11 23 0 -5
BITMAP
1000
3800
1000
0000
0000
3800
7E00
E000
8000
80C0
E3C0
7F00
3C00
3000
4000
4100
8380
8100
8000
C000
7000
3FE0
0FC0
ENDCHAR
STARTCHAR 06FD
ENCODING 1789
SWIDTH 405 0
DWIDTH 9 0
BBX 7 12 1 -3
BITMAP
30
78
90
C6
FC
78
60
00
28
28
28
28
ENDCHAR
STARTCHAR 06FE
ENCODING 1790
SWIDTH 315 0
DWIDTH 7 0
BBX 7 13 0 -5
BITMAP
38
7C
0E
3E
7E
C0
80
94
94
54
54
40
40
ENDCHAR
STARTCHAR 1E80
ENCODING 7808
SWIDTH 900 0
DWIDTH 20 0
BBX 20 20 0 0
BITMAP
00C000
004000
002000
002000
000000
F9F8F0
706060
306040
303040
303040
107080
185880
189880
189880
0C8D00
0D0D00
0D0F00
0E0600
060600
040200
ENDCHAR
STARTCHAR 1E81
ENCODING 7809
SWIDTH 675 0
DWIDTH 15 0
BBX 16 16 -1 0
BITMAP
0180
0080
0040
0040
0000
FBE7
30C2
30C2
30E4
1964
1964
1A68
0E38
0E38
0C30
0410
ENDCHAR
STARTCHAR 1E82
ENCODING 7810
SWIDTH 900 0
DWIDTH 20 0
BBX 20 20 0 0
BITMAP
003000
002000
004000
004000
000000
F9F8F0
706060
306040
303040
303040
107080
185880
189880
189880
0C8D00
0D0D00
0D0F00
0E0600
060600
040200
ENDCHAR
STARTCHAR 1E83
ENCODING 7811
SWIDTH 675 0
DWIDTH 15 0
BBX 16 16 -1 0
BITMAP
0060
0040
0080
0080
0000
FBE7
30C2
30C2
30E4
1964
1964
1A68
0E38
0E38
0C30
0410
ENDCHAR
STARTCHAR 1E84
ENCODING 7812
SWIDTH 900 0
DWIDTH 20 0
BBX 20 18 0 0
BITMAP
00D800
00D800
000000
F9F8F0
706060
306040
303040
303040
107080
185880
189880
189880
0C8D00
0D0D00
0D0F00
0E0600
060600
040200
ENDCHAR
STARTCHAR 1E85
ENCODING 7813
SWIDTH 675 0
DWIDTH 15 0
BBX 16 15 -1 0
BITMAP
0360
0360
0000
0000
FBE7
30C2
30C2
30E4
1964
1964
1A68
0E38
0E38
0C30
0410
ENDCHAR
STARTCHAR 1EA0
ENCODING 7840
SWIDTH 720 0
DWIDTH 16 0
BBX 15 18 1 -3
BITMAP
0100
0300
0380
0580
0580
05C0
08C0
08C0
1060
1FE0
1060
2030
2030
6038
F07E
0000
0300
0300
ENDCHAR
STARTCHAR 1EA1
ENCODING 7841
SWIDTH 450 0
DWIDTH 10 0
BBX 9 14 1 -3
BITMAP
7C00
C600
C600
C600
0E00
3600
6600
C600
C600
CE80
7700
0000
1800
1800
ENDCHAR
STARTCHAR 1EA2
ENCODING 7842
SWIDTH 720 0
DWIDTH 16 0
BBX 15 20 1 0
BITMAP
03C0
0040
0180
0000
0000
0100
0300
0380
0580
0580
05C0
08C0
08C0
1060
1FE0
1060
2030
2030
6038
F07E
ENDCHAR
STARTCHAR 1EA3
ENCODING 7843
SWIDTH 450 0
DWIDTH 10 0
BBX 9 15 1 0
BITMAP
3C00
0400
1800
0000
7C00
C600
C600
C600
0E00
3600
6600
C600
C600
CE80
7700
ENDCHAR
STARTCHAR 1EA4
ENCODING 7844
SWIDTH 720 0
DWIDTH 16 0
BBX 15 19 1 0
BITMAP
0080
0380
0440
0000
0100
0300
0380
0580
0580
05C0
08C0
08C0
1060
1FE0
1060
2030
2030
6038
F07E
ENDCHAR
STARTCHAR 1EA5
ENCODING 7845
SWIDTH 450 0
DWIDTH 10 0
BBX 9 20 1 0
BITMAP
1800
3000
2000
0000
3000
5800
4800
8400
0000
7C00
C600
C600
C600
0E00
3600
6600
C600
C600
CE80
7700
ENDCHAR
STARTCHAR 1EA6
ENCODING 7846
SWIDTH 720 0
DWIDTH 16 0
BBX 15 19 1 0
BITMAP
0200
0380
0440
0000
0100
0300
0380
0580
0580
05C0
08C0
08C0
1060
1FE0
1060
2030
2030
6038
F07E
ENDCHAR
STARTCHAR 1EA7
ENCODING 7847
SWIDTH 450 0
DWIDTH 10 0
BBX 9 20 1 0
BITMAP
6000
2000
1000
0000
3000
5800
4800
8400
0000
7C00
C600
C600
C600
0E00
3600
6600
C600
C600
CE80
7700
ENDCHAR
STARTCHAR 1EA8
ENCODING 7848
SWIDTH 720 0
DWIDTH 16 0
BBX 15 19 1 0
BITMAP
0380
0380
0440
0000
0100
0300
0380
0580
0580
05C0
08C0
08C0
1060
1FE0
1060
2030
2030
6038
F07E
ENDCHAR
STARTCHAR 1EA9
ENCODING 7849
SWIDTH 450 0
DWIDTH 10 0
BBX 9 20 1 0
BITMAP
7800
0800
3000
0000
3000
5800
4800
8400
0000
7C00
C600
C600
C600
0E00
3600
6600
C600
C600
CE80
7700
ENDCHAR
STARTCHAR 1EAA
ENCODING 7850
SWIDTH 720 0
DWIDTH 16 0
BBX 15 19 1 0
BITMAP
0710
0BE0
0440
0000
0100
0300
0380
0580
0580
05C0
08C0
08C0
1060
1FE0
1060
2030
2030
6038
F07E
ENDCHAR
STARTCHAR 1EAB
ENCODING 7851
SWIDTH 450 0
DWIDTH 10 0
BBX 10 19 0 0
BITMAP
7100
8E00
0000
1800
2C00
2400
4200
0000
3E00
6300
6300
6300
0700
1B00
3300
6300
6300
6740
3B80
ENDCHAR
STARTCHAR 1EAC
ENCODING 7852
SWIDTH 720 0
DWIDTH 16 0
BBX 15 21 1 -3
BITMAP
0380
0440
0000
0100
0300
0380
0580
0580
05C0
08C0
08C0
1060
1FE0
1060
2030
2030
6038
F07E
0000
0300
0300
ENDCHAR
STARTCHAR 1EAD
ENCODING 7853
SWIDTH 450 0
DWIDTH 10 0
BBX 9 19 1 -3
BITMAP
3000
5800
4800
8400
0000
7C00
C600
C600
C600
0E00
3600
6600
C600
C600
CE80
7700
0000
1800
1800
ENDCHAR
STARTCHAR 1EAE
ENCODING 7854
SWIDTH 720 0
DWIDTH 16 0
BBX 15 20 1 0
BITMAP
0080
0100
0000
0420
03C0
0100
0300
0380
0580
0580
05C0
08C0
08C0
1060
1FE0
1060
2030
2030
6038
F07E
ENDCHAR
STARTCHAR 1EAF
ENCODING 7855
SWIDTH 450 0
DWIDTH 10 0
BBX 9 20 1 0
BITMAP
0C00
1800
1000
0000
0000
4200
7E00
3C00
0000
7C00
C600
C600
C600
0E00
3600
6600
C600
C600
CE80
7700
ENDCHAR
STARTCHAR 1EB0
ENCODING 7856
SWIDTH 720 0
DWIDTH 16 0
BBX 15 20 1 0
BITMAP
0200
0100
0000
0420
03C0
0100
0300
0380
0580
0580
05C0
08C0
08C0
1060
1FE0
1060
2030
2030
6038
F07E
ENDCHAR
STARTCHAR 1EB1
ENCODING 7857
SWIDTH 450 0
DWIDTH 10 0
BBX 9 20 1 0
BITMAP
6000
2000
1000
0000
0000
4200
7E00
3C00
0000
7C00
C600
C600
C600
0E00
3600
6600
C600
C600
CE80
7700
ENDCHAR
STARTCHAR 1EB2
ENCODING 7858
SWIDTH 720 0
DWIDTH 16 0
BBX 15 20 1 0
BITMAP
0380
0000
0000
0420
03C0
0100
0300
0380
0580
0580
05C0
08C0
08C0
1060
1FE0
1060
2030
2030
6038
F07E
ENDCHAR
STARTCHAR 1EB3
ENCODING 7859
SWIDTH 450 0
DWIDTH 10 0
BBX 9 20 1 0
BITMAP
3C00
0400
1800
0000
0000
4200
7E00
3C00
0000
7C00
C600
C600
C600
0E00
3600
6600
C600
C600
CE80
7700
ENDCHAR
STARTCHAR 1EB4
ENCODING 7860
SWIDTH 720 0
DWIDTH 16 0
BBX 15 20 1 0
BITMAP
0710
08E0
0000
0420
03C0
0100
0300
0380
0580
0580
05C0
08C0
08C0
1060
1FE0
1060
2030
2030
6038
F07E
ENDCHAR
STARTCHAR 1EB5
ENCODING 7861
SWIDTH 450 0
DWIDTH 10 0
BBX 9 19 1 0
BITMAP
7100
8E00
0000
0000
4200
7E00
3C00
0000
7C00
C600
C600
C600
0E00
3600
6600
C600
C600
CE80
7700
ENDCHAR
STARTCHAR 1EB6
ENCODING 7862
SWIDTH 720 0
DWIDTH 16 0
BBX 15 20 1 -3
BITMAP
0420
03C0
0100
0300
0380
0580
0580
05C0
08C0
08C0
1060
1FE0
1060
2030
2030
6038
F07E
0000
0300
0300
ENDCHAR
STARTCHAR 1EB7
ENCODING 7863
SWIDTH 450 0
DWIDTH 10 0
BBX 9 18 1 -3
BITMAP
4200
7E00
3C00
0000
7C00
C600
C600
C600
0E00
3600
6600
C600
C600
CE80
7700
0000
1800
1800
ENDCHAR
STARTCHAR 1EB8
ENCODING 7864
SWIDTH 585 0
DWIDTH 13 0
BBX 13 18 0 -3
BITMAP
FFF0
3030
3010
3000
3000
3040
3040
3FC0
3040
3040
3000
3008
3010
3030
FFF0
0000
0300
0300
ENDCHAR
STARTCHAR 1EB9
ENCODING 7865
SWIDTH 450 0
DWIDTH 10 0
BBX 8 14 1 -3
BITMAP
3C
66
43
FF
C0
C0
C0
E1
73
7E
3C
00
18
18
ENDCHAR
STARTCHAR 1EBA
ENCODING 7866
SWIDTH 585 0
DWIDTH 13 0
BBX 13 20 0 0
BITMAP
0780
0080
0300
0000
0000
FFF0
3030
3010
3000
3000
3040
3040
3FC0
3040
3040
3000
3008
3010
3030
FFF0
ENDCHAR
STARTCHAR 1EBB
ENCODING 7867
SWIDTH 450 0
DWIDTH 10 0
BBX 8 15 1 0
BITMAP
3C
04
18
00
3C
66
43
FF
C0
C0
C0
E1
73
7E
3C
ENDCHAR
STARTCHAR 1EBC
ENCODING 7868
SWIDTH 585 0
DWIDTH 13 0
BBX 13 19 0 0
BITMAP
0C40
1240
1180
0000
FFF0
3030
3010
3000
3000
3040
3040
3FC0
3040
3040
3000
3008
3010
3030
FFF0
ENDCHAR
STARTCHAR 1EBD
ENCODING 7869
SWIDTH 450 0
DWIDTH 10 0
BBX 8 15 1 0
BITMAP
31
49
46
00
3C
66
43
FF
C0
C0
C0
E1
73
7E
3C
ENDCHAR
STARTCHAR 1EBE
ENCODING 7870
SWIDTH 585 0
DWIDTH 13 0
BBX 13 19 0 0
BITMAP
0100
0700
0880
0000
FFF0
3030
3010
3000
3000
3040
3040
3FC0
3040
3040
3000
3008
3010
3030
FFF0
ENDCHAR
STARTCHAR 1EBF
ENCODING 7871
SWIDTH 450 0
DWIDTH 10 0
BBX 8 20 1 0
BITMAP
0C
18
10
00
18
2C
24
42
00
3C
66
43
FF
C0
C0
C0
E1
73
7E
3C
ENDCHAR
STARTCHAR 1EC0
ENCODING 7872
SWIDTH 585 0
DWIDTH 13 0
BBX 13 19 0 0
BITMAP
0400
0700
0880
0000
FFF0
3030
3010
3000
3000
3040
3040
3FC0
3040
3040
3000
3008
3010
3030
FFF0
ENDCHAR
STARTCHAR 1EC1
ENCODING 7873
SWIDTH 450 0
DWIDTH 10 0
BBX 8 20 1 0
BITMAP
30
10
08
00
18
2C
24
42
00
3C
66
43
FF
C0
C0
C0
E1
73
7E
3C
ENDCHAR
STARTCHAR 1EC2
ENCODING 7874
SWIDTH 585 0
DWIDTH 13 0
BBX 13 19 0 0
BITMAP
0700
0700
0880
0000
FFF0
3030
3010
3000
3000
3040
3040
3FC0
3040
3040
3000
3008
3010
3030
FFF0
ENDCHAR
STARTCHAR 1EC3
ENCODING 7875
SWIDTH 450 0
DWIDTH 10 0
BBX 8 20 1 0
BITMAP
3C
04
18
00
18
2C
24
42
00
3C
66
43
FF
C0
C0
C0
E1
73
7E
3C
ENDCHAR
STARTCHAR 1EC4
ENCODING 7876
SWIDTH 585 0
DWIDTH 13 0
BBX 13 19 0 0
BITMAP
0E20
17C0
0880
0000
FFF0
3030
3010
3000
3000
3040
3040
3FC0
3040
3040
3000
3008
3010
3030
FFF0
ENDCHAR
STARTCHAR 1EC5
ENCODING 7877
SWIDTH 450 0
DWIDTH 10 0
BBX 8 19 1 0
BITMAP
71
8E
00
18
2C
24
42
00
3C
66
43
FF
C0
C0
C0
E1
73
7E
3C
ENDCHAR
STARTCHAR 1EC6
ENCODING 7878
SWIDTH 585 0
DWIDTH 13 0
BBX 13 21 0 -3
BITMAP
0700
0880
0000
FFF0
3030
3010
3000
3000
3040
3040
3FC0
3040
3040
3000
3008
3010
3030
FFF0
0000
0300
0300
ENDCHAR
STARTCHAR 1EC7
ENCODING 7879
SWIDTH 450 0
DWIDTH 10 0
BBX 8 19 1 -3
BITMAP
18
2C
24
42
00
3C
66
43
FF
C0
C0
C0
E1
73
7E
3C
00
18
18
ENDCHAR
STARTCHAR 1EC8
ENCODING 7880
SWIDTH 270 0
DWIDTH 6 0
BBX 6 20 0 0
BITMAP
78
08
30
00
00
FC
30
30
30
30
30
30
30
30
30
30
30
30
30
FC
ENDCHAR
STARTCHAR 1EC9
ENCODING 7881
SWIDTH 270 0
DWIDTH 6 0
BBX 4 15 1 0
BITMAP
F0
10
60
00
60
E0
60
60
60
60
60
60
60
60
F0
ENDCHAR
STARTCHAR 1ECA
ENCODING 7882
SWIDTH 270 0
DWIDTH 6 0
BBX 6 18 0 -3
BITMAP
FC
30
30
30
30
30
30
30
30
30
30
30
30
30
FC
00
30
30
ENDCHAR
STARTCHAR 1ECB
ENCODING 7883
SWIDTH 270 0
DWIDTH 6 0
BBX 4 19 1 -3
BITMAP
60
60
00
00
00
60
E0
60
60
60
60
60
60
60
60
F0
00
60
60
ENDCHAR
STARTCHAR 1ECC
ENCODING 7884
SWIDTH 720 0
DWIDTH 16 0
BBX 14 18 1 -3
BITMAP
0FC0
1860
2010
6018
4008
C00C
C00C
C00C
C00C
C00C
4008
6018
3010
1860
0FC0
0000
0300
0300
ENDCHAR
STARTCHAR 1ECD
ENCODING 7885
SWIDTH 495 0
DWIDTH 11 0
BBX 9 14 1 -3
BITMAP
1E00
6300
4300
C180
C180
C180
C180
C180
6100
7300
1C00
0000
0C00
0C00
ENDCHAR
STARTCHAR 1ECE
ENCODING 7886
SWIDTH 720 0
DWIDTH 16 0
BBX 14 20 1 0
BITMAP
03C0
0040
0180
0000
0000
0FC0
1860
2010
6018
4008
C00C
C00C
C00C
C00C
C00C
4008
6018
3010
1860
0FC0
ENDCHAR
STARTCHAR 1ECF
ENCODING 7887
SWIDTH 495 0
DWIDTH 11 0
BBX 9 15 1 0
BITMAP
1E00
0200
0C00
0000
1E00
6300
4300
C180
C180
C180
C180
C180
6100
7300
1C00
ENDCHAR
STARTCHAR 1ED0
ENCODING 7888
SWIDTH 720 0
DWIDTH 16 0
BBX 14 19 1 0
BITMAP
0080
0380
0440
0000
0FC0
1860
2010
6018
4008
C00C
C00C
C00C
C00C
C00C
4008
6018
3010
1860
0FC0
ENDCHAR
STARTCHAR 1ED1
ENCODING 7889
SWIDTH 495 0
DWIDTH 11 0
BBX 9 20 1 0
BITMAP
0600
0C00
0800
0000
0C00
1600
1200
2100
0000
1E00
6300
4300
C180
C180
C180
C180
C180
6100
7300
1C00
ENDCHAR
STARTCHAR 1ED2
ENCODING 7890
SWIDTH 720 0
DWIDTH 16 0
BBX 14 19 1 0
BITMAP
0200
0380
0440
0000
0FC0
1860
2010
6018
4008
C00C
C00C
C00C
C00C
C00C
4008
6018
3010
1860
0FC0
ENDCHAR
STARTCHAR 1ED3
ENCODING 7891
SWIDTH 495 0
DWIDTH 11 0
BBX 9 20 1 0
BITMAP
1800
0800
0400
0000
0C00
1600
1200
2100
0000
1E00
6300
4300
C180
C180
C180
C180
C180
6100
7300
1C00
ENDCHAR
STARTCHAR 1ED4
ENCODING 7892
SWIDTH 720 0
DWIDTH 16 0
BBX 14 19 1 0
BITMAP
0380
0380
0440
0000
0FC0
1860
2010
6018
4008
C00C
C00C
C00C
C00C
C00C
4008
6018
3010
1860
0FC0
ENDCHAR
STARTCHAR 1ED5
ENCODING 7893
SWIDTH 495 0
DWIDTH 11 0
BBX 9 20 1 0
BITMAP
1E00
0200
0C00
0000
0C00
1600
1200
2100
0000
1E00
6300
4300
C180
C180
C180
C180
C180
6100
7300
1C00
ENDCHAR
STARTCHAR 1ED6
ENCODING 7894
SWIDTH 720 0
DWIDTH 16 0
BBX 14 19 1 0
BITMAP
0710
0BE0
0440
0000
0FC0
1860
2010
6018
4008
C00C
C00C
C00C
C00C
C00C
4008
6018
3010
1860
0FC0
ENDCHAR
STARTCHAR 1ED7
ENCODING 7895
SWIDTH 495 0
DWIDTH 11 0
BBX 9 19 1 0
BITMAP
3880
4700
0000
0C00
1600
1200
2100
0000
1E00
6300
4300
C180
C180
C180
C180
C180
6100
7300
1C00
ENDCHAR
STARTCHAR 1ED8
ENCODING 7896
SWIDTH 720 0
DWIDTH 16 0
BBX 14 21 1 -3
BITMAP
0380
0440
0000
0FC0
1860
2010
6018
4008
C00C
C00C
C00C
C00C
C00C
4008
6018
3010
1860
0FC0
0000
0300
0300
ENDCHAR
STARTCHAR 1ED9
ENCODING 7897
SWIDTH 495 0
DWIDTH 11 0
BBX 9 19 1 -3
BITMAP
0C00
1600
1200
2100
0000
1E00
6300
4300
C180
C180
C180
C180
C180
6100
7300
1C00
0000
0C00
0C00
ENDCHAR
STARTCHAR 1EDA
ENCODING 7898
SWIDTH 720 0
DWIDTH 16 0
BBX 14 20 1 0
BITMAP
0180
0100
0200
020C
000C
07C4
1878
2010
6018
4008
C00C
C00C
C00C
C00C
C00C
4008
6018
3010
1860
0FC0
ENDCHAR
STARTCHAR 1EDB
ENCODING 7899
SWIDTH 540 0
DWIDTH 12 0
BBX 11 16 1 0
BITMAP
0600
0400
0800
0800
0060
1E60
6320
43C0
C180
C180
C180
C180
C180
6100
7300
1C00
ENDCHAR
STARTCHAR 1EDC
ENCODING 7900
SWIDTH 720 0
DWIDTH 16 0
BBX 14 20 1 0
BITMAP
0600
0200
0100
010C
000C
07C4
1878
2010
6018
4008
C00C
C00C
C00C
C00C
C00C
4008
6018
3010
1860
0FC0
ENDCHAR
STARTCHAR 1EDD
ENCODING 7901
SWIDTH 540 0
DWIDTH 12 0
BBX 11 16 1 0
BITMAP
3000
1000
0800
0800
0060
1E60
6320
43C0
C180
C180
C180
C180
C180
6100
7300
1C00
ENDCHAR
STARTCHAR 1EDE
ENCODING 7902
SWIDTH 720 0
DWIDTH 16 0
BBX 14 20 1 0
BITMAP
03C0
0040
0180
000C
000C
07C4
1878
2010
6018
4008
C00C
C00C
C00C
C00C
C00C
4008
6018
3010
1860
0FC0
ENDCHAR
STARTCHAR 1EDF
ENCODING 7903
SWIDTH 540 0
DWIDTH 12 0
BBX 11 15 1 0
BITMAP
1E00
0200
0C00
0060
1E60
6320
43C0
C180
C180
C180
C180
C180
6100
7300
1C00
ENDCHAR
STARTCHAR 1EE0
ENCODING 7904
SWIDTH 720 0
DWIDTH 16 0
BBX 14 19 1 0
BITMAP
0620
0920
08CC
000C
07C4
1878
2010
6018
4008
C00C
C00C
C00C
C00C
C00C
4008
6018
3010
1860
0FC0
ENDCHAR
STARTCHAR 1EE1
ENCODING 7905
SWIDTH 540 0
DWIDTH 12 0
BBX 11 15 1 0
BITMAP
3100
4900
4600
0060
1E60
6320
43C0
C180
C180
C180
C180
C180
6100
7300
1C00
ENDCHAR
STARTCHAR 1EE2
ENCODING 7906
SWIDTH 720 0
DWIDTH 16 0
BBX 14 20 1 -3
BITMAP
000C
000C
07C4
1878
2010
6018
4008
C00C
C00C
C00C
C00C
C00C
4008
6018
3010
1860
0FC0
0000
0300
0300
ENDCHAR
STARTCHAR 1EE3
ENCODING 7907
SWIDTH 540 0
DWIDTH 12 0
BBX 11 15 1 -3
BITMAP
0060
1E60
6320
43C0
C180
C180
C180
C180
C180
6100
7300
1C00
0000
0C00
0C00
ENDCHAR
STARTCHAR 1EE4
ENCODING 7908
SWIDTH 675 0
DWIDTH 15 0
BBX 15 18 0 -3
BITMAP
FC3E
3008
3008
3008
3008
3008
3008
3008
3008
3008
3008
3008
1810
1C30
07C0
0000
0180
0180
ENDCHAR
STARTCHAR 1EE5
ENCODING 7909
SWIDTH 495 0
DWIDTH 11 0
BBX 10 14 0 -3
BITMAP
E380
6180
6180
6180
6180
6180
6180
6180
6180
63C0
3D80
0000
1800
1800
ENDCHAR
STARTCHAR 1EE6
ENCODING 7910
SWIDTH 675 0
DWIDTH 15 0
BBX 15 20 0 0
BITMAP
03C0
0040
0180
0000
0000
FC3E
3008
3008
3008
3008
3008
3008
3008
3008
3008
3008
3008
1810
1C30
07C0
ENDCHAR
STARTCHAR 1EE7
ENCODING 7911
SWIDTH 495 0
DWIDTH 11 0
BBX 10 15 0 0
BITMAP
1E00
0200
0C00
0000
E380
6180
6180
6180
6180
6180
6180
6180
6180
63C0
3D80
ENDCHAR
STARTCHAR 1EE8
ENCODING 7912
SWIDTH 765 0
DWIDTH 17 0
BBX 17 20 1 0
BITMAP
00C000
008000
010180
010180
000080
FC3F00
300800
300800
300800
300800
300800
300800
300800
300800
300800
300800
300800
181000
1C3000
07C000
ENDCHAR
STARTCHAR 1EE9
ENCODING 7913
SWIDTH 540 0
DWIDTH 12 0
BBX 12 16 0 0
BITMAP
0600
0400
0800
0800
0030
E3B0
6190
61E0
6180
6180
6180
6180
6180
6180
63C0
3D80
ENDCHAR
STARTCHAR 1EEA
ENCODING 7914
SWIDTH 765 0
DWIDTH 17 0
BBX 17 20 1 0
BITMAP
060000
020000
010180
010180
000080
FC3F00
300800
300800
300800
300800
300800
300800
300800
300800
300800
300800
300800
181000
1C3000
07C000
ENDCHAR
STARTCHAR 1EEB
ENCODING 7915
SWIDTH 540 0
DWIDTH 12 0
BBX 12 16 0 0
BITMAP
1800
0800
0400
0400
0030
E3B0
6190
61E0
6180
6180
6180
6180
6180
6180
63C0
3D80
ENDCHAR
STARTCHAR 1EEC
ENCODING 7916
SWIDTH 765 0
DWIDTH 17 0
BBX 17 20 1 0
BITMAP
03C000
004000
018180
000180
000080
FC3F00
300800
300800
300800
300800
300800
300800
300800
300800
300800
300800
300800
181000
1C3000
07C000
ENDCHAR
STARTCHAR 1EED
ENCODING 7917
SWIDTH 540 0
DWIDTH 12 0
BBX 12 15 0 0
BITMAP
1E00
0200
0C00
0030
E3B0
6190
61E0
6180
6180
6180
6180
6180
6180
63C0
3D80
ENDCHAR
STARTCHAR 1EEE
ENCODING 7918
SWIDTH 765 0
DWIDTH 17 0
BBX 17 19 1 0
BITMAP
062000
092180
08C180
000080
FC3F00
300800
300800
300800
300800
300800
300800
300800
300800
300800
300800
300800
181000
1C3000
07C000
ENDCHAR
STARTCHAR 1EEF
ENCODING 7919
SWIDTH 540 0
DWIDTH 12 0
BBX 12 15 0 0
BITMAP
3100
4900
4600
0030
E3B0
6190
61E0
6180
6180
6180
6180
6180
6180
63C0
3D80
ENDCHAR
STARTCHAR 1EF0
ENCODING 7920
SWIDTH 765 0
DWIDTH 17 0
BBX 17 21 1 -3
BITMAP
000180
000180
000080
FC3F00
300800
300800
300800
300800
300800
300800
300800
300800
300800
300800
300800
181000
1C3000
07C000
000000
030000
030000
ENDCHAR
STARTCHAR 1EF1
ENCODING 7921
SWIDTH 540 0
DWIDTH 12 0
BBX 12 15 0 -3
BITMAP
0030
E3B0
6190
61E0
6180
6180
6180
6180
6180
6180
63C0
3D80
0000
1800
1800
ENDCHAR
STARTCHAR 1EF2
ENCODING 7922
SWIDTH 720 0
DWIDTH 16 0
BBX 16 20 0 0
BITMAP
0300
0100
0080
0080
0000
FE1F
380C
1808
0C10
0620
0620
0340
0340
0180
0180
0180
0180
0180
0180
07E0
ENDCHAR
STARTCHAR 1EF3
ENCODING 7923
SWIDTH 495 0
DWIDTH 11 0
BBX 11 21 0 -5
BITMAP
0C00
0400
0200
0200
0000
F8E0
7040
3040
3080
1880
1880
0D00
0D00
0700
0600
0200
0400
0400
0C00
7800
7000
ENDCHAR
STARTCHAR 1EF4
ENCODING 7924
SWIDTH 720 0
DWIDTH 16 0
BBX 16 18 0 -3
BITMAP
FE1F
380C
1808
0C10
0620
0620
0340
0340
0180
0180
0180
0180
0180
0180
07E0
0000
0180
0180
ENDCHAR
STARTCHAR 1EF5
ENCODING 7925
SWIDTH 495 0
DWIDTH 11 0
BBX 11 16 0 -5
BITMAP
F8E0
7040
3040
3080
1880
1880
0D00
0D00
0700
0600
0200
0400
0580
0D80
7800
7000
ENDCHAR
STARTCHAR 1EF6
ENCODING 7926
SWIDTH 720 0
DWIDTH 16 0
BBX 16 20 0 0
BITMAP
03C0
0040
0180
0000
0000
FE1F
380C
1808
0C10
0620
0620
0340
0340
0180
0180
0180
0180
0180
0180
07E0
ENDCHAR
STARTCHAR 1EF7
ENCODING 7927
SWIDTH 495 0
DWIDTH 11 0
BBX 11 20 0 -5
BITMAP
0780
0080
0300
0000
F8E0
7040
3040
3080
1880
1880
0D00
0D00
0700
0600
0200
0400
0400
0C00
7800
7000
ENDCHAR
STARTCHAR 1EF8
ENCODING 7928
SWIDTH 720 0
DWIDTH 16 0
BBX 16 19 0 0
BITMAP
0310
0490
0460
0000
FE1F
380C
1808
0C10
0620
0620
0340
0340
0180
0180
0180
0180
0180
0180
07E0
ENDCHAR
STARTCHAR 1EF9
ENCODING 7929
SWIDTH 495 0
DWIDTH 11 0
BBX 11 20 0 -5
BITMAP
0C40
1240
1180
0000
F8E0
7040
3040
3080
1880
1880
0D00
0D00
0700
0600
0200
0400
0400
0C00
7800
7000
ENDCHAR
STARTCHAR 200C
ENCODING 8204
SWIDTH 0 0
DWIDTH 0 0
BBX 1 17 0 -3
BITMAP
80
80
80
80
80
80
80
80
80
80
80
80
80
80
80
80
80
ENDCHAR
STARTCHAR 200D
ENCODING 8205
SWIDTH 0 0
DWIDTH 0 0
BBX 5 18 -2 -3
BITMAP
88
50
20
70
A8
20
20
20
20
20
20
20
20
20
20
20
20
20
ENDCHAR
STARTCHAR 200E
ENCODING 8206
SWIDTH 0 0
DWIDTH 0 0
BBX 5 18 0 -3
BITMAP
20
10
F8
90
A0
80
80
80
80
80
80
80
80
80
80
80
80
80
ENDCHAR
STARTCHAR 200F
ENCODING 8207
SWIDTH 0 0
DWIDTH 0 0
BBX 5 18 -4 -3
BITMAP
20
40
F8
48
28
08
08
08
08
08
08
08
08
08
08
08
08
08
ENDCHAR
STARTCHAR 2013
ENCODING 8211
SWIDTH 495 0
DWIDTH 11 0
BBX 11 1 0 5
BITMAP
FFE0
ENDCHAR
STARTCHAR 2014
ENCODING 8212
SWIDTH 990 0
DWIDTH 22 0
BBX 22 1 0 5
BITMAP
FFFFFC
ENDCHAR
STARTCHAR 2015
ENCODING 8213
SWIDTH 990 0
DWIDTH 22 0
BBX 20 1 1 5
BITMAP
FFFFF0
ENDCHAR
STARTCHAR 2017
ENCODING 8215
SWIDTH 495 0
DWIDTH 11 0
BBX 11 3 0 -5
BITMAP
FFE0
0000
FFE0
ENDCHAR
STARTCHAR 2018
ENCODING 8216
SWIDTH 315 0
DWIDTH 7 0
BBX 3 5 2 10
BITMAP
20
C0
80
E0
60
ENDCHAR
STARTCHAR 2019
ENCODING 8217
SWIDTH 315 0
DWIDTH 7 0
BBX 3 5 2 10
BITMAP
C0
E0
20
20
C0
ENDCHAR
STARTCHAR 201A
ENCODING 8218
SWIDTH 315 0
DWIDTH 7 0
BBX 3 5 2 -3
BITMAP
C0
E0
20
40
80
ENDCHAR
STARTCHAR 201B
ENCODING 8219
SWIDTH 315 0
DWIDTH 7 0
BBX 3 6 2 9
BITMAP
60
E0
80
80
40
20
ENDCHAR
STARTCHAR 201C
ENCODING 8220
SWIDTH 405 0
DWIDTH 9 0
BBX 8 5 0 10
BITMAP
42
84
84
E7
63
ENDCHAR
STARTCHAR 201D
ENCODING 8221
SWIDTH 450 0
DWIDTH 10 0
BBX 8 5 0 10
BITMAP
C6
E7
21
21
42
ENDCHAR
STARTCHAR 201E
ENCODING 8222
SWIDTH 405 0
DWIDTH 9 0
BBX 8 5 0 -3
BITMAP
C6
E7
21
21
42
ENDCHAR
STARTCHAR 2020
ENCODING 8224
SWIDTH 495 0
DWIDTH 11 0
BBX 9 21 1 -5
BITMAP
0800
0800
0800
0800
FF80
0800
0800
0800
0800
0800
0800
0800
0800
0800
0800
0800
0800
0800
0800
0800
0800
ENDCHAR
STARTCHAR 2021
ENCODING 8225
SWIDTH 495 0
DWIDTH 11 0
BBX 9 21 1 -5
BITMAP
0800
0800
0800
0800
FF80
0800
0800
0800
0800
0800
0800
0800
0800
0800
0800
0800
FF80
0800
0800
0800
0800
ENDCHAR
STARTCHAR 2022
ENCODING 8226
SWIDTH 315 0
DWIDTH 7 0
BBX 5 5 1 6
BITMAP
70
F8
F8
F8
70
ENDCHAR
STARTCHAR 2026
ENCODING 8230
SWIDTH 990 0
DWIDTH 22 0
BBX 16 2 3 0
BITMAP
C183
C183
ENDCHAR
STARTCHAR 202A
ENCODING 8234
SWIDTH 765 0
DWIDTH 17 0
BBX 12 14 2 0
BITMAP
7FF0
8010
8010
8010
8010
8010
8010
8010
8010
8010
8010
8010
8010
8010
ENDCHAR
STARTCHAR 202B
ENCODING 8235
SWIDTH 765 0
DWIDTH 17 0
BBX 12 14 2 0
BITMAP
7FF0
8010
8010
8010
8010
8010
8010
8010
8010
8010
8010
8010
8010
8010
ENDCHAR
STARTCHAR 202C
ENCODING 8236
SWIDTH 765 0
DWIDTH 17 0
BBX 12 14 2 0
BITMAP
7FF0
8010
8010
8010
8010
8010
8010
8010
8010
8010
8010
8010
8010
8010
ENDCHAR
STARTCHAR 202D
ENCODING 8237
SWIDTH 765 0
DWIDTH 17 0
BBX 12 14 2 0
BITMAP
7FF0
8010
8010
8010
8010
8010
8010
8010
8010
8010
8010
8010
8010
8010
ENDCHAR
STARTCHAR 202E
ENCODING 8238
SWIDTH 765 0
DWIDTH 17 0
BBX 12 14 2 0
BITMAP
7FF0
8010
8010
8010
8010
8010
8010
8010
8010
8010
8010
8010
8010
8010
ENDCHAR
STARTCHAR 2030
ENCODING 8240
SWIDTH 990 0
DWIDTH 22 0
BBX 23 15 0 0
BITMAP
380800
6C0800
C61000
C62000
C64000
C64000
6C8000
393838
026C4C
02C6C6
04C6C6
08C6C6
08C6C6
106C6C
203838
ENDCHAR
STARTCHAR 2032
ENCODING 8242
SWIDTH 225 0
DWIDTH 5 0
BBX 3 6 2 9
BITMAP
60
60
40
C0
C0
80
ENDCHAR
STARTCHAR 2033
ENCODING 8243
SWIDTH 405 0
DWIDTH 9 0
BBX 7 6 2 9
BITMAP
66
66
44
CC
CC
88
ENDCHAR
STARTCHAR 2039
ENCODING 8249
SWIDTH 315 0
DWIDTH 7 0
BBX 5 11 1 0
BITMAP
08
10
30
60
60
C0
60
60
30
10
08
ENDCHAR
STARTCHAR 203A
ENCODING 8250
SWIDTH 315 0
DWIDTH 7 0
BBX 5 11 1 0
BITMAP
80
40
60
30
30
18
30
30
60
40
80
ENDCHAR
STARTCHAR 203C
ENCODING 8252
SWIDTH 495 0
DWIDTH 11 0
BBX 7 15 2 0
BITMAP
C6
C6
C6
C6
C6
C6
84
84
84
84
84
00
00
C6
C6
ENDCHAR
STARTCHAR 203E
ENCODING 8254
SWIDTH 315 0
DWIDTH 7 0
BBX 8 1 0 12
BITMAP
FF
ENDCHAR
STARTCHAR 2044
ENCODING 8260
SWIDTH 180 0
DWIDTH 4 0
BBX 11 15 -4 0
BITMAP
0020
0040
0080
0080
0100
0200
0200
0400
0800
0800
1000
2000
2000
4000
8000
ENDCHAR
STARTCHAR 206A
ENCODING 8298
SWIDTH 765 0
DWIDTH 17 0
BBX 12 14 2 0
BITMAP
7FF0
8010
8010
8010
8010
8010
8010
8010
8010
8010
8010
8010
8010
8010
ENDCHAR
STARTCHAR 206B
ENCODING 8299
SWIDTH 765 0
DWIDTH 17 0
BBX 12 14 2 0
BITMAP
7FF0
8010
8010
8010
8010
8010
8010
8010
8010
8010
8010
8010
8010
8010
ENDCHAR
STARTCHAR 206C
ENCODING 8300
SWIDTH 765 0
DWIDTH 17 0
BBX 12 14 2 0
BITMAP
7FF0
8010
8010
8010
8010
8010
8010
8010
8010
8010
8010
8010
8010
8010
ENDCHAR
STARTCHAR 206D
ENCODING 8301
SWIDTH 765 0
DWIDTH 17 0
BBX 12 14 2 0
BITMAP
7FF0
8010
8010
8010
8010
8010
8010
8010
8010
8010
8010
8010
8010
8010
ENDCHAR
STARTCHAR 206E
ENCODING 8302
SWIDTH 765 0
DWIDTH 17 0
BBX 12 14 2 0
BITMAP
7FF0
8010
8010
8010
8010
8010
8010
8010
8010
8010
8010
8010
8010
8010
ENDCHAR
STARTCHAR 206F
ENCODING 8303
SWIDTH 765 0
DWIDTH 17 0
BBX 12 14 2 0
BITMAP
7FF0
8010
8010
8010
8010
8010
8010
8010
8010
8010
8010
8010
8010
8010
ENDCHAR
STARTCHAR 207F
ENCODING 8319
SWIDTH 315 0
DWIDTH 7 0
BBX 7 6 0 6
BITMAP
58
E4
44
44
44
EE
ENDCHAR
STARTCHAR 20A3
ENCODING 8355
SWIDTH 495 0
DWIDTH 11 0
BBX 10 15 0 0
BITMAP
FFC0
30C0
3040
3000
3000
3100
3100
3F00
3100
3100
3000
FE00
3000
3000
FC00
ENDCHAR
STARTCHAR 20A4
ENCODING 8356
SWIDTH 495 0
DWIDTH 11 0
BBX 10 15 1 0
BITMAP
0780
0CC0
18C0
1800
1800
1800
7F00
1800
7F00
1800
1800
1840
70C0
AF80
E700
ENDCHAR
STARTCHAR 20A7
ENCODING 8359
SWIDTH 945 0
DWIDTH 21 0
BBX 21 15 0 0
BITMAP
FF8000
31C800
30F800
307800
307EE8
307918
30D908
31D980
3F19C0
3018F0
301838
301808
301908
301988
FC0F70
ENDCHAR
STARTCHAR 20AA
ENCODING 8362
SWIDTH 765 0
DWIDTH 17 0
BBX 13 11 2 0
BITMAP
FF08
8088
8088
8088
8888
8888
8888
8808
8808
8808
8FF0
ENDCHAR
STARTCHAR 20AB
ENCODING 8363
SWIDTH 495 0
DWIDTH 11 0
BBX 7 13 2 3
BITMAP
0C
04
3E
04
3C
44
84
84
84
44
3C
00
FE
ENDCHAR
STARTCHAR 20AC
ENCODING 8364
SWIDTH 495 0
DWIDTH 11 0
BBX 12 15 -1 0
BITMAP
03E0
0C30
1810
1810
3000
3000
FFC0
3000
FF80
3000
3000
1000
1810
0C60
07C0
ENDCHAR
STARTCHAR 2105
ENCODING 8453
SWIDTH 810 0
DWIDTH 18 0
BBX 16 15 1 0
BITMAP
3804
6408
C010
C020
C020
C440
6880
391C
0126
0263
0463
0463
0863
1032
201C
ENDCHAR
STARTCHAR 2113
ENCODING 8467
SWIDTH 495 0
DWIDTH 11 0
BBX 9 15 1 0
BITMAP
0E00
1100
3100
3100
3200
3400
3800
3000
3000
7000
B000
3000
3080
3900
1E00
ENDCHAR
STARTCHAR 2116
ENCODING 8470
SWIDTH 945 0
DWIDTH 21 0
BBX 20 15 0 0
BITMAP
3C0F00
0C1300
0E1000
0E1000
0B1000
0B11C0
099360
099330
08D330
087330
0871B0
0830E0
083000
C81000
F013F0
ENDCHAR
STARTCHAR 2122
ENCODING 8482
SWIDTH 990 0
DWIDTH 22 0
BBX 20 9 1 6
BITMAP
FF7070
993860
1838E0
182D60
182D60
182760
182760
182660
3C72F0
ENDCHAR
STARTCHAR 2126
ENCODING 8486
SWIDTH 765 0
DWIDTH 17 0
BBX 15 15 1 0
BITMAP
0FE0
3838
600C
600C
C006
C006
C006
C006
E00E
600C
3838
0C60
8442
FC7E
FC7E
ENDCHAR
STARTCHAR 212E
ENCODING 8494
SWIDTH 585 0
DWIDTH 13 0
BBX 11 12 1 0
BITMAP
1F00
2080
4040
C060
C060
FFE0
C000
C000
C000
4040
2180
1F00
ENDCHAR
STARTCHAR 2153
ENCODING 8531
SWIDTH 765 0
DWIDTH 17 0
BBX 15 15 1 0
BITMAP
4010
C020
4040
4040
4080
4100
4100
E21C
0422
0404
080E
1002
1002
2002
403C
ENDCHAR
STARTCHAR 2154
ENCODING 8532
SWIDTH 765 0
DWIDTH 17 0
BBX 16 15 0 0
BITMAP
7808
8410
0420
0820
1040
2080
4080
FD0E
0211
0202
0407
0801
0801
1001
201E
ENDCHAR
STARTCHAR 215B
ENCODING 8539
SWIDTH 765 0
DWIDTH 17 0
BBX 14 15 2 0
BITMAP
4010
C020
4020
4040
4080
4100
4100
E238
0444
0444
0838
1048
1044
2044
4038
ENDCHAR
STARTCHAR 215C
ENCODING 8540
SWIDTH 765 0
DWIDTH 17 0
BBX 16 15 0 0
BITMAP
7004
8808
0810
1010
7820
0840
0880
F08E
0111
0211
020E
0412
0811
0811
100E
ENDCHAR
STARTCHAR 215D
ENCODING 8541
SWIDTH 765 0
DWIDTH 17 0
BBX 15 15 1 0
BITMAP
7808
4010
E020
1040
0840
0880
0900
F11C
0222
0422
041C
0824
1022
1022
201C
ENDCHAR
STARTCHAR 215E
ENCODING 8542
SWIDTH 765 0
DWIDTH 17 0
BBX 16 15 0 0
BITMAP
7C04
8408
0810
0820
0820
1040
1080
208E
0111
0211
020E
0412
0811
0811
100E
ENDCHAR
STARTCHAR 2190
ENCODING 8592
SWIDTH 990 0
DWIDTH 22 0
BBX 20 7 1 4
BITMAP
080000
100000
600000
FFFFF0
600000
100000
080000
ENDCHAR
STARTCHAR 2191
ENCODING 8593
SWIDTH 495 0
DWIDTH 11 0
BBX 7 19 2 -4
BITMAP
10
38
38
54
92
10
10
10
10
10
10
10
10
10
10
10
10
10
10
ENDCHAR
STARTCHAR 2192
ENCODING 8594
SWIDTH 990 0
DWIDTH 22 0
BBX 20 7 1 4
BITMAP
000100
000080
000060
FFFFF0
000060
000080
000100
ENDCHAR
STARTCHAR 2193
ENCODING 8595
SWIDTH 495 0
DWIDTH 11 0
BBX 7 19 2 -4
BITMAP
10
10
10
10
10
10
10
10
10
10
10
10
10
10
92
54
38
38
10
ENDCHAR
STARTCHAR 2194
ENCODING 8596
SWIDTH 990 0
DWIDTH 22 0
BBX 20 7 1 4
BITMAP
080100
100080
600060
FFFFF0
600060
100080
080100
ENDCHAR
STARTCHAR 2195
ENCODING 8597
SWIDTH 495 0
DWIDTH 11 0
BBX 7 20 2 -5
BITMAP
10
38
38
54
92
10
10
10
10
10
10
10
10
10
10
92
54
38
38
10
ENDCHAR
STARTCHAR 21A8
ENCODING 8616
SWIDTH 495 0
DWIDTH 11 0
BBX 7 22 2 -7
BITMAP
10
38
38
54
92
10
10
10
10
10
10
10
10
10
10
92
54
38
38
10
00
FE
ENDCHAR
STARTCHAR 2202
ENCODING 8706
SWIDTH 495 0
DWIDTH 11 0
BBX 11 16 0 0
BITMAP
0780
1FC0
10C0
2060
0020
0020
0F20
38E0
7020
6040
C040
C040
C080
C180
6300
3C00
ENDCHAR
STARTCHAR 2206
ENCODING 8710
SWIDTH 630 0
DWIDTH 14 0
BBX 13 14 0 0
BITMAP
0100
0300
0300
0580
0580
08C0
08C0
10C0
1060
2060
2030
4030
4030
FFF8
ENDCHAR
STARTCHAR 220F
ENCODING 8719
SWIDTH 810 0
DWIDTH 18 0
BBX 16 21 1 -5
BITMAP
FFFF
300C
300C
300C
300C
300C
300C
300C
300C
300C
300C
300C
300C
300C
300C
300C
300C
300C
300C
300C
FC3F
ENDCHAR
STARTCHAR 2211
ENCODING 8721
SWIDTH 720 0
DWIDTH 16 0
BBX 14 21 1 -5
BITMAP
FFF8
4008
6008
3000
1800
0800
0C00
0600
0300
0300
0200
0200
0400
0800
0800
1000
2000
2004
4004
7FFC
FFFC
ENDCHAR
STARTCHAR 2212
ENCODING 8722
SWIDTH 540 0
DWIDTH 12 0
BBX 11 1 0 7
BITMAP
FFE0
ENDCHAR
STARTCHAR 2215
ENCODING 8725
SWIDTH 180 0
DWIDTH 4 0
BBX 11 15 -4 0
BITMAP
0020
0040
0080
0080
0100
0200
0200
0400
0800
0800
1000
2000
2000
4000
8000
ENDCHAR
STARTCHAR 2219
ENCODING 8729
SWIDTH 225 0
DWIDTH 5 0
BBX 2 2 1 6
BITMAP
C0
C0
ENDCHAR
STARTCHAR 221A
ENCODING 8730
SWIDTH 540 0
DWIDTH 12 0
BBX 11 21 1 -1
BITMAP
0020
0020
0020
0040
0040
0040
0040
0040
0040
2080
D080
1080
0880
0880
0480
0500
0300
0300
0300
0100
0100
ENDCHAR
STARTCHAR 221E
ENCODING 8734
SWIDTH 720 0
DWIDTH 16 0
BBX 15 9 0 2
BITMAP
0078
38C4
4586
8382
8302
8302
8702
4684
3C78
ENDCHAR
STARTCHAR 221F
ENCODING 8735
SWIDTH 990 0
DWIDTH 22 0
BBX 14 14 4 0
BITMAP
8000
8000
8000
8000
8000
8000
8000
8000
8000
8000
8000
8000
8000
FFFC
ENDCHAR
STARTCHAR 2229
ENCODING 8745
SWIDTH 720 0
DWIDTH 16 0
BBX 12 16 2 0
BITMAP
0F00
30C0
4020
4020
8010
8010
8010
8010
8010
8010
8010
8010
8010
8010
8010
8010
ENDCHAR
STARTCHAR 222B
ENCODING 8747
SWIDTH 270 0
DWIDTH 6 0
BBX 6 22 0 -2
BITMAP
1C
1C
20
20
20
20
30
30
30
30
30
30
30
30
30
30
30
10
10
10
E0
E0
ENDCHAR
STARTCHAR 2248
ENCODING 8776
SWIDTH 540 0
DWIDTH 12 0
BBX 12 8 0 3
BITMAP
7810
C630
81E0
0000
0000
7810
C630
81E0
ENDCHAR
STARTCHAR 2260
ENCODING 8800
SWIDTH 540 0
DWIDTH 12 0
BBX 11 18 0 -3
BITMAP
0080
0080
0080
0100
0100
0200
FFE0
0200
0400
0400
0800
FFE0
0800
1000
1000
2000
2000
2000
ENDCHAR
STARTCHAR 2261
ENCODING 8801
SWIDTH 540 0
DWIDTH 12 0
BBX 12 9 0 3
BITMAP
FFF0
0000
0000
0000
FFF0
0000
0000
0000
FFF0
ENDCHAR
STARTCHAR 2264
ENCODING 8804
SWIDTH 540 0
DWIDTH 12 0
BBX 12 15 0 -1
BITMAP
0010
00E0
0300
0C00
7000
8000
7000
0C00
0300
00E0
0010
0000
0000
0000
FFF0
ENDCHAR
STARTCHAR 2265
ENCODING 8805
SWIDTH 540 0
DWIDTH 12 0
BBX 12 15 0 -1
BITMAP
8000
7000
0C00
0300
00E0
0010
00E0
0300
0C00
7000
8000
0000
0000
0000
FFF0
ENDCHAR
STARTCHAR 2302
ENCODING 8962
SWIDTH 585 0
DWIDTH 13 0
BBX 10 11 2 0
BITMAP
0C00
1200
2100
4080
8040
8040
8040
8040
8040
8040
FFC0
ENDCHAR
STARTCHAR 2310
ENCODING 8976
SWIDTH 540 0
DWIDTH 12 0
BBX 11 4 0 5
BITMAP
FFE0
8000
8000
8000
ENDCHAR
STARTCHAR 2320
ENCODING 8992
SWIDTH 585 0
DWIDTH 13 0
BBX 5 24 6 -6
BITMAP
38
58
C0
C0
C0
C0
C0
C0
C0
C0
C0
C0
C0
C0
C0
C0
C0
C0
C0
C0
C0
C0
C0
C0
ENDCHAR
STARTCHAR 2321
ENCODING 8993
SWIDTH 585 0
DWIDTH 13 0
BBX 5 24 3 -6
BITMAP
18
18
18
18
18
18
18
18
18
18
18
18
18
18
18
18
18
18
18
18
18
18
D0
E0
ENDCHAR
STARTCHAR 2500
ENCODING 9472
SWIDTH 720 0
DWIDTH 16 0
BBX 16 2 0 6
BITMAP
FFFF
FFFF
ENDCHAR
STARTCHAR 2502
ENCODING 9474
SWIDTH 720 0
DWIDTH 16 0
BBX 2 27 7 -7
BITMAP
C0
C0
C0
C0
C0
C0
C0
C0
C0
C0
C0
C0
C0
C0
C0
C0
C0
C0
C0
C0
C0
C0
C0
C0
C0
C0
C0
ENDCHAR
STARTCHAR 250C
ENCODING 9484
SWIDTH 720 0
DWIDTH 16 0
BBX 9 15 7 -7
BITMAP
FF80
FF80
C000
C000
C000
C000
C000
C000
C000
C000
C000
C000
C000
C000
C000
ENDCHAR
STARTCHAR 2510
ENCODING 9488
SWIDTH 720 0
DWIDTH 16 0
BBX 9 15 0 -7
BITMAP
FF80
FF80
0180
0180
0180
0180
0180
0180
0180
0180
0180
0180
0180
0180
0180
ENDCHAR
STARTCHAR 2514
ENCODING 9492
SWIDTH 720 0
DWIDTH 16 0
BBX 9 14 7 6
BITMAP
C000
C000
C000
C000
C000
C000
C000
C000
C000
C000
C000
C000
FF80
FF80
ENDCHAR
STARTCHAR 2518
ENCODING 9496
SWIDTH 720 0
DWIDTH 16 0
BBX 9 14 0 6
BITMAP
0180
0180
0180
0180
0180
0180
0180
0180
0180
0180
0180
0180
FF80
FF80
ENDCHAR
STARTCHAR 251C
ENCODING 9500
SWIDTH 720 0
DWIDTH 16 0
BBX 9 27 7 -7
BITMAP
C000
C000
C000
C000
C000
C000
C000
C000
C000
C000
C000
C000
FF80
FF80
C000
C000
C000
C000
C000
C000
C000
C000
C000
C000
C000
C000
C000
ENDCHAR
STARTCHAR 2524
ENCODING 9508
SWIDTH 720 0
DWIDTH 16 0
BBX 9 27 0 -7
BITMAP
0180
0180
0180
0180
0180
0180
0180
0180
0180
0180
0180
0180
FF80
FF80
0180
0180
0180
0180
0180
0180
0180
0180
0180
0180
0180
0180
0180
ENDCHAR
STARTCHAR 252C
ENCODING 9516
SWIDTH 720 0
DWIDTH 16 0
BBX 16 15 0 -7
BITMAP
FFFF
FFFF
0180
0180
0180
0180
0180
0180
0180
0180
0180
0180
0180
0180
0180
ENDCHAR
STARTCHAR 2534
ENCODING 9524
SWIDTH 720 0
DWIDTH 16 0
BBX 16 14 0 6
BITMAP
0180
0180
0180
0180
0180
0180
0180
0180
0180
0180
0180
0180
FFFF
FFFF
ENDCHAR
STARTCHAR 253C
ENCODING 9532
SWIDTH 720 0
DWIDTH 16 0
BBX 16 27 0 -7
BITMAP
0180
0180
0180
0180
0180
0180
0180
0180
0180
0180
0180
0180
FFFF
FFFF
0180
0180
0180
0180
0180
0180
0180
0180
0180
0180
0180
0180
0180
ENDCHAR
STARTCHAR 2550
ENCODING 9552
SWIDTH 720 0
DWIDTH 16 0
BBX 16 6 0 4
BITMAP
FFFF
FFFF
0000
0000
FFFF
FFFF
ENDCHAR
STARTCHAR 2551
ENCODING 9553
SWIDTH 720 0
DWIDTH 16 0
BBX 6 27 5 -7
BITMAP
CC
CC
CC
CC
CC
CC
CC
CC
CC
CC
CC
CC
CC
CC
CC
CC
CC
CC
CC
CC
CC
CC
CC
CC
CC
CC
CC
ENDCHAR
STARTCHAR 2552
ENCODING 9554
SWIDTH 720 0
DWIDTH 16 0
BBX 9 17 7 -7
BITMAP
FF80
FF80
C000
C000
FF80
FF80
C000
C000
C000
C000
C000
C000
C000
C000
C000
C000
C000
ENDCHAR
STARTCHAR 2553
ENCODING 9555
SWIDTH 720 0
DWIDTH 16 0
BBX 11 15 5 -7
BITMAP
FFE0
FFE0
CC00
CC00
CC00
CC00
CC00
CC00
CC00
CC00
CC00
CC00
CC00
CC00
CC00
ENDCHAR
STARTCHAR 2554
ENCODING 9556
SWIDTH 720 0
DWIDTH 16 0
BBX 11 17 5 -7
BITMAP
FFE0
FFE0
C000
C000
CFE0
CFE0
CC00
CC00
CC00
CC00
CC00
CC00
CC00
CC00
CC00
CC00
CC00
ENDCHAR
STARTCHAR 2555
ENCODING 9557
SWIDTH 720 0
DWIDTH 16 0
BBX 9 17 0 -7
BITMAP
FF80
FF80
0180
0180
FF80
FF80
0180
0180
0180
0180
0180
0180
0180
0180
0180
0180
0180
ENDCHAR
STARTCHAR 2556
ENCODING 9558
SWIDTH 720 0
DWIDTH 16 0
BBX 11 15 0 -7
BITMAP
FFE0
FFE0
0660
0660
0660
0660
0660
0660
0660
0660
0660
0660
0660
0660
0660
ENDCHAR
STARTCHAR 2557
ENCODING 9559
SWIDTH 720 0
DWIDTH 16 0
BBX 11 17 0 -7
BITMAP
FFE0
FFE0
0060
0060
FE60
FE60
0660
0660
0660
0660
0660
0660
0660
0660
0660
0660
0660
ENDCHAR
STARTCHAR 2558
ENCODING 9560
SWIDTH 720 0
DWIDTH 16 0
BBX 9 16 7 4
BITMAP
C000
C000
C000
C000
C000
C000
C000
C000
C000
C000
FF80
FF80
C000
C000
FF80
FF80
ENDCHAR
STARTCHAR 2559
ENCODING 9561
SWIDTH 720 0
DWIDTH 16 0
BBX 11 14 5 6
BITMAP
CC00
CC00
CC00
CC00
CC00
CC00
CC00
CC00
CC00
CC00
CC00
CC00
FFE0
FFE0
ENDCHAR
STARTCHAR 255A
ENCODING 9562
SWIDTH 720 0
DWIDTH 16 0
BBX 11 16 5 4
BITMAP
CC00
CC00
CC00
CC00
CC00
CC00
CC00
CC00
CC00
CC00
CFE0
CFE0
C000
C000
FFE0
FFE0
ENDCHAR
STARTCHAR 255B
ENCODING 9563
SWIDTH 720 0
DWIDTH 16 0
BBX 9 16 0 4
BITMAP
0180
0180
0180
0180
0180
0180
0180
0180
0180
0180
FF80
FF80
0180
0180
FF80
FF80
ENDCHAR
STARTCHAR 255C
ENCODING 9564
SWIDTH 720 0
DWIDTH 16 0
BBX 11 14 0 6
BITMAP
0660
0660
0660
0660
0660
0660
0660
0660
0660
0660
0660
0660
FFE0
FFE0
ENDCHAR
STARTCHAR 255D
ENCODING 9565
SWIDTH 720 0
DWIDTH 16 0
BBX 11 16 0 4
BITMAP
0660
0660
0660
0660
0660
0660
0660
0660
0660
0660
FE60
FE60
0060
0060
FFE0
FFE0
ENDCHAR
STARTCHAR 255E
ENCODING 9566
SWIDTH 720 0
DWIDTH 16 0
BBX 9 27 7 -7
BITMAP
C000
C000
C000
C000
C000
C000
C000
C000
C000
C000
FF80
FF80
C000
C000
FF80
FF80
C000
C000
C000
C000
C000
C000
C000
C000
C000
C000
C000
ENDCHAR
STARTCHAR 255F
ENCODING 9567
SWIDTH 720 0
DWIDTH 16 0
BBX 11 27 5 -7
BITMAP
CC00
CC00
CC00
CC00
CC00
CC00
CC00
CC00
CC00
CC00
CC00
CC00
CFE0
CFE0
CC00
CC00
CC00
CC00
CC00
CC00
CC00
CC00
CC00
CC00
CC00
CC00
CC00
ENDCHAR
STARTCHAR 2560
ENCODING 9568
SWIDTH 720 0
DWIDTH 16 0
BBX 11 27 5 -7
BITMAP
CC00
CC00
CC00
CC00
CC00
CC00
CC00
CC00
CC00
CC00
CFE0
CFE0
C000
C000
CFE0
CFE0
CC00
CC00
CC00
CC00
CC00
CC00
CC00
CC00
CC00
CC00
CC00
ENDCHAR
STARTCHAR 2561
ENCODING 9569
SWIDTH 720 0
DWIDTH 16 0
BBX 9 27 0 -7
BITMAP
0180
0180
0180
0180
0180
0180
0180
0180
0180
0180
FF80
FF80
0180
0180
FF80
FF80
0180
0180
0180
0180
0180
0180
0180
0180
0180
0180
0180
ENDCHAR
STARTCHAR 2562
ENCODING 9570
SWIDTH 720 0
DWIDTH 16 0
BBX 11 27 0 -7
BITMAP
0660
0660
0660
0660
0660
0660
0660
0660
0660
0660
0660
0660
FE60
FE60
0660
0660
0660
0660
0660
0660
0660
0660
0660
0660
0660
0660
0660
ENDCHAR
STARTCHAR 2563
ENCODING 9571
SWIDTH 720 0
DWIDTH 16 0
BBX 11 27 0 -7
BITMAP
0660
0660
0660
0660
0660
0660
0660
0660
0660
0660
FE60
FE60
0060
0060
FE60
FE60
0660
0660
0660
0660
0660
0660
0660
0660
0660
0660
0660
ENDCHAR
STARTCHAR 2564
ENCODING 9572
SWIDTH 720 0
DWIDTH 16 0
BBX 16 17 0 -7
BITMAP
FFFF
FFFF
0000
0000
FFFF
FFFF
0180
0180
0180
0180
0180
0180
0180
0180
0180
0180
0180
ENDCHAR
STARTCHAR 2565
ENCODING 9573
SWIDTH 720 0
DWIDTH 16 0
BBX 16 15 0 -7
BITMAP
FFFF
FFFF
0660
0660
0660
0660
0660
0660
0660
0660
0660
0660
0660
0660
0660
ENDCHAR
STARTCHAR 2566
ENCODING 9574
SWIDTH 720 0
DWIDTH 16 0
BBX 16 17 0 -7
BITMAP
FFFF
FFFF
0000
0000
FE7F
FE7F
0660
0660
0660
0660
0660
0660
0660
0660
0660
0660
0660
ENDCHAR
STARTCHAR 2567
ENCODING 9575
SWIDTH 720 0
DWIDTH 16 0
BBX 16 16 0 4
BITMAP
0180
0180
0180
0180
0180
0180
0180
0180
0180
0180
FFFF
FFFF
0000
0000
FFFF
FFFF
ENDCHAR
STARTCHAR 2568
ENCODING 9576
SWIDTH 720 0
DWIDTH 16 0
BBX 16 14 0 6
BITMAP
0660
0660
0660
0660
0660
0660
0660
0660
0660
0660
0660
0660
FFFF
FFFF
ENDCHAR
STARTCHAR 2569
ENCODING 9577
SWIDTH 720 0
DWIDTH 16 0
BBX 16 16 0 4
BITMAP
0660
0660
0660
0660
0660
0660
0660
0660
0660
0660
FE7F
FE7F
0000
0000
FFFF
FFFF
ENDCHAR
STARTCHAR 256A
ENCODING 9578
SWIDTH 720 0
DWIDTH 16 0
BBX 16 27 0 -7
BITMAP
0180
0180
0180
0180
0180
0180
0180
0180
0180
0180
FFFF
FFFF
0180
0180
FFFF
FFFF
0180
0180
0180
0180
0180
0180
0180
0180
0180
0180
0180
ENDCHAR
STARTCHAR 256B
ENCODING 9579
SWIDTH 720 0
DWIDTH 16 0
BBX 16 27 0 -7
BITMAP
0660
0660
0660
0660
0660
0660
0660
0660
0660
0660
0660
0660
FFFF
FFFF
0660
0660
0660
0660
0660
0660
0660
0660
0660
0660
0660
0660
0660
ENDCHAR
STARTCHAR 256C
ENCODING 9580
SWIDTH 720 0
DWIDTH 16 0
BBX 16 27 0 -7
BITMAP
0660
0660
0660
0660
0660
0660
0660
0660
0660
0660
FE7F
FE7F
0000
0000
FE7F
FE7F
0660
0660
0660
0660
0660
0660
0660
0660
0660
0660
0660
ENDCHAR
STARTCHAR 2580
ENCODING 9600
SWIDTH 720 0
DWIDTH 16 0
BBX 16 13 0 7
BITMAP
FFFF
FFFF
FFFF
FFFF
FFFF
FFFF
FFFF
FFFF
FFFF
FFFF
FFFF
FFFF
FFFF
ENDCHAR
STARTCHAR 2584
ENCODING 9604
SWIDTH 720 0
DWIDTH 16 0
BBX 16 13 0 -7
BITMAP
FFFF
FFFF
FFFF
FFFF
FFFF
FFFF
FFFF
FFFF
FFFF
FFFF
FFFF
FFFF
FFFF
ENDCHAR
STARTCHAR 2588
ENCODING 9608
SWIDTH 720 0
DWIDTH 16 0
BBX 16 27 0 -7
BITMAP
FFFF
FFFF
FFFF
FFFF
FFFF
FFFF
FFFF
FFFF
FFFF
FFFF
FFFF
FFFF
FFFF
FFFF
FFFF
FFFF
FFFF
FFFF
FFFF
FFFF
FFFF
FFFF
FFFF
FFFF
FFFF
FFFF
FFFF
ENDCHAR
STARTCHAR 258C
ENCODING 9612
SWIDTH 720 0
DWIDTH 16 0
BBX 8 27 0 -7
BITMAP
FF
FF
FF
FF
FF
FF
FF
FF
FF
FF
FF
FF
FF
FF
FF
FF
FF
FF
FF
FF
FF
FF
FF
FF
FF
FF
FF
ENDCHAR
STARTCHAR 2590
ENCODING 9616
SWIDTH 720 0
DWIDTH 16 0
BBX 8 27 8 -7
BITMAP
FF
FF
FF
FF
FF
FF
FF
FF
FF
FF
FF
FF
FF
FF
FF
FF
FF
FF
FF
FF
FF
FF
FF
FF
FF
FF
FF
ENDCHAR
STARTCHAR 2591
ENCODING 9617
SWIDTH 540 0
DWIDTH 12 0
BBX 11 19 1 -5
BITMAP
8880
0000
2220
0000
8880
0000
2220
0000
8880
0000
2220
0000
8880
0000
2220
0000
8880
0000
2220
ENDCHAR
STARTCHAR 2592
ENCODING 9618
SWIDTH 540 0
DWIDTH 12 0
BBX 12 19 0 -5
BITMAP
5550
0000
AAA0
0000
5550
0000
AAA0
0000
5550
0000
AAA0
0000
5550
0000
AAA0
0000
5550
0000
AAA0
ENDCHAR
STARTCHAR 2593
ENCODING 9619
SWIDTH 540 0
DWIDTH 12 0
BBX 12 20 0 -7
BITMAP
5550
FFF0
AAA0
FFF0
5550
FFF0
AAA0
FFF0
5550
FFF0
AAA0
FFF0
5550
FFF0
AAA0
FFF0
5550
FFF0
AAA0
FFF0
ENDCHAR
STARTCHAR 25A0
ENCODING 9632
SWIDTH 585 0
DWIDTH 13 0
BBX 10 11 1 0
BITMAP
FFC0
FFC0
FFC0
FFC0
FFC0
FFC0
FFC0
FFC0
FFC0
FFC0
FFC0
ENDCHAR
STARTCHAR 25A1
ENCODING 9633
SWIDTH 630 0
DWIDTH 14 0
BBX 10 10 2 0
BITMAP
FFC0
8040
8040
8040
8040
8040
8040
8040
8040
FFC0
ENDCHAR
STARTCHAR 25AA
ENCODING 9642
SWIDTH 315 0
DWIDTH 7 0
BBX 5 5 1 5
BITMAP
F8
F8
F8
F8
F8
ENDCHAR
STARTCHAR 25AB
ENCODING 9643
SWIDTH 315 0
DWIDTH 7 0
BBX 5 5 1 5
BITMAP
F8
88
88
88
F8
ENDCHAR
STARTCHAR 25AC
ENCODING 9644
SWIDTH 990 0
DWIDTH 22 0
BBX 22 4 0 3
BITMAP
FFFFFC
FFFFFC
FFFFFC
FFFFFC
ENDCHAR
STARTCHAR 25B2
ENCODING 9650
SWIDTH 990 0
DWIDTH 22 0
BBX 15 15 3 0
BITMAP
0100
0100
0380
0380
07C0
07C0
0FE0
0FE0
1FF0
1FF0
3FF8
3FF8
7FFC
7FFC
FFFE
ENDCHAR
STARTCHAR 25BA
ENCODING 9658
SWIDTH 990 0
DWIDTH 22 0
BBX 15 15 3 0
BITMAP
8000
E000
F800
FE00
FF80
FFE0
FFF8
FFFE
FFF8
FFE0
FF80
FE00
F800
E000
8000
ENDCHAR
STARTCHAR 25BC
ENCODING 9660
SWIDTH 990 0
DWIDTH 22 0
BBX 15 15 3 0
BITMAP
FFFE
7FFC
7FFC
3FF8
3FF8
1FF0
1FF0
0FE0
0FE0
07C0
07C0
0380
0380
0100
0100
ENDCHAR
STARTCHAR 25C4
ENCODING 9668
SWIDTH 990 0
DWIDTH 22 0
BBX 15 15 3 0
BITMAP
0002
000E
003E
00FE
03FE
0FFE
3FFE
FFFE
3FFE
0FFE
03FE
00FE
003E
000E
0002
ENDCHAR
STARTCHAR 25CA
ENCODING 9674
SWIDTH 495 0
DWIDTH 11 0
BBX 9 16 1 0
BITMAP
0800
1400
1400
2200
2200
4100
4100
8080
8080
4100
4100
2200
2200
1400
1400
0800
ENDCHAR
STARTCHAR 25CB
ENCODING 9675
SWIDTH 585 0
DWIDTH 13 0
BBX 10 10 2 1
BITMAP
1E00
6180
4080
8040
8040
8040
8040
4080
6180
1E00
ENDCHAR
STARTCHAR 25CF
ENCODING 9679
SWIDTH 630 0
DWIDTH 14 0
BBX 10 10 2 1
BITMAP
1E00
7F80
7F80
FFC0
FFC0
FFC0
FFC0
7F80
7F80
1E00
ENDCHAR
STARTCHAR 25D8
ENCODING 9688
SWIDTH 585 0
DWIDTH 13 0
BBX 11 11 1 0
BITMAP
FFE0
FFE0
F1E0
E0E0
C060
C060
C060
E0E0
F1E0
FFE0
FFE0
ENDCHAR
STARTCHAR 25D9
ENCODING 9689
SWIDTH 585 0
DWIDTH 13 0
BBX 12 12 0 0
BITMAP
FFF0
F0F0
CF30
DFB0
BFD0
BFD0
BFD0
BFD0
DFB0
CF30
F0F0
FFF0
ENDCHAR
STARTCHAR 25E6
ENCODING 9702
SWIDTH 315 0
DWIDTH 7 0
BBX 5 5 1 5
BITMAP
70
88
88
88
70
ENDCHAR
STARTCHAR 263A
ENCODING 9786
SWIDTH 990 0
DWIDTH 22 0
BBX 14 14 4 -1
BITMAP
0FC0
1860
2010
4008
D86C
9864
8004
8004
9024
4848
4788
2010
1860
07C0
ENDCHAR
STARTCHAR 263B
ENCODING 9787
SWIDTH 1035 0
DWIDTH 23 0
BBX 14 14 5 -1
BITMAP
0FC0
1FE0
3FF0
7FF8
E79C
E79C
FFFC
FFFC
EFDC
F7BC
7878
3FF0
1FE0
0FC0
ENDCHAR
STARTCHAR 263C
ENCODING 9788
SWIDTH 900 0
DWIDTH 20 0
BBX 21 21 0 -2
BITMAP
002000
002000
002000
102040
08F880
070700
060300
040100
080080
080080
F800F8
080080
080080
040100
060300
070700
08F880
102040
002000
002000
002000
ENDCHAR
STARTCHAR 2640
ENCODING 9792
SWIDTH 765 0
DWIDTH 17 0
BBX 11 21 2 -5
BITMAP
1F00
2080
4040
8020
8020
8020
8020
8020
4040
2080
1F00
0400
0400
0400
0400
FFE0
0400
0400
0400
0400
0400
ENDCHAR
STARTCHAR 2642
ENCODING 9794
SWIDTH 765 0
DWIDTH 17 0
BBX 15 20 1 -3
BITMAP
0018
00F8
032C
0024
0064
0046
00C2
0080
0180
1F00
2080
4040
8020
8020
8020
8020
8020
4040
2080
1F00
ENDCHAR
STARTCHAR 2660
ENCODING 9824
SWIDTH 540 0
DWIDTH 12 0
BBX 11 13 0 0
BITMAP
0400
0400
0E00
1F00
3F80
7FC0
FFE0
FFE0
FFE0
75C0
0400
0F00
7FC0
ENDCHAR
STARTCHAR 2663
ENCODING 9827
SWIDTH 765 0
DWIDTH 17 0
BBX 15 13 1 0
BITMAP
0380
0FE0
0FE0
0FE0
77DC
FFFE
FFFE
FFFE
FD7E
793C
0380
07C0
1FF0
ENDCHAR
STARTCHAR 2665
ENCODING 9829
SWIDTH 585 0
DWIDTH 13 0
BBX 11 13 0 0
BITMAP
71C0
FBE0
FBE0
FFE0
FFE0
7FC0
3FC0
3F80
1F00
0E00
0E00
0400
0400
ENDCHAR
STARTCHAR 2666
ENCODING 9830
SWIDTH 495 0
DWIDTH 11 0
BBX 11 13 0 0
BITMAP
0400
0E00
0E00
1F00
3F80
7FC0
FFE0
7FC0
3F80
1F00
0E00
0E00
0400
ENDCHAR
STARTCHAR 266A
ENCODING 9834
SWIDTH 495 0
DWIDTH 11 0
BBX 11 15 0 0
BITMAP
0780
07C0
0460
0420
0420
0400
0400
0400
0400
0400
7C00
FC00
FC00
FC00
7800
ENDCHAR
STARTCHAR 266B
ENCODING 9835
SWIDTH 765 0
DWIDTH 17 0
BBX 13 18 1 -1
BITMAP
0008
0078
03E8
0788
0608
0408
0408
0408
0408
0408
0408
04F8
05F8
7DF8
FDF8
FCF0
FC00
7800
ENDCHAR
STARTCHAR E801
ENCODING 59393
SWIDTH 270 0
DWIDTH 6 0
BBX 5 15 0 0
BITMAP
80
00
00
40
70
78
08
08
08
08
08
08
08
08
08
ENDCHAR
STARTCHAR E802
ENCODING 59394
SWIDTH 450 0
DWIDTH 10 0
BBX 8 16 1 -4
BITMAP
80
FF
FF
01
01
01
01
01
11
01
11
01
01
01
01
01
ENDCHAR
STARTCHAR E803
ENCODING 59395
SWIDTH 450 0
DWIDTH 10 0
BBX 8 16 1 -4
BITMAP
80
FF
FF
01
01
01
01
01
3D
11
11
01
01
01
01
01
ENDCHAR
STARTCHAR E804
ENCODING 59396
SWIDTH 450 0
DWIDTH 10 0
BBX 10 16 -1 0
BITMAP
4000
6000
A000
2000
2000
3F80
3FC0
0040
0040
0040
0080
0100
0200
0400
0400
0400
ENDCHAR
STARTCHAR E805
ENCODING 59397
SWIDTH 450 0
DWIDTH 10 0
BBX 10 16 -1 0
BITMAP
4000
6000
A000
2000
2000
3F80
3FC0
0040
0040
0040
0880
0100
0200
0400
0400
0400
ENDCHAR
STARTCHAR E818
ENCODING 59416
SWIDTH 225 0
DWIDTH 5 0
BBX 5 7 0 13
BITMAP
18
60
18
68
28
B8
C0
ENDCHAR
STARTCHAR E83A
ENCODING 59450
SWIDTH 630 0
DWIDTH 14 0
BBX 15 2 -1 3
BITMAP
FFFE
FFFE
ENDCHAR
STARTCHAR F001
ENCODING 61441
SWIDTH 540 0
DWIDTH 12 0
BBX 11 16 0 0
BITMAP
0F80
19C0
30C0
3000
3000
FFC0
30C0
30C0
30C0
30C0
30C0
30C0
30C0
30C0
30C0
79E0
ENDCHAR
STARTCHAR F002
ENCODING 61442
SWIDTH 540 0
DWIDTH 12 0
BBX 11 16 0 0
BITMAP
0E40
13C0
30C0
30C0
30C0
FFC0
30C0
30C0
30C0
30C0
30C0
30C0
30C0
30C0
30C0
79E0
ENDCHAR
STARTCHAR F004
ENCODING 61444
SWIDTH 315 0
DWIDTH 7 0
BBX 3 5 2 -6
BITMAP
C0
E0
20
20
C0
ENDCHAR
STARTCHAR F005
ENCODING 61445
SWIDTH 315 0
DWIDTH 7 0
BBX 4 4 2 -5
BITMAP
60
30
30
E0
ENDCHAR
STARTCHAR F006
ENCODING 61446
SWIDTH 0 0
DWIDTH 0 0
BBX 2 2 -5 18
BITMAP
40
80
ENDCHAR
STARTCHAR F007
ENCODING 61447
SWIDTH 0 0
DWIDTH 0 0
BBX 3 2 -9 18
BITMAP
60
80
ENDCHAR
STARTCHAR F008
ENCODING 61448
SWIDTH 0 0
DWIDTH 0 0
BBX 3 4 -4 11
BITMAP
60
40
80
80
ENDCHAR
STARTCHAR F009
ENCODING 61449
SWIDTH 0 0
DWIDTH 0 0
BBX 3 3 -6 17
BITMAP
60
C0
80
ENDCHAR
STARTCHAR F00A
ENCODING 61450
SWIDTH 765 0
DWIDTH 17 0
BBX 12 14 2 0
BITMAP
7FF0
8010
8010
8010
8010
8010
8010
8010
8010
8010
8010
8010
8010
8010
ENDCHAR
STARTCHAR F00B
ENCODING 61451
SWIDTH 765 0
DWIDTH 17 0
BBX 12 14 2 0
BITMAP
7FF0
8010
8010
8010
8010
8010
8010
8010
8010
8010
8010
8010
8010
8010
ENDCHAR
STARTCHAR F00C
ENCODING 61452
SWIDTH 765 0
DWIDTH 17 0
BBX 12 14 2 0
BITMAP
7FF0
8010
8010
8010
8010
8010
8010
8010
8010
8010
8010
8010
8010
8010
ENDCHAR
STARTCHAR F00D
ENCODING 61453
SWIDTH 765 0
DWIDTH 17 0
BBX 12 14 2 0
BITMAP
7FF0
8010
8010
8010
8010
8010
8010
8010
8010
8010
8010
8010
8010
8010
ENDCHAR
STARTCHAR F00E
ENCODING 61454
SWIDTH 765 0
DWIDTH 17 0
BBX 12 14 2 0
BITMAP
7FF0
8010
8010
8010
8010
8010
8010
8010
8010
8010
8010
8010
8010
8010
ENDCHAR
STARTCHAR F00F
ENCODING 61455
SWIDTH 0 0
DWIDTH 0 0
BBX 3 4 -7 11
BITMAP
C0
40
20
20
ENDCHAR
STARTCHAR F010
ENCODING 61456
SWIDTH 0 0
DWIDTH 0 0
BBX 3 1 -5 19
BITMAP
E0
ENDCHAR
STARTCHAR F011
ENCODING 61457
SWIDTH 0 0
DWIDTH 0 0
BBX 3 1 -9 19
BITMAP
E0
ENDCHAR
STARTCHAR F012
ENCODING 61458
SWIDTH 0 0
DWIDTH 0 0
BBX 4 3 -4 12
BITMAP
F0
10
60
ENDCHAR
STARTCHAR F013
ENCODING 61459
SWIDTH 0 0
DWIDTH 0 0
BBX 4 3 -6 17
BITMAP
F0
10
60
ENDCHAR
STARTCHAR F014
ENCODING 61460
SWIDTH 0 0
DWIDTH 0 0
BBX 4 3 -6 12
BITMAP
F0
10
60
ENDCHAR
STARTCHAR F015
ENCODING 61461
SWIDTH 0 0
DWIDTH 0 0
BBX 8 2 -12 18
BITMAP
71
8E
ENDCHAR
STARTCHAR F016
ENCODING 61462
SWIDTH 0 0
DWIDTH 0 0
BBX 8 2 -12 17
BITMAP
71
8E
ENDCHAR
STARTCHAR F017
ENCODING 61463
SWIDTH 0 0
DWIDTH 0 0
BBX 8 2 -12 17
BITMAP
71
8E
ENDCHAR
STARTCHAR F018
ENCODING 61464
SWIDTH 0 0
DWIDTH 0 0
BBX 8 2 -13 17
BITMAP
71
8E
ENDCHAR
STARTCHAR F019
ENCODING 61465
SWIDTH 0 0
DWIDTH 0 0
BBX 8 2 -9 13
BITMAP
71
8E
ENDCHAR
STARTCHAR F01A
ENCODING 61466
SWIDTH 0 0
DWIDTH 0 0
BBX 8 2 -10 13
BITMAP
71
8E
ENDCHAR
STARTCHAR F01B
ENCODING 61467
SWIDTH 0 0
DWIDTH 0 0
BBX 8 2 -11 13
BITMAP
71
8E
ENDCHAR
STARTCHAR F01C
ENCODING 61468
SWIDTH 0 0
DWIDTH 0 0
BBX 8 2 -7 17
BITMAP
71
8E
ENDCHAR
STARTCHAR F01D
ENCODING 61469
SWIDTH 0 0
DWIDTH 0 0
BBX 8 2 -7 13
BITMAP
71
8E
ENDCHAR
STARTCHAR F01E
ENCODING 61470
SWIDTH 0 0
DWIDTH 0 0
BBX 2 2 -8 -3
BITMAP
C0
C0
ENDCHAR
STARTCHAR F01F
ENCODING 61471
SWIDTH 0 0
DWIDTH 0 0
BBX 2 2 -9 -3
BITMAP
C0
C0
ENDCHAR
STARTCHAR F020
ENCODING 61472
SWIDTH 0 0
DWIDTH 0 0
BBX 2 2 -9 -3
BITMAP
C0
C0
ENDCHAR
STARTCHAR F021
ENCODING 61473
SWIDTH 0 0
DWIDTH 0 0
BBX 2 2 -9 -3
BITMAP
C0
C0
ENDCHAR
STARTCHAR F022
ENCODING 61474
SWIDTH 0 0
DWIDTH 0 0
BBX 2 2 -10 -3
BITMAP
C0
C0
ENDCHAR
STARTCHAR F023
ENCODING 61475
SWIDTH 0 0
DWIDTH 0 0
BBX 2 2 -6 -3
BITMAP
C0
C0
ENDCHAR
STARTCHAR F024
ENCODING 61476
SWIDTH 0 0
DWIDTH 0 0
BBX 2 2 -6 -3
BITMAP
C0
C0
ENDCHAR
STARTCHAR F025
ENCODING 61477
SWIDTH 0 0
DWIDTH 0 0
BBX 2 2 -7 -3
BITMAP
C0
C0
ENDCHAR
STARTCHAR F026
ENCODING 61478
SWIDTH 0 0
DWIDTH 0 0
BBX 2 2 -8 -3
BITMAP
C0
C0
ENDCHAR
STARTCHAR F027
ENCODING 61479
SWIDTH 0 0
DWIDTH 0 0
BBX 2 2 -7 -3
BITMAP
C0
C0
ENDCHAR
STARTCHAR F028
ENCODING 61480
SWIDTH 0 0
DWIDTH 0 0
BBX 2 2 -8 -3
BITMAP
C0
C0
ENDCHAR
STARTCHAR F029
ENCODING 61481
SWIDTH 0 0
DWIDTH 0 0
BBX 2 2 -5 -3
BITMAP
C0
C0
ENDCHAR
STARTCHAR F02A
ENCODING 61482
SWIDTH 0 0
DWIDTH 0 0
BBX 2 2 -5 -3
BITMAP
C0
C0
ENDCHAR
STARTCHAR F02B
ENCODING 61483
SWIDTH 0 0
DWIDTH 0 0
BBX 2 2 -9 -3
BITMAP
C0
C0
ENDCHAR
STARTCHAR F02C
ENCODING 61484
SWIDTH 0 0
DWIDTH 0 0
BBX 2 2 -4 -3
BITMAP
C0
C0
ENDCHAR
STARTCHAR F02D
ENCODING 61485
SWIDTH 0 0
DWIDTH 0 0
BBX 8 2 -10 18
BITMAP
71
8E
ENDCHAR
STARTCHAR F02E
ENCODING 61486
SWIDTH 0 0
DWIDTH 0 0
BBX 8 2 -11 17
BITMAP
71
8E
ENDCHAR
STARTCHAR F02F
ENCODING 61487
SWIDTH 0 0
DWIDTH 0 0
BBX 8 2 -12 18
BITMAP
71
8E
ENDCHAR
STARTCHAR F030
ENCODING 61488
SWIDTH 0 0
DWIDTH 0 0
BBX 8 2 -12 17
BITMAP
71
8E
ENDCHAR
STARTCHAR F031
ENCODING 61489
SWIDTH 270 0
DWIDTH 6 0
BBX 4 11 1 0
BITMAP
60
E0
60
60
60
60
60
60
60
60
F0
ENDCHAR
STARTCHAR FB01
ENCODING 64257
SWIDTH 540 0
DWIDTH 12 0
BBX 11 16 0 0
BITMAP
0F80
19C0
30C0
3000
3000
FFC0
30C0
30C0
30C0
30C0
30C0
30C0
30C0
30C0
30C0
79E0
ENDCHAR
STARTCHAR FB02
ENCODING 64258
SWIDTH 540 0
DWIDTH 12 0
BBX 11 16 0 0
BITMAP
0E40
13C0
30C0
30C0
30C0
FFC0
30C0
30C0
30C0
30C0
30C0
30C0
30C0
30C0
30C0
79E0
ENDCHAR
STARTCHAR FB1D
ENCODING 64285
SWIDTH 270 0
DWIDTH 6 0
BBX 4 10 1 2
BITMAP
80
F0
F0
10
10
10
20
00
00
20
ENDCHAR
STARTCHAR FB1E
ENCODING 64286
SWIDTH 0 0
DWIDTH 0 0
BBX 7 3 -4 13
BITMAP
82
7C
38
ENDCHAR
STARTCHAR FB1F
ENCODING 64287
SWIDTH 540 0
DWIDTH 12 0
BBX 10 9 1 3
BITMAP
8200
F3C0
F3C0
1040
1040
1040
2080
0000
3FC0
ENDCHAR
STARTCHAR FB20
ENCODING 64288
SWIDTH 450 0
DWIDTH 10 0
BBX 8 12 1 0
BITMAP
84
E7
E7
41
42
62
32
14
14
14
FC
F8
ENDCHAR
STARTCHAR FB2A
ENCODING 64298
SWIDTH 585 0
DWIDTH 13 0
BBX 11 15 1 0
BITMAP
0040
0000
0000
8880
EEE0
EEE0
4420
4440
4440
4480
4880
6880
2980
3F00
3F00
ENDCHAR
STARTCHAR FB2B
ENCODING 64299
SWIDTH 585 0
DWIDTH 13 0
BBX 11 15 1 0
BITMAP
4000
0000
0000
8880
EEE0
EEE0
4420
4440
4440
4480
4880
6880
2980
3F00
3F00
ENDCHAR
STARTCHAR FB2C
ENCODING 64300
SWIDTH 585 0
DWIDTH 13 0
BBX 11 15 1 0
BITMAP
0040
0000
0000
8880
EEE0
EEE0
4420
4440
4440
4680
4880
6880
2980
3F00
3F00
ENDCHAR
STARTCHAR FB2D
ENCODING 64301
SWIDTH 585 0
DWIDTH 13 0
BBX 11 15 1 0
BITMAP
4000
0000
0000
8880
EEE0
EEE0
4420
4440
4440
4680
4880
6880
2980
3F00
3F00
ENDCHAR
STARTCHAR FB2E
ENCODING 64302
SWIDTH 495 0
DWIDTH 11 0
BBX 9 15 1 -3
BITMAP
8400
8780
C780
6200
3200
3C00
5C00
8E00
C700
4380
6180
E080
0000
0000
1E00
ENDCHAR
STARTCHAR FB2F
ENCODING 64303
SWIDTH 495 0
DWIDTH 11 0
BBX 9 17 1 -5
BITMAP
8400
8780
C780
6200
3200
3C00
5C00
8E00
C700
4380
6180
E080
0000
0000
1E00
0800
0800
ENDCHAR
STARTCHAR FB30
ENCODING 64304
SWIDTH 495 0
DWIDTH 11 0
BBX 9 12 1 0
BITMAP
8400
8780
C780
6200
3200
3C00
5C00
8E00
C700
4380
6980
E080
ENDCHAR
STARTCHAR FB31
ENCODING 64305
SWIDTH 450 0
DWIDTH 10 0
BBX 9 12 1 0
BITMAP
8000
FE00
FF00
0100
0100
0100
1100
0100
0100
0200
FF80
FF80
ENDCHAR
STARTCHAR FB32
ENCODING 64306
SWIDTH 315 0
DWIDTH 7 0
BBX 7 12 0 0
BITMAP
40
78
78
08
08
08
28
0C
14
26
E6
E2
ENDCHAR
STARTCHAR FB33
ENCODING 64307
SWIDTH 405 0
DWIDTH 9 0
BBX 7 12 1 0
BITMAP
80
FE
FE
04
08
08
28
08
08
08
08
08
ENDCHAR
STARTCHAR FB34
ENCODING 64308
SWIDTH 450 0
DWIDTH 10 0
BBX 8 12 1 0
BITMAP
80
FF
FF
01
02
02
12
82
82
82
82
82
ENDCHAR
STARTCHAR FB35
ENCODING 64309
SWIDTH 270 0
DWIDTH 6 0
BBX 4 12 1 0
BITMAP
80
E0
F0
10
10
10
50
10
10
10
10
10
ENDCHAR
STARTCHAR FB36
ENCODING 64310
SWIDTH 315 0
DWIDTH 7 0
BBX 6 12 0 0
BITMAP
40
7C
7C
20
20
20
A0
20
20
20
20
20
ENDCHAR
STARTCHAR FB38
ENCODING 64312
SWIDTH 450 0
DWIDTH 10 0
BBX 8 12 1 0
BITMAP
80
E6
E7
49
49
41
49
41
61
22
3E
3E
ENDCHAR
STARTCHAR FB39
ENCODING 64313
SWIDTH 270 0
DWIDTH 6 0
BBX 4 7 1 5
BITMAP
80
F0
F0
10
50
10
20
ENDCHAR
STARTCHAR FB3A
ENCODING 64314
SWIDTH 450 0
DWIDTH 10 0
BBX 8 16 1 -4
BITMAP
80
FF
FF
01
01
01
11
01
01
01
01
01
01
01
01
01
ENDCHAR
STARTCHAR FB3B
ENCODING 64315
SWIDTH 450 0
DWIDTH 10 0
BBX 8 12 1 0
BITMAP
80
FC
FE
03
01
01
11
01
01
03
7E
FC
ENDCHAR
STARTCHAR FB3C
ENCODING 64316
SWIDTH 450 0
DWIDTH 10 0
BBX 9 16 0 0
BITMAP
8000
C000
4000
4000
4000
7F00
7F80
0080
0080
0880
0100
0200
0400
0800
0800
0800
ENDCHAR
STARTCHAR FB3E
ENCODING 64318
SWIDTH 495 0
DWIDTH 11 0
BBX 9 12 1 0
BITMAP
8000
E600
EF00
3100
2080
4080
4480
8080
8080
8080
8F00
9F00
ENDCHAR
STARTCHAR FB40
ENCODING 64320
SWIDTH 315 0
DWIDTH 7 0
BBX 6 12 0 0
BITMAP
40
7C
3C
04
04
04
24
04
04
04
FC
FC
ENDCHAR
STARTCHAR FB41
ENCODING 64321
SWIDTH 450 0
DWIDTH 10 0
BBX 8 12 1 0
BITMAP
80
FC
FE
43
81
81
89
81
81
C3
7E
3C
ENDCHAR
STARTCHAR FB43
ENCODING 64323
SWIDTH 450 0
DWIDTH 10 0
BBX 8 16 1 -4
BITMAP
80
FE
FE
43
81
81
E9
E1
01
01
01
01
01
01
01
01
ENDCHAR
STARTCHAR FB44
ENCODING 64324
SWIDTH 450 0
DWIDTH 10 0
BBX 8 12 1 0
BITMAP
80
FC
FE
83
81
E1
E9
01
01
03
FE
FC
ENDCHAR
STARTCHAR FB46
ENCODING 64326
SWIDTH 450 0
DWIDTH 10 0
BBX 8 12 1 0
BITMAP
84
E7
E7
22
24
24
B4
1C
06
03
FF
FF
ENDCHAR
STARTCHAR FB47
ENCODING 64327
SWIDTH 450 0
DWIDTH 10 0
BBX 8 16 1 -4
BITMAP
80
FE
FF
01
01
81
91
82
8C
90
90
90
80
80
80
80
ENDCHAR
STARTCHAR FB48
ENCODING 64328
SWIDTH 450 0
DWIDTH 10 0
BBX 8 12 1 0
BITMAP
80
FE
FF
03
01
01
11
01
01
01
01
01
ENDCHAR
STARTCHAR FB49
ENCODING 64329
SWIDTH 585 0
DWIDTH 13 0
BBX 11 12 1 0
BITMAP
8880
EEE0
EEE0
4420
4440
4440
4680
4880
6880
2980
3F00
3F00
ENDCHAR
STARTCHAR FB4A
ENCODING 64330
SWIDTH 495 0
DWIDTH 11 0
BBX 10 12 0 0
BITMAP
4000
7F80
7FC0
10C0
2040
2040
2240
2040
2040
3040
F040
F040
ENDCHAR
STARTCHAR FB4B
ENCODING 64331
SWIDTH 270 0
DWIDTH 6 0
BBX 4 15 1 0
BITMAP
20
00
00
80
E0
F0
10
10
10
10
10
10
10
10
10
ENDCHAR
STARTCHAR FB4C
ENCODING 64332
SWIDTH 450 0
DWIDTH 10 0
BBX 9 14 1 0
BITMAP
3C00
0000
8000
FE00
FF00
0100
0100
0100
0100
0100
0100
0200
FF80
FF80
ENDCHAR
STARTCHAR FB4D
ENCODING 64333
SWIDTH 450 0
DWIDTH 10 0
BBX 8 15 1 0
BITMAP
3C
00
00
80
FC
FE
03
01
01
01
01
01
03
7E
FC
ENDCHAR
STARTCHAR FB4E
ENCODING 64334
SWIDTH 450 0
DWIDTH 10 0
BBX 8 14 1 0
BITMAP
3C
00
80
FC
FE
83
81
E1
E1
01
01
03
FE
FC
ENDCHAR
STARTCHAR FB4F
ENCODING 64335
SWIDTH 495 0
DWIDTH 11 0
BBX 10 16 0 0
BITMAP
8000
C000
4000
4000
4200
73C0
79C0
1900
0D00
0F00
1700
2300
3180
11C0
18C0
3840
ENDCHAR
STARTCHAR FB50
ENCODING 64336
SWIDTH 225 0
DWIDTH 5 0
BBX 5 17 0 3
BITMAP
38
48
F0
80
10
10
10
10
10
10
10
10
10
10
10
10
10
ENDCHAR
STARTCHAR FB51
ENCODING 64337
SWIDTH 225 0
DWIDTH 5 0
BBX 6 17 -1 3
BITMAP
38
48
F0
80
20
60
60
20
20
20
20
20
20
20
30
1C
1C
ENDCHAR
STARTCHAR FB52
ENCODING 64338
SWIDTH 720 0
DWIDTH 16 0
BBX 15 14 1 -4
BITMAP
4004
8006
8006
8002
E002
7FFE
3FFE
0000
0100
0380
0100
0080
01C0
0080
ENDCHAR
STARTCHAR FB53
ENCODING 64339
SWIDTH 720 0
DWIDTH 16 0
BBX 15 14 1 -4
BITMAP
4004
8006
8006
8002
E002
7FFE
3FFE
0000
0100
0380
0100
0080
01C0
0080
ENDCHAR
STARTCHAR FB54
ENCODING 64340
SWIDTH 225 0
DWIDTH 5 0
BBX 6 14 -1 -4
BITMAP
08
0C
0C
04
04
FC
FC
00
20
70
20
10
38
10
ENDCHAR
STARTCHAR FB55
ENCODING 64341
SWIDTH 225 0
DWIDTH 5 0
BBX 6 14 -1 -4
BITMAP
08
0C
0C
04
04
FC
FC
00
20
70
20
10
38
10
ENDCHAR
STARTCHAR FB56
ENCODING 64342
SWIDTH 720 0
DWIDTH 16 0
BBX 15 14 1 -4
BITMAP
4004
8006
8006
8002
E002
7FFE
3FFE
0000
0040
02E0
0740
0240
00E0
0040
ENDCHAR
STARTCHAR FB57
ENCODING 64343
SWIDTH 720 0
DWIDTH 16 0
BBX 15 14 1 -4
BITMAP
4004
8006
8006
8002
E002
7FFE
3FFE
0000
0040
02E0
0740
0240
00E0
0040
ENDCHAR
STARTCHAR FB58
ENCODING 64344
SWIDTH 225 0
DWIDTH 5 0
BBX 6 14 -1 -4
BITMAP
08
0C
0C
04
04
FC
FC
00
08
5C
E8
48
1C
08
ENDCHAR
STARTCHAR FB59
ENCODING 64345
SWIDTH 225 0
DWIDTH 5 0
BBX 6 14 -1 -4
BITMAP
08
0C
0C
04
04
FC
FC
00
08
5C
E8
48
1C
08
ENDCHAR
STARTCHAR FB5A
ENCODING 64346
SWIDTH 720 0
DWIDTH 16 0
BBX 15 15 1 -5
BITMAP
4004
8006
8006
8002
E002
7FFE
3FFE
0000
0080
05C0
0E80
0440
02E0
0740
0200
ENDCHAR
STARTCHAR FB5B
ENCODING 64347
SWIDTH 720 0
DWIDTH 16 0
BBX 15 15 1 -5
BITMAP
4004
8006
8006
8002
E002
7FFE
3FFE
0000
0080
05C0
0E80
0440
02E0
0740
0200
ENDCHAR
STARTCHAR FB5C
ENCODING 64348
SWIDTH 225 0
DWIDTH 5 0
BBX 7 15 -1 -5
BITMAP
08
0C
0C
04
04
FC
FC
00
08
5C
E8
44
2E
74
20
ENDCHAR
STARTCHAR FB5D
ENCODING 64349
SWIDTH 225 0
DWIDTH 5 0
BBX 7 15 -1 -5
BITMAP
08
0C
0C
04
04
FC
FC
00
08
5C
E8
44
2E
74
20
ENDCHAR
STARTCHAR FB5E
ENCODING 64350
SWIDTH 720 0
DWIDTH 16 0
BBX 15 14 1 3
BITMAP
0200
0700
0200
0100
0380
0100
0000
4004
8006
8006
8002
E002
7FFE
3FFE
ENDCHAR
STARTCHAR FB5F
ENCODING 64351
SWIDTH 720 0
DWIDTH 16 0
BBX 15 14 1 3
BITMAP
0200
0700
0200
0100
0380
0100
0000
4004
8006
8006
8002
E002
7FFE
3FFE
ENDCHAR
STARTCHAR FB60
ENCODING 64352
SWIDTH 225 0
DWIDTH 5 0
BBX 6 14 -1 3
BITMAP
20
70
20
10
38
10
00
08
0C
0C
04
04
FC
FC
ENDCHAR
STARTCHAR FB61
ENCODING 64353
SWIDTH 225 0
DWIDTH 5 0
BBX 6 14 -1 3
BITMAP
20
70
20
10
38
10
00
08
0C
0C
04
04
FC
FC
ENDCHAR
STARTCHAR FB62
ENCODING 64354
SWIDTH 720 0
DWIDTH 16 0
BBX 15 14 1 3
BITMAP
0080
05C0
0E80
0440
02E0
0740
0200
4004
8006
8006
8002
E002
7FFE
3FFE
ENDCHAR
STARTCHAR FB63
ENCODING 64355
SWIDTH 720 0
DWIDTH 16 0
BBX 15 14 1 3
BITMAP
0080
05C0
0E80
0440
02E0
0740
0200
4004
8006
8006
8002
E002
7FFE
3FFE
ENDCHAR
STARTCHAR FB64
ENCODING 64356
SWIDTH 225 0
DWIDTH 5 0
BBX 7 14 -2 3
BITMAP
08
5C
E8
44
2E
74
20
04
06
06
02
02
7E
7E
ENDCHAR
STARTCHAR FB65
ENCODING 64357
SWIDTH 225 0
DWIDTH 5 0
BBX 7 14 -2 3
BITMAP
08
5C
E8
44
2E
74
20
04
06
06
02
02
7E
7E
ENDCHAR
STARTCHAR FB66
ENCODING 64358
SWIDTH 720 0
DWIDTH 16 0
BBX 15 15 1 3
BITMAP
0200
0300
0200
0100
0160
01A0
07E0
0000
4004
8006
8006
8002
E002
7FFE
3FFE
ENDCHAR
STARTCHAR FB67
ENCODING 64359
SWIDTH 720 0
DWIDTH 16 0
BBX 15 15 1 3
BITMAP
0200
0300
0200
0100
0160
01A0
07E0
0000
4004
8006
8006
8002
E002
7FFE
3FFE
ENDCHAR
STARTCHAR FB68
ENCODING 64360
SWIDTH 225 0
DWIDTH 5 0
BBX 7 15 -1 3
BITMAP
20
30
20
10
16
1A
7E
00
08
0C
0C
04
04
FC
FC
ENDCHAR
STARTCHAR FB69
ENCODING 64361
SWIDTH 225 0
DWIDTH 5 0
BBX 7 15 -1 3
BITMAP
20
30
20
10
16
1A
7E
00
08
0C
0C
04
04
FC
FC
ENDCHAR
STARTCHAR FB6A
ENCODING 64362
SWIDTH 765 0
DWIDTH 17 0
BBX 17 14 0 3
BITMAP
001000
003800
001200
001700
003A00
001000
000000
400300
800780
800480
800480
E00380
7FFF80
1FFF80
ENDCHAR
STARTCHAR FB6B
ENCODING 64363
SWIDTH 765 0
DWIDTH 17 0
BBX 17 14 0 3
BITMAP
001000
003800
001200
001700
003A00
001000
000000
400300
800780
800480
800480
E00380
7FFF80
1FFF80
ENDCHAR
STARTCHAR FB6C
ENCODING 64364
SWIDTH 270 0
DWIDTH 6 0
BBX 7 16 -1 3
BITMAP
20
70
24
2E
74
20
00
18
3C
2E
26
3E
1E
02
FE
FE
ENDCHAR
STARTCHAR FB6D
ENCODING 64365
SWIDTH 270 0
DWIDTH 6 0
BBX 7 16 -1 3
BITMAP
20
70
24
2E
74
20
00
00
0C
1E
16
12
1E
06
FE
FE
ENDCHAR
STARTCHAR FB6E
ENCODING 64366
SWIDTH 765 0
DWIDTH 17 0
BBX 18 14 0 3
BITMAP
000100
000B80
001D00
000880
0005C0
000E80
000400
400300
800780
800480
800480
E00380
7FFF80
1FFF80
ENDCHAR
STARTCHAR FB6F
ENCODING 64367
SWIDTH 765 0
DWIDTH 17 0
BBX 18 14 0 3
BITMAP
000100
000B80
001D00
000880
0005C0
000E80
000400
400300
800780
800480
800480
E00380
7FFF80
1FFF80
ENDCHAR
STARTCHAR FB70
ENCODING 64368
SWIDTH 270 0
DWIDTH 6 0
BBX 7 17 -1 3
BITMAP
08
5C
E8
44
2E
74
20
00
18
3C
2E
26
3E
1E
02
FE
FE
ENDCHAR
STARTCHAR FB71
ENCODING 64369
SWIDTH 270 0
DWIDTH 6 0
BBX 7 15 -1 3
BITMAP
08
5C
E8
44
2E
74
20
0C
1E
16
12
1E
06
FE
FE
ENDCHAR
STARTCHAR FB72
ENCODING 64370
SWIDTH 540 0
DWIDTH 12 0
BBX 9 14 1 -5
BITMAP
7F80
FF80
0E00
3000
4400
4E00
8400
8200
8700
8200
C000
7000
7F80
1F00
ENDCHAR
STARTCHAR FB73
ENCODING 64371
SWIDTH 540 0
DWIDTH 12 0
BBX 11 14 1 -5
BITMAP
7FC0
FFC0
0F00
1100
29E0
5CE0
8800
8400
8E00
C400
E000
7800
3FE0
0F80
ENDCHAR
STARTCHAR FB74
ENCODING 64372
SWIDTH 540 0
DWIDTH 12 0
BBX 13 13 -1 -4
BITMAP
1E00
3F80
03C0
00E0
FFF8
FFF8
0000
0200
0700
0200
0100
0380
0100
ENDCHAR
STARTCHAR FB75
ENCODING 64373
SWIDTH 540 0
DWIDTH 12 0
BBX 13 13 -1 -4
BITMAP
1E00
3F80
03C0
00E0
FFF8
FFF8
0000
0200
0700
0200
0100
0380
0100
ENDCHAR
STARTCHAR FB76
ENCODING 64374
SWIDTH 540 0
DWIDTH 12 0
BBX 10 14 1 -5
BITMAP
7F80
FF80
0E00
3000
4000
4080
85C0
8E80
8400
8000
C000
7000
7F80
1F00
ENDCHAR
STARTCHAR FB77
ENCODING 64375
SWIDTH 540 0
DWIDTH 12 0
BBX 11 14 1 -5
BITMAP
7FC0
FFC0
0F00
1100
21E0
44E0
AE00
F400
A000
C000
E000
7800
3FE0
0F80
ENDCHAR
STARTCHAR FB78
ENCODING 64376
SWIDTH 540 0
DWIDTH 12 0
BBX 13 11 -1 -2
BITMAP
1E00
3F80
03C0
00E0
FFF8
FFF8
0000
0080
05C0
0E80
0400
ENDCHAR
STARTCHAR FB79
ENCODING 64377
SWIDTH 540 0
DWIDTH 12 0
BBX 13 11 -1 -2
BITMAP
1E00
3F80
03C0
00E0
FFF8
FFF8
0000
0080
05C0
0E80
0400
ENDCHAR
STARTCHAR FB7A
ENCODING 64378
SWIDTH 540 0
DWIDTH 12 0
BBX 9 14 1 -5
BITMAP
7F80
FF80
0E00
3000
4000
4100
8B80
9D00
8900
8380
C100
7000
7F80
1F00
ENDCHAR
STARTCHAR FB7B
ENCODING 64379
SWIDTH 540 0
DWIDTH 12 0
BBX 11 14 1 -5
BITMAP
7FC0
FFC0
0F00
1100
21E0
42E0
9700
BA00
9200
C700
E200
7800
3FE0
0F80
ENDCHAR
STARTCHAR FB7C
ENCODING 64380
SWIDTH 540 0
DWIDTH 12 0
BBX 13 14 -1 -5
BITMAP
1E00
3F80
03C0
00E0
FFF8
FFF8
0000
0000
0100
0B80
1D00
0900
0380
0100
ENDCHAR
STARTCHAR FB7D
ENCODING 64381
SWIDTH 540 0
DWIDTH 12 0
BBX 13 14 -1 -5
BITMAP
1E00
3F80
03C0
00E0
FFF8
FFF8
0000
0000
0100
0B80
1D00
0900
0380
0100
ENDCHAR
STARTCHAR FB7E
ENCODING 64382
SWIDTH 540 0
DWIDTH 12 0
BBX 9 14 1 -5
BITMAP
7F80
FF80
0E00
3000
4200
5700
BA00
9100
8B80
9D00
C800
7000
7F80
1F00
ENDCHAR
STARTCHAR FB7F
ENCODING 64383
SWIDTH 540 0
DWIDTH 12 0
BBX 11 14 1 -5
BITMAP
7FC0
FFC0
0F00
1100
23E0
57E0
BA00
9100
8B80
DD00
E800
7800
3FE0
0F80
ENDCHAR
STARTCHAR FB80
ENCODING 64384
SWIDTH 540 0
DWIDTH 12 0
BBX 13 14 -1 -5
BITMAP
1E00
3F80
03C0
00E0
FFF8
FFF8
0000
0100
0B80
1D00
0880
05C0
0E80
0400
ENDCHAR
STARTCHAR FB81
ENCODING 64385
SWIDTH 540 0
DWIDTH 12 0
BBX 13 14 -1 -5
BITMAP
1E00
3F80
03C0
00E0
FFF8
FFF8
0000
0100
0B80
1D00
0880
05C0
0E80
0400
ENDCHAR
STARTCHAR FB82
ENCODING 64386
SWIDTH 315 0
DWIDTH 7 0
BBX 6 14 1 -2
BITMAP
10
18
08
0C
04
04
84
FC
FC
00
08
5C
E8
40
ENDCHAR
STARTCHAR FB83
ENCODING 64387
SWIDTH 315 0
DWIDTH 7 0
BBX 6 14 1 -2
BITMAP
10
18
08
0C
04
04
84
FC
FC
00
08
5C
E8
40
ENDCHAR
STARTCHAR FB84
ENCODING 64388
SWIDTH 315 0
DWIDTH 7 0
BBX 6 14 1 3
BITMAP
08
5C
E8
40
00
10
18
08
0C
04
04
84
FC
FC
ENDCHAR
STARTCHAR FB85
ENCODING 64389
SWIDTH 315 0
DWIDTH 7 0
BBX 6 14 1 3
BITMAP
08
5C
E8
40
00
10
18
08
0C
04
04
84
FC
FC
ENDCHAR
STARTCHAR FB86
ENCODING 64390
SWIDTH 315 0
DWIDTH 7 0
BBX 6 16 1 3
BITMAP
40
E0
48
5C
E8
40
00
10
18
08
0C
04
04
84
FC
FC
ENDCHAR
STARTCHAR FB87
ENCODING 64391
SWIDTH 315 0
DWIDTH 7 0
BBX 6 16 1 3
BITMAP
40
E0
48
5C
E8
40
00
10
18
08
0C
04
04
84
FC
FC
ENDCHAR
STARTCHAR FB88
ENCODING 64392
SWIDTH 315 0
DWIDTH 7 0
BBX 6 17 1 3
BITMAP
40
60
40
20
2C
34
FC
00
10
18
08
0C
04
04
84
FC
FC
ENDCHAR
STARTCHAR FB89
ENCODING 64393
SWIDTH 315 0
DWIDTH 7 0
BBX 6 17 1 3
BITMAP
40
60
40
20
2C
34
FC
00
10
18
08
0C
04
04
84
FC
FC
ENDCHAR
STARTCHAR FB8A
ENCODING 64394
SWIDTH 495 0
DWIDTH 11 0
BBX 10 18 1 -2
BITMAP
0400
0E00
0480
05C0
0E80
0400
0000
0100
0180
00C0
00C0
0040
0040
0040
00C0
0180
8700
7C00
ENDCHAR
STARTCHAR FB8B
ENCODING 64395
SWIDTH 495 0
DWIDTH 11 0
BBX 10 18 1 -2
BITMAP
0400
0E00
0480
05C0
0E80
0400
0000
0100
0180
00C0
00C0
0040
0040
0040
00C0
0180
8700
7C00
ENDCHAR
STARTCHAR FB8C
ENCODING 64396
SWIDTH 495 0
DWIDTH 11 0
BBX 10 20 1 -2
BITMAP
0400
0600
0400
0200
02C0
0340
0FC0
0000
0000
0100
0180
00C0
00C0
0040
0040
0040
00C0
0180
8700
7C00
ENDCHAR
STARTCHAR FB8D
ENCODING 64397
SWIDTH 495 0
DWIDTH 11 0
BBX 10 20 1 -2
BITMAP
0400
0600
0400
0200
02C0
0340
0FC0
0000
0000
0100
0180
00C0
00C0
0040
0040
0040
00C0
0180
8700
7C00
ENDCHAR
STARTCHAR FB8E
ENCODING 64398
SWIDTH 810 0
DWIDTH 18 0
BBX 18 13 0 3
BITMAP
000080
000780
001E00
001000
002000
003800
003C00
401E00
800300
800180
C000C0
FFFFC0
7FFFC0
ENDCHAR
STARTCHAR FB8F
ENCODING 64399
SWIDTH 945 0
DWIDTH 21 0
BBX 21 13 0 3
BITMAP
000080
000780
001E00
001000
002000
003800
003C00
400600
800300
800280
C006C0
FFFC78
7FF838
ENDCHAR
STARTCHAR FB90
ENCODING 64400
SWIDTH 405 0
DWIDTH 9 0
BBX 10 13 -1 3
BITMAP
0080
0780
1E00
1000
2000
3800
3C00
1E00
0300
0180
00C0
FFC0
FFC0
ENDCHAR
STARTCHAR FB91
ENCODING 64401
SWIDTH 495 0
DWIDTH 11 0
BBX 12 13 -1 3
BITMAP
0100
0700
1E00
3000
2000
3000
3C00
1E00
0700
0580
0DC0
F8F0
F070
ENDCHAR
STARTCHAR FB92
ENCODING 64402
SWIDTH 810 0
DWIDTH 18 0
BBX 18 16 0 3
BITMAP
000080
000380
000F00
001880
002780
001E00
001000
002000
003800
003C00
401E00
800300
800180
C000C0
FFFFC0
7FFFC0
ENDCHAR
STARTCHAR FB93
ENCODING 64403
SWIDTH 945 0
DWIDTH 21 0
BBX 21 16 0 3
BITMAP
000080
000380
000F00
001880
002780
001E00
001000
002000
003800
003C00
400600
800300
800280
C006C0
FFFC78
7FF838
ENDCHAR
STARTCHAR FB94
ENCODING 64404
SWIDTH 405 0
DWIDTH 9 0
BBX 10 16 -1 3
BITMAP
0080
0380
0F00
3880
2780
1E00
1000
2000
3800
3C00
1E00
0300
0180
00C0
FFC0
FFC0
ENDCHAR
STARTCHAR FB95
ENCODING 64405
SWIDTH 495 0
DWIDTH 11 0
BBX 12 16 -1 3
BITMAP
0100
0700
0E00
3900
2700
1E00
3000
2000
3000
3C00
1E00
0700
0580
0DC0
F8F0
F070
ENDCHAR
STARTCHAR FB96
ENCODING 64406
SWIDTH 810 0
DWIDTH 18 0
BBX 18 23 0 -4
BITMAP
000080
000380
000F00
001880
002780
001E00
001000
002000
003800
003C00
401E00
800300
800180
C000C0
FFFFC0
7FFFC0
000000
008000
01C000
008000
004000
00E000
004000
ENDCHAR
STARTCHAR FB97
ENCODING 64407
SWIDTH 945 0
DWIDTH 21 0
BBX 21 23 0 -4
BITMAP
000080
000380
000F00
001880
002780
001E00
001000
002000
003800
003C00
400600
800300
800280
C006C0
FFFC78
7FF838
000000
010000
038000
010000
008000
01C000
008000
ENDCHAR
STARTCHAR FB98
ENCODING 64408
SWIDTH 405 0
DWIDTH 9 0
BBX 10 23 -1 -4
BITMAP
0080
0380
0F00
3880
2780
1E00
1000
2000
3800
3C00
1E00
0300
0180
00C0
FFC0
FFC0
0000
0800
1C00
0800
0400
0E00
0400
ENDCHAR
STARTCHAR FB99
ENCODING 64409
SWIDTH 495 0
DWIDTH 11 0
BBX 12 23 -1 -4
BITMAP
0100
0700
0E00
3900
2700
1E00
3000
2000
3000
3C00
1E00
0700
0580
0DC0
F8F0
F070
0000
2000
7000
2000
1000
3800
1000
ENDCHAR
STARTCHAR FB9A
ENCODING 64410
SWIDTH 810 0
DWIDTH 18 0
BBX 18 17 0 3
BITMAP
000C00
003C80
003380
000F00
001880
002780
001E00
001000
002000
003800
003C00
401E00
800300
800180
C000C0
FFFFC0
7FFFC0
ENDCHAR
STARTCHAR FB9B
ENCODING 64411
SWIDTH 945 0
DWIDTH 21 0
BBX 21 17 0 3
BITMAP
001800
007880
006380
000F00
001880
002780
001E00
001000
002000
003800
003C00
400600
800300
800280
C006C0
FFFC78
7FF838
ENDCHAR
STARTCHAR FB9C
ENCODING 64412
SWIDTH 405 0
DWIDTH 9 0
BBX 10 17 -1 3
BITMAP
0C00
3C80
3380
0F00
3880
2780
1E00
1000
2000
3800
3C00
1E00
0300
0180
00C0
FFC0
FFC0
ENDCHAR
STARTCHAR FB9D
ENCODING 64413
SWIDTH 495 0
DWIDTH 11 0
BBX 12 17 -1 3
BITMAP
0C00
3D00
3700
0E00
3900
2700
1E00
3000
2000
3000
3C00
1E00
0700
0580
0DC0
F8F0
F070
ENDCHAR
STARTCHAR FB9E
ENCODING 64414
SWIDTH 540 0
DWIDTH 12 0
BBX 11 11 1 -2
BITMAP
0040
0060
4060
4020
8020
8020
8020
8060
C0E0
7FC0
3F00
ENDCHAR
STARTCHAR FB9F
ENCODING 64415
SWIDTH 540 0
DWIDTH 12 0
BBX 11 11 1 -2
BITMAP
0040
0060
4060
4020
8020
8020
8020
8060
C0E0
7FC0
3F00
ENDCHAR
STARTCHAR FBA0
ENCODING 64416
SWIDTH 540 0
DWIDTH 12 0
BBX 11 19 1 -2
BITMAP
0800
0C00
0800
0400
0580
0680
1F80
0000
0040
0060
4060
4020
8020
8020
8020
8060
C0E0
7FC0
3F00
ENDCHAR
STARTCHAR FBA1
ENCODING 64417
SWIDTH 540 0
DWIDTH 12 0
BBX 11 19 1 -2
BITMAP
0800
0C00
0800
0400
0580
0680
1F80
0000
0040
0060
4060
4020
8020
8020
8020
8060
C0E0
7FC0
3F00
ENDCHAR
STARTCHAR FBA2
ENCODING 64418
SWIDTH 225 0
DWIDTH 5 0
BBX 7 15 -1 3
BITMAP
20
30
20
10
16
1A
7E
00
08
0C
0C
04
04
FC
FC
ENDCHAR
STARTCHAR FBA3
ENCODING 64419
SWIDTH 225 0
DWIDTH 5 0
BBX 7 15 -1 3
BITMAP
20
30
20
10
16
1A
7E
00
08
0C
0C
04
04
FC
FC
ENDCHAR
STARTCHAR FBA4
ENCODING 64420
SWIDTH 270 0
DWIDTH 6 0
BBX 5 12 1 3
BITMAP
30
40
30
40
00
40
70
78
88
88
F8
F0
ENDCHAR
STARTCHAR FBA5
ENCODING 64421
SWIDTH 360 0
DWIDTH 8 0
BBX 8 14 0 3
BITMAP
18
20
18
20
08
08
18
28
48
F8
F4
04
07
03
ENDCHAR
STARTCHAR FBA6
ENCODING 64422
SWIDTH 270 0
DWIDTH 6 0
BBX 5 7 1 3
BITMAP
40
70
78
88
88
F8
F0
ENDCHAR
STARTCHAR FBA7
ENCODING 64423
SWIDTH 405 0
DWIDTH 9 0
BBX 9 6 0 1
BITMAP
1C00
3E00
2780
4180
4000
8000
ENDCHAR
STARTCHAR FBA8
ENCODING 64424
SWIDTH 225 0
DWIDTH 5 0
BBX 6 13 -1 -3
BITMAP
08
0C
0C
04
04
FC
FC
00
00
10
20
38
18
ENDCHAR
STARTCHAR FBA9
ENCODING 64425
SWIDTH 315 0
DWIDTH 7 0
BBX 8 13 -1 -5
BITMAP
08
10
30
F3
D7
1C
18
08
00
08
10
1C
0C
ENDCHAR
STARTCHAR FBAA
ENCODING 64426
SWIDTH 450 0
DWIDTH 10 0
BBX 10 9 -1 3
BITMAP
0400
0600
0700
0F00
1380
12C0
0C40
FFC0
F180
ENDCHAR
STARTCHAR FBAB
ENCODING 64427
SWIDTH 360 0
DWIDTH 8 0
BBX 8 10 0 3
BITMAP
08
08
18
28
48
F8
F4
04
07
03
ENDCHAR
STARTCHAR FBAC
ENCODING 64428
SWIDTH 450 0
DWIDTH 10 0
BBX 10 9 -1 3
BITMAP
0400
0600
0700
0F00
1380
12C0
0C40
FFC0
F180
ENDCHAR
STARTCHAR FBAD
ENCODING 64429
SWIDTH 405 0
DWIDTH 9 0
BBX 10 12 -1 -2
BITMAP
0300
0700
0D00
0900
1600
FFC0
FFC0
1600
1100
1900
0F00
0700
ENDCHAR
STARTCHAR FBAE
ENCODING 64430
SWIDTH 810 0
DWIDTH 18 0
BBX 16 9 1 -1
BITMAP
0300
0780
0C80
1800
3000
6000
8000
FFFF
FFFE
ENDCHAR
STARTCHAR FBAF
ENCODING 64431
SWIDTH 810 0
DWIDTH 18 0
BBX 17 10 1 -5
BITMAP
003F80
03FF80
0FC000
1C0000
300000
600000
400000
800000
FFFF00
FFFE00
ENDCHAR
STARTCHAR FBB0
ENCODING 64432
SWIDTH 810 0
DWIDTH 18 0
BBX 16 12 1 -1
BITMAP
1800
2000
1800
2300
0780
0C80
1800
3000
6000
8000
FFFF
FFFE
ENDCHAR
STARTCHAR FBB1
ENCODING 64433
SWIDTH 810 0
DWIDTH 18 0
BBX 17 15 1 -5
BITMAP
001800
002000
001800
002000
000000
003F80
03FF80
0FC000
1C0000
300000
600000
400000
800000
FFFF00
FFFE00
ENDCHAR
STARTCHAR FBD3
ENCODING 64467
SWIDTH 585 0
DWIDTH 13 0
BBX 13 17 0 3
BITMAP
0800
1C00
0900
0BB0
1D38
0818
0110
0210
0410
0790
0088
4188
8F08
8008
C008
FFF8
7FF8
ENDCHAR
STARTCHAR FBD4
ENCODING 64468
SWIDTH 585 0
DWIDTH 13 0
BBX 13 17 0 3
BITMAP
0800
1C00
0900
0BB0
1D38
0818
0110
0210
0410
0790
0088
4188
8F08
8008
C008
FFF8
7FF8
ENDCHAR
STARTCHAR FBD5
ENCODING 64469
SWIDTH 405 0
DWIDTH 9 0
BBX 10 15 -1 3
BITMAP
3000
0C00
3080
0780
1E00
1000
2000
3800
3C00
1E00
0300
0180
00C0
FFC0
FFC0
ENDCHAR
STARTCHAR FBD6
ENCODING 64470
SWIDTH 405 0
DWIDTH 9 0
BBX 10 15 -1 3
BITMAP
3000
0C00
3080
0780
1E00
1000
2000
3800
3C00
1E00
0300
0180
00C0
FFC0
FFC0
ENDCHAR
STARTCHAR FBD7
ENCODING 64471
SWIDTH 450 0
DWIDTH 10 0
BBX 9 17 1 -2
BITMAP
0180
0280
0380
0180
0600
0000
0300
0780
0480
0480
0780
0380
0080
0100
0300
8600
7C00
ENDCHAR
STARTCHAR FBD8
ENCODING 64472
SWIDTH 450 0
DWIDTH 10 0
BBX 9 17 1 -2
BITMAP
0180
0280
0380
0180
0600
0000
0300
0780
0480
0480
0780
0380
0080
0100
0300
8600
7C00
ENDCHAR
STARTCHAR FBD9
ENCODING 64473
SWIDTH 450 0
DWIDTH 10 0
BBX 9 14 1 -2
BITMAP
0500
0200
0000
0300
0780
0480
0480
0780
0380
0080
0100
0300
8600
7C00
ENDCHAR
STARTCHAR FBDA
ENCODING 64474
SWIDTH 450 0
DWIDTH 10 0
BBX 9 14 1 -2
BITMAP
0500
0200
0000
0300
0780
0480
0480
0780
0380
0080
0100
0300
8600
7C00
ENDCHAR
STARTCHAR FBDB
ENCODING 64475
SWIDTH 450 0
DWIDTH 10 0
BBX 9 18 1 -2
BITMAP
0400
0400
0600
0200
0200
0200
0000
0300
0780
0480
0480
0780
0380
0080
0100
0300
8600
7C00
ENDCHAR
STARTCHAR FBDC
ENCODING 64476
SWIDTH 450 0
DWIDTH 10 0
BBX 9 18 1 -2
BITMAP
0400
0400
0600
0200
0200
0200
0000
0300
0780
0480
0480
0780
0380
0080
0100
0300
8600
7C00
ENDCHAR
STARTCHAR FBDD
ENCODING 64477
SWIDTH 450 0
DWIDTH 10 0
BBX 10 16 1 -2
BITMAP
0CC0
1500
1CC0
0D00
3000
0300
0780
0480
0480
0780
0380
0080
0100
0300
8600
7C00
ENDCHAR
STARTCHAR FBDE
ENCODING 64478
SWIDTH 450 0
DWIDTH 10 0
BBX 9 18 1 -2
BITMAP
0800
1C00
0900
0B80
1D00
0800
0000
0300
0780
0480
0480
0780
0380
0080
0100
0300
8600
7C00
ENDCHAR
STARTCHAR FBDF
ENCODING 64479
SWIDTH 450 0
DWIDTH 10 0
BBX 9 18 1 -2
BITMAP
0800
1C00
0900
0B80
1D00
0800
0000
0300
0780
0480
0480
0780
0380
0080
0100
0300
8600
7C00
ENDCHAR
STARTCHAR FBE0
ENCODING 64480
SWIDTH 450 0
DWIDTH 10 0
BBX 9 11 1 -2
BITMAP
0300
0780
0480
0480
0780
0380
1880
0700
0300
8600
7C00
ENDCHAR
STARTCHAR FBE1
ENCODING 64481
SWIDTH 450 0
DWIDTH 10 0
BBX 9 11 1 -2
BITMAP
0300
0780
0480
0480
0780
0380
1880
0700
0300
8600
7C00
ENDCHAR
STARTCHAR FBE2
ENCODING 64482
SWIDTH 450 0
DWIDTH 10 0
BBX 9 14 1 -2
BITMAP
0200
0500
0000
0300
0780
0480
0480
0780
0380
0080
0100
0300
8600
7C00
ENDCHAR
STARTCHAR FBE3
ENCODING 64483
SWIDTH 450 0
DWIDTH 10 0
BBX 9 14 1 -2
BITMAP
0200
0500
0000
0300
0780
0480
0480
0780
0380
0080
0100
0300
8600
7C00
ENDCHAR
STARTCHAR FBE4
ENCODING 64484
SWIDTH 630 0
DWIDTH 14 0
BBX 13 14 1 -4
BITMAP
0038
0078
00C8
4080
8100
81F0
81F0
8010
C0E0
FFC0
7F00
0000
0400
0400
ENDCHAR
STARTCHAR FBE5
ENCODING 64485
SWIDTH 585 0
DWIDTH 13 0
BBX 13 10 0 -4
BITMAP
4000
4078
80F8
8100
81F0
E010
7FE0
3FC0
0200
0200
ENDCHAR
STARTCHAR FBE6
ENCODING 64486
SWIDTH 225 0
DWIDTH 5 0
BBX 6 14 -1 -4
BITMAP
08
0C
0C
04
04
FC
FC
00
10
38
10
08
1C
08
ENDCHAR
STARTCHAR FBE7
ENCODING 64487
SWIDTH 225 0
DWIDTH 5 0
BBX 6 14 -1 -4
BITMAP
08
0C
0C
04
04
FC
FC
00
10
38
10
08
1C
08
ENDCHAR
STARTCHAR FBFC
ENCODING 64508
SWIDTH 630 0
DWIDTH 14 0
BBX 13 11 1 -1
BITMAP
0038
0078
00C8
4080
8100
81F0
81F0
8010
C0E0
FFC0
7F00
ENDCHAR
STARTCHAR FBFD
ENCODING 64509
SWIDTH 585 0
DWIDTH 13 0
BBX 13 8 0 -2
BITMAP
4000
4078
80F8
8100
81F0
E010
7FE0
3FC0
ENDCHAR
STARTCHAR FBFE
ENCODING 64510
SWIDTH 225 0
DWIDTH 5 0
BBX 6 12 -1 -2
BITMAP
08
0C
0C
04
04
FC
FC
00
08
5C
E8
40
ENDCHAR
STARTCHAR FBFF
ENCODING 64511
SWIDTH 225 0
DWIDTH 5 0
BBX 6 12 -1 -2
BITMAP
08
0C
0C
04
04
FC
FC
00
08
5C
E8
40
ENDCHAR
STARTCHAR FC5E
ENCODING 64606
SWIDTH 225 0
DWIDTH 5 0
BBX 6 8 0 13
BITMAP
0C
14
DC
54
68
28
B8
C0
ENDCHAR
STARTCHAR FC5F
ENCODING 64607
SWIDTH 225 0
DWIDTH 5 0
BBX 5 8 0 13
BITMAP
08
28
B8
C0
18
60
18
60
ENDCHAR
STARTCHAR FC60
ENCODING 64608
SWIDTH 225 0
DWIDTH 5 0
BBX 5 6 0 13
BITMAP
18
60
08
28
B8
C0
ENDCHAR
STARTCHAR FC61
ENCODING 64609
SWIDTH 225 0
DWIDTH 5 0
BBX 5 7 0 13
BITMAP
30
50
70
C8
28
B8
C0
ENDCHAR
STARTCHAR FC62
ENCODING 64610
SWIDTH 225 0
DWIDTH 5 0
BBX 5 6 0 13
BITMAP
08
28
B8
C0
18
60
ENDCHAR
STARTCHAR FD3E
ENCODING 64830
SWIDTH 315 0
DWIDTH 7 0
BBX 4 22 2 -5
BITMAP
10
30
20
60
60
60
C0
C0
C0
C0
C0
C0
C0
C0
C0
C0
40
60
60
20
30
10
ENDCHAR
STARTCHAR FD3F
ENCODING 64831
SWIDTH 315 0
DWIDTH 7 0
BBX 4 22 1 -5
BITMAP
80
C0
40
60
60
60
30
30
30
30
30
30
30
30
30
30
20
60
60
40
C0
80
ENDCHAR
STARTCHAR FDF2
ENCODING 65010
SWIDTH 630 0
DWIDTH 14 0
BBX 14 14 0 3
BITMAP
0600
0100
00A0
02E0
0300
0048
0448
0448
0448
0C4C
3444
6464
FBFC
F39C
ENDCHAR
STARTCHAR FE80
ENCODING 65152
SWIDTH 405 0
DWIDTH 9 0
BBX 7 7 1 2
BITMAP
30
78
90
C6
FC
78
60
ENDCHAR
STARTCHAR FE81
ENCODING 65153
SWIDTH 225 0
DWIDTH 5 0
BBX 4 16 1 3
BITMAP
D0
B0
00
20
20
20
20
20
20
20
20
20
20
20
20
20
ENDCHAR
STARTCHAR FE82
ENCODING 65154
SWIDTH 225 0
DWIDTH 5 0
BBX 6 16 -1 3
BITMAP
D0
B0
00
20
60
60
20
20
20
20
20
20
20
30
1C
1C
ENDCHAR
STARTCHAR FE83
ENCODING 65155
SWIDTH 225 0
DWIDTH 5 0
BBX 3 16 2 3
BITMAP
60
80
60
80
00
40
40
40
40
40
40
40
40
40
40
40
ENDCHAR
STARTCHAR FE84
ENCODING 65156
SWIDTH 225 0
DWIDTH 5 0
BBX 5 16 0 3
BITMAP
60
80
60
80
00
40
C0
C0
40
40
40
40
40
60
78
38
ENDCHAR
STARTCHAR FE85
ENCODING 65157
SWIDTH 450 0
DWIDTH 10 0
BBX 9 17 1 -2
BITMAP
0C00
1000
0C00
1000
0000
0000
0300
0780
0480
0480
0780
0380
0080
0100
0300
8600
7C00
ENDCHAR
STARTCHAR FE86
ENCODING 65158
SWIDTH 450 0
DWIDTH 10 0
BBX 9 17 1 -2
BITMAP
0C00
1000
0C00
1000
0000
0000
0300
0780
0480
0480
0780
0380
0080
0100
0300
8600
7C00
ENDCHAR
STARTCHAR FE87
ENCODING 65159
SWIDTH 225 0
DWIDTH 5 0
BBX 3 18 1 -2
BITMAP
20
20
20
20
20
20
20
20
20
20
20
20
20
00
60
80
60
80
ENDCHAR
STARTCHAR FE88
ENCODING 65160
SWIDTH 225 0
DWIDTH 5 0
BBX 5 18 0 -2
BITMAP
40
C0
C0
40
40
40
40
40
40
40
60
38
38
00
60
80
60
80
ENDCHAR
STARTCHAR FE89
ENCODING 65161
SWIDTH 630 0
DWIDTH 14 0
BBX 13 13 1 -1
BITMAP
6000
8000
6038
8078
00C8
4080
8100
81F0
81F0
8010
C0E0
FFC0
7F00
ENDCHAR
STARTCHAR FE8A
ENCODING 65162
SWIDTH 585 0
DWIDTH 13 0
BBX 13 14 0 -2
BITMAP
6000
8000
6000
8000
0000
0000
4000
4078
80F8
8100
81F0
E010
7FE0
3FC0
ENDCHAR
STARTCHAR FE8B
ENCODING 65163
SWIDTH 225 0
DWIDTH 5 0
BBX 6 12 -1 3
BITMAP
18
20
18
20
00
08
0C
0C
04
04
FC
FC
ENDCHAR
STARTCHAR FE8C
ENCODING 65164
SWIDTH 225 0
DWIDTH 5 0
BBX 6 12 -1 3
BITMAP
18
20
18
20
00
08
0C
0C
04
04
FC
FC
ENDCHAR
STARTCHAR FE8D
ENCODING 65165
SWIDTH 225 0
DWIDTH 5 0
BBX 1 13 3 3
BITMAP
80
80
80
80
80
80
80
80
80
80
80
80
80
ENDCHAR
STARTCHAR FE8E
ENCODING 65166
SWIDTH 225 0
DWIDTH 5 0
BBX 5 13 0 3
BITMAP
40
C0
C0
40
40
40
40
40
40
40
60
38
38
ENDCHAR
STARTCHAR FE8F
ENCODING 65167
SWIDTH 720 0
DWIDTH 16 0
BBX 15 12 1 -2
BITMAP
4004
8006
8006
8002
E002
7FFE
3FFE
0000
0000
0100
0380
0100
ENDCHAR
STARTCHAR FE90
ENCODING 65168
SWIDTH 720 0
DWIDTH 16 0
BBX 15 12 1 -2
BITMAP
4004
8006
8006
8002
E002
7FFE
3FFE
0000
0000
0100
0380
0100
ENDCHAR
STARTCHAR FE91
ENCODING 65169
SWIDTH 225 0
DWIDTH 5 0
BBX 6 12 -1 -2
BITMAP
08
0C
0C
04
04
FC
FC
00
00
10
38
10
ENDCHAR
STARTCHAR FE92
ENCODING 65170
SWIDTH 225 0
DWIDTH 5 0
BBX 6 12 -1 -2
BITMAP
08
0C
0C
04
04
FC
FC
00
00
10
38
10
ENDCHAR
STARTCHAR FE93
ENCODING 65171
SWIDTH 270 0
DWIDTH 6 0
BBX 6 12 0 3
BITMAP
08
5C
E8
40
00
20
38
3C
44
44
7C
78
ENDCHAR
STARTCHAR FE94
ENCODING 65172
SWIDTH 360 0
DWIDTH 8 0
BBX 8 15 0 3
BITMAP
08
5C
E8
40
00
08
08
18
28
48
F8
F4
04
07
03
ENDCHAR
STARTCHAR FE95
ENCODING 65173
SWIDTH 720 0
DWIDTH 16 0
BBX 15 11 1 3
BITMAP
0080
05C0
0E80
0400
4004
8006
8006
8002
E002
7FFE
3FFE
ENDCHAR
STARTCHAR FE96
ENCODING 65174
SWIDTH 720 0
DWIDTH 16 0
BBX 15 11 1 3
BITMAP
0080
05C0
0E80
0400
4004
8006
8006
8002
E002
7FFE
3FFE
ENDCHAR
STARTCHAR FE97
ENCODING 65175
SWIDTH 225 0
DWIDTH 5 0
BBX 6 12 -1 3
BITMAP
08
5C
E8
40
00
08
0C
0C
04
04
FC
FC
ENDCHAR
STARTCHAR FE98
ENCODING 65176
SWIDTH 225 0
DWIDTH 5 0
BBX 6 12 -1 3
BITMAP
08
5C
E8
40
00
08
0C
0C
04
04
FC
FC
ENDCHAR
STARTCHAR FE99
ENCODING 65177
SWIDTH 720 0
DWIDTH 16 0
BBX 15 13 1 3
BITMAP
0400
0E00
0480
05C0
0E80
0400
4004
8006
8006
8002
E002
7FFE
3FFE
ENDCHAR
STARTCHAR FE9A
ENCODING 65178
SWIDTH 720 0
DWIDTH 16 0
BBX 15 13 1 3
BITMAP
0400
0E00
0480
05C0
0E80
0400
4004
8006
8006
8002
E002
7FFE
3FFE
ENDCHAR
STARTCHAR FE9B
ENCODING 65179
SWIDTH 225 0
DWIDTH 5 0
BBX 6 14 -1 3
BITMAP
40
E0
48
5C
E8
40
00
08
0C
0C
04
04
FC
FC
ENDCHAR
STARTCHAR FE9C
ENCODING 65180
SWIDTH 225 0
DWIDTH 5 0
BBX 6 14 -1 3
BITMAP
40
E0
48
5C
E8
40
00
08
0C
0C
04
04
FC
FC
ENDCHAR
STARTCHAR FE9D
ENCODING 65181
SWIDTH 540 0
DWIDTH 12 0
BBX 9 14 1 -5
BITMAP
7F80
FF80
0E00
3000
4000
4000
8400
8E00
8400
8000
C000
7000
7F80
1F00
ENDCHAR
STARTCHAR FE9E
ENCODING 65182
SWIDTH 540 0
DWIDTH 12 0
BBX 11 14 1 -5
BITMAP
7FC0
FFC0
0F00
1100
21E0
40E0
8400
8E00
8400
C000
E000
7800
3FE0
0F80
ENDCHAR
STARTCHAR FE9F
ENCODING 65183
SWIDTH 540 0
DWIDTH 12 0
BBX 13 10 -1 -1
BITMAP
1E00
3F80
03C0
00E0
FFF8
FFF8
0000
0200
0700
0200
ENDCHAR
STARTCHAR FEA0
ENCODING 65184
SWIDTH 540 0
DWIDTH 12 0
BBX 13 10 -1 -1
BITMAP
1E00
3F80
03C0
00E0
FFF8
FFF8
0000
0200
0700
0200
ENDCHAR
STARTCHAR FEA1
ENCODING 65185
SWIDTH 540 0
DWIDTH 12 0
BBX 9 14 1 -5
BITMAP
7F80
FF80
0E00
3000
4000
4000
8000
8000
8000
8000
C000
7000
7F80
1F00
ENDCHAR
STARTCHAR FEA2
ENCODING 65186
SWIDTH 540 0
DWIDTH 12 0
BBX 11 14 1 -5
BITMAP
7FC0
FFC0
0F00
1100
21E0
40E0
8000
8000
8000
C000
E000
7800
3FE0
0F80
ENDCHAR
STARTCHAR FEA3
ENCODING 65187
SWIDTH 540 0
DWIDTH 12 0
BBX 13 6 -1 3
BITMAP
1E00
3F80
03C0
00E0
FFF8
FFF8
ENDCHAR
STARTCHAR FEA4
ENCODING 65188
SWIDTH 540 0
DWIDTH 12 0
BBX 13 6 -1 3
BITMAP
1E00
3F80
03C0
00E0
FFF8
FFF8
ENDCHAR
STARTCHAR FEA5
ENCODING 65189
SWIDTH 540 0
DWIDTH 12 0
BBX 9 19 1 -5
BITMAP
0800
1C00
0800
0000
0000
7F80
FF80
0E00
3000
4000
4000
8000
8000
8000
8000
C000
7000
7F80
1F00
ENDCHAR
STARTCHAR FEA6
ENCODING 65190
SWIDTH 540 0
DWIDTH 12 0
BBX 11 19 1 -5
BITMAP
0400
0E00
0400
0000
0000
7FC0
FFC0
0F00
1100
21E0
40E0
8000
8000
8000
C000
E000
7800
3FE0
0F80
ENDCHAR
STARTCHAR FEA7
ENCODING 65191
SWIDTH 540 0
DWIDTH 12 0
BBX 13 11 -1 3
BITMAP
0200
0700
0200
0000
0000
1E00
3F80
03C0
00E0
FFF8
FFF8
ENDCHAR
STARTCHAR FEA8
ENCODING 65192
SWIDTH 540 0
DWIDTH 12 0
BBX 13 11 -1 3
BITMAP
0200
0700
0200
0000
0000
1E00
3F80
03C0
00E0
FFF8
FFF8
ENDCHAR
STARTCHAR FEA9
ENCODING 65193
SWIDTH 315 0
DWIDTH 7 0
BBX 6 9 1 3
BITMAP
10
18
08
0C
04
04
84
FC
FC
ENDCHAR
STARTCHAR FEAA
ENCODING 65194
SWIDTH 315 0
DWIDTH 7 0
BBX 6 9 1 3
BITMAP
10
18
08
0C
04
04
84
FC
FC
ENDCHAR
STARTCHAR FEAB
ENCODING 65195
SWIDTH 315 0
DWIDTH 7 0
BBX 6 14 1 3
BITMAP
20
70
20
00
00
10
18
08
0C
04
04
84
FC
FC
ENDCHAR
STARTCHAR FEAC
ENCODING 65196
SWIDTH 315 0
DWIDTH 7 0
BBX 6 14 1 3
BITMAP
20
70
20
00
00
10
18
08
0C
04
04
84
FC
FC
ENDCHAR
STARTCHAR FEAD
ENCODING 65197
SWIDTH 495 0
DWIDTH 11 0
BBX 10 11 1 -2
BITMAP
0100
0180
00C0
00C0
0040
0040
0040
00C0
0180
8700
7C00
ENDCHAR
STARTCHAR FEAE
ENCODING 65198
SWIDTH 495 0
DWIDTH 11 0
BBX 10 11 1 -2
BITMAP
0100
0180
00C0
00C0
0040
0040
0040
00C0
0180
8700
7C00
ENDCHAR
STARTCHAR FEAF
ENCODING 65199
SWIDTH 495 0
DWIDTH 11 0
BBX 10 16 1 -2
BITMAP
0200
0700
0200
0000
0000
0100
0180
00C0
00C0
0040
0040
0040
00C0
0180
8700
7C00
ENDCHAR
STARTCHAR FEB0
ENCODING 65200
SWIDTH 495 0
DWIDTH 11 0
BBX 10 16 1 -2
BITMAP
0200
0700
0200
0000
0000
0100
0180
00C0
00C0
0040
0040
0040
00C0
0180
8700
7C00
ENDCHAR
STARTCHAR FEB1
ENCODING 65201
SWIDTH 810 0
DWIDTH 18 0
BBX 17 11 1 -2
BITMAP
008100
00C580
40C480
404480
807F80
807B80
804000
80C000
C18000
FF8000
3E0000
ENDCHAR
STARTCHAR FEB2
ENCODING 65202
SWIDTH 810 0
DWIDTH 18 0
BBX 17 11 1 -2
BITMAP
008100
00C580
40C480
404480
807F80
807B80
804000
80C000
C18000
FF8000
3E0000
ENDCHAR
STARTCHAR FEB3
ENCODING 65203
SWIDTH 540 0
DWIDTH 12 0
BBX 13 6 -1 3
BITMAP
0010
0858
0848
0C48
FFF8
F7B8
ENDCHAR
STARTCHAR FEB4
ENCODING 65204
SWIDTH 540 0
DWIDTH 12 0
BBX 13 6 -1 3
BITMAP
0010
0858
0848
0C48
FFF8
F7B8
ENDCHAR
STARTCHAR FEB5
ENCODING 65205
SWIDTH 810 0
DWIDTH 18 0
BBX 17 18 1 -2
BITMAP
001000
003800
001200
001700
003A00
001000
000000
008100
00C580
40C480
404480
807F80
807B80
804000
80C000
C18000
FF8000
3E0000
ENDCHAR
STARTCHAR FEB6
ENCODING 65206
SWIDTH 810 0
DWIDTH 18 0
BBX 17 18 1 -2
BITMAP
001000
003800
001200
001700
003A00
001000
000000
008100
00C580
40C480
404480
807F80
807B80
804000
80C000
C18000
FF8000
3E0000
ENDCHAR
STARTCHAR FEB7
ENCODING 65207
SWIDTH 540 0
DWIDTH 12 0
BBX 13 14 -1 3
BITMAP
0100
0380
0120
0170
03A0
0100
0000
0000
0010
0858
0848
0C48
FFF8
F7B8
ENDCHAR
ENDFONT
